<mxfile host="65bd71144e" modified="2020-10-14T05:26:05.657Z" agent="5.0 (Macintosh; Intel Mac OS X 10_15_6) AppleWebKit/537.36 (KHTML, like Gecko) Code/1.49.2 Chrome/83.0.4103.122 Electron/9.2.1 Safari/537.36" etag="sXWnKgVFgwiRPB0WKoGX" version="13.6.5" pages="3">
    <diagram id="aFEo2pxtDMHisx82Lbek" name="ERD">
        <mxGraphModel dx="914" dy="874" grid="0" gridSize="10" guides="1" tooltips="1" connect="1" arrows="1" fold="1" page="1" pageScale="1" pageWidth="850" pageHeight="1100" background="#F1FAEE" math="0" shadow="0">
            <root>
                <mxCell id="0"/>
                <mxCell id="1" parent="0"/>
                <mxCell id="8SvVSGjduEfVpxyTPjYM-14" style="edgeStyle=orthogonalEdgeStyle;rounded=0;orthogonalLoop=1;jettySize=auto;html=1;exitX=0;exitY=0.5;exitDx=0;exitDy=0;entryX=1.006;entryY=0.112;entryDx=0;entryDy=0;entryPerimeter=0;endArrow=ERone;endFill=0;startArrow=ERzeroToOne;startFill=1;strokeColor=#457B9D;fontColor=#1D3557;labelBackgroundColor=#F1FAEE;" parent="1" source="8SvVSGjduEfVpxyTPjYM-3" target="8SvVSGjduEfVpxyTPjYM-5" edge="1">
                    <mxGeometry relative="1" as="geometry"/>
                </mxCell>
                <mxCell id="8SvVSGjduEfVpxyTPjYM-17" style="edgeStyle=orthogonalEdgeStyle;rounded=0;orthogonalLoop=1;jettySize=auto;html=1;exitX=1;exitY=0.5;exitDx=0;exitDy=0;entryX=0;entryY=0.5;entryDx=0;entryDy=0;startArrow=ERone;startFill=0;endArrow=ERmany;endFill=0;strokeColor=#457B9D;fontColor=#1D3557;labelBackgroundColor=#F1FAEE;" parent="1" source="8SvVSGjduEfVpxyTPjYM-8" target="8SvVSGjduEfVpxyTPjYM-13" edge="1">
                    <mxGeometry relative="1" as="geometry"/>
                </mxCell>
                <mxCell id="8SvVSGjduEfVpxyTPjYM-18" style="edgeStyle=orthogonalEdgeStyle;rounded=0;orthogonalLoop=1;jettySize=auto;html=1;exitX=1;exitY=0.5;exitDx=0;exitDy=0;entryX=0;entryY=0.5;entryDx=0;entryDy=0;startArrow=ERone;startFill=0;endArrow=ERmany;endFill=0;strokeColor=#457B9D;fontColor=#1D3557;labelBackgroundColor=#F1FAEE;" parent="1" source="8SvVSGjduEfVpxyTPjYM-4" target="8SvVSGjduEfVpxyTPjYM-12" edge="1">
                    <mxGeometry relative="1" as="geometry"/>
                </mxCell>
                <mxCell id="8SvVSGjduEfVpxyTPjYM-5" value="City" style="swimlane;fontStyle=0;childLayout=stackLayout;horizontal=1;startSize=26;horizontalStack=0;resizeParent=1;resizeParentMax=0;resizeLast=0;collapsible=1;marginBottom=0;align=center;fontSize=14;fillColor=#A8DADC;strokeColor=#457B9D;fontColor=#1D3557;" parent="1" vertex="1">
                    <mxGeometry x="90" y="320" width="160" height="146" as="geometry"/>
                </mxCell>
                <mxCell id="8SvVSGjduEfVpxyTPjYM-6" value="Image" style="text;strokeColor=none;fillColor=none;spacingLeft=4;spacingRight=4;overflow=hidden;rotatable=0;points=[[0,0.5],[1,0.5]];portConstraint=eastwest;fontSize=12;fontColor=#1D3557;" parent="8SvVSGjduEfVpxyTPjYM-5" vertex="1">
                    <mxGeometry y="26" width="160" height="30" as="geometry"/>
                </mxCell>
                <mxCell id="8SvVSGjduEfVpxyTPjYM-7" value="Name" style="text;strokeColor=none;fillColor=none;spacingLeft=4;spacingRight=4;overflow=hidden;rotatable=0;points=[[0,0.5],[1,0.5]];portConstraint=eastwest;fontSize=12;fontColor=#1D3557;" parent="8SvVSGjduEfVpxyTPjYM-5" vertex="1">
                    <mxGeometry y="56" width="160" height="30" as="geometry"/>
                </mxCell>
                <mxCell id="8SvVSGjduEfVpxyTPjYM-21" value="Country" style="text;strokeColor=none;fillColor=none;spacingLeft=4;spacingRight=4;overflow=hidden;rotatable=0;points=[[0,0.5],[1,0.5]];portConstraint=eastwest;fontSize=12;fontColor=#1D3557;" parent="8SvVSGjduEfVpxyTPjYM-5" vertex="1">
                    <mxGeometry y="86" width="160" height="30" as="geometry"/>
                </mxCell>
                <mxCell id="8SvVSGjduEfVpxyTPjYM-8" value="Posts" style="text;strokeColor=none;fillColor=none;spacingLeft=4;spacingRight=4;overflow=hidden;rotatable=0;points=[[0,0.5],[1,0.5]];portConstraint=eastwest;fontSize=12;fontColor=#1D3557;" parent="8SvVSGjduEfVpxyTPjYM-5" vertex="1">
                    <mxGeometry y="116" width="160" height="30" as="geometry"/>
                </mxCell>
                <mxCell id="8SvVSGjduEfVpxyTPjYM-1" value="User" style="swimlane;fontStyle=0;childLayout=stackLayout;horizontal=1;startSize=26;horizontalStack=0;resizeParent=1;resizeParentMax=0;resizeLast=0;collapsible=1;marginBottom=0;align=center;fontSize=14;fillColor=#A8DADC;strokeColor=#457B9D;fontColor=#1D3557;" parent="1" vertex="1">
                    <mxGeometry x="290" y="90" width="160" height="146" as="geometry"/>
                </mxCell>
                <mxCell id="8SvVSGjduEfVpxyTPjYM-2" value="Base Django withcraft" style="text;strokeColor=none;fillColor=none;spacingLeft=4;spacingRight=4;overflow=hidden;rotatable=0;points=[[0,0.5],[1,0.5]];portConstraint=eastwest;fontSize=12;fontColor=#1D3557;" parent="8SvVSGjduEfVpxyTPjYM-1" vertex="1">
                    <mxGeometry y="26" width="160" height="30" as="geometry"/>
                </mxCell>
                <mxCell id="8SvVSGjduEfVpxyTPjYM-19" value="Join Date" style="text;strokeColor=none;fillColor=none;spacingLeft=4;spacingRight=4;overflow=hidden;rotatable=0;points=[[0,0.5],[1,0.5]];portConstraint=eastwest;fontSize=12;fontColor=#1D3557;" parent="8SvVSGjduEfVpxyTPjYM-1" vertex="1">
                    <mxGeometry y="56" width="160" height="30" as="geometry"/>
                </mxCell>
                <mxCell id="8SvVSGjduEfVpxyTPjYM-3" value="Current City" style="text;strokeColor=none;fillColor=none;spacingLeft=4;spacingRight=4;overflow=hidden;rotatable=0;points=[[0,0.5],[1,0.5]];portConstraint=eastwest;fontSize=12;fontColor=#1D3557;" parent="8SvVSGjduEfVpxyTPjYM-1" vertex="1">
                    <mxGeometry y="86" width="160" height="30" as="geometry"/>
                </mxCell>
                <mxCell id="8SvVSGjduEfVpxyTPjYM-4" value="Posts" style="text;strokeColor=none;fillColor=none;spacingLeft=4;spacingRight=4;overflow=hidden;rotatable=0;points=[[0,0.5],[1,0.5]];portConstraint=eastwest;fontSize=12;fontColor=#1D3557;" parent="8SvVSGjduEfVpxyTPjYM-1" vertex="1">
                    <mxGeometry y="116" width="160" height="30" as="geometry"/>
                </mxCell>
                <mxCell id="24kbwOg8v7CBH-aC-mG8-7" style="edgeStyle=orthogonalEdgeStyle;rounded=0;orthogonalLoop=1;jettySize=auto;html=1;exitX=1;exitY=0.5;exitDx=0;exitDy=0;entryX=0;entryY=0.5;entryDx=0;entryDy=0;startArrow=ERone;startFill=0;endArrow=ERmany;endFill=0;strokeColor=#457B9D;fontColor=#1D3557;labelBackgroundColor=#F1FAEE;" parent="1" target="24kbwOg8v7CBH-aC-mG8-2" edge="1">
                    <mxGeometry relative="1" as="geometry">
                        <mxPoint x="450" y="100" as="sourcePoint"/>
                        <mxPoint x="500" y="410" as="targetPoint"/>
                        <Array as="points">
                            <mxPoint x="480" y="100"/>
                            <mxPoint x="480" y="161"/>
                        </Array>
                    </mxGeometry>
                </mxCell>
                <mxCell id="24kbwOg8v7CBH-aC-mG8-8" style="edgeStyle=orthogonalEdgeStyle;rounded=0;orthogonalLoop=1;jettySize=auto;html=1;exitX=0;exitY=0.5;exitDx=0;exitDy=0;entryX=0.006;entryY=0.078;entryDx=0;entryDy=0;startArrow=ERone;startFill=0;endArrow=ERmany;endFill=0;entryPerimeter=0;strokeColor=#457B9D;fontColor=#1D3557;labelBackgroundColor=#F1FAEE;" parent="1" source="24kbwOg8v7CBH-aC-mG8-3" target="8SvVSGjduEfVpxyTPjYM-10" edge="1">
                    <mxGeometry relative="1" as="geometry">
                        <mxPoint x="490" y="270" as="sourcePoint"/>
                        <mxPoint x="570" y="331" as="targetPoint"/>
                        <Array as="points">
                            <mxPoint x="510" y="191"/>
                            <mxPoint x="510" y="386"/>
                        </Array>
                    </mxGeometry>
                </mxCell>
                <mxCell id="8SvVSGjduEfVpxyTPjYM-10" value="Post" style="swimlane;fontStyle=0;childLayout=stackLayout;horizontal=1;startSize=26;horizontalStack=0;resizeParent=1;resizeParentMax=0;resizeLast=0;collapsible=1;marginBottom=0;align=center;fontSize=14;fillColor=#A8DADC;strokeColor=#457B9D;fontColor=#1D3557;" parent="1" vertex="1">
                    <mxGeometry x="530" y="370" width="160" height="206" as="geometry"/>
                </mxCell>
                <mxCell id="8SvVSGjduEfVpxyTPjYM-20" value="Post Date" style="text;strokeColor=none;fillColor=none;spacingLeft=4;spacingRight=4;overflow=hidden;rotatable=0;points=[[0,0.5],[1,0.5]];portConstraint=eastwest;fontSize=12;fontColor=#1D3557;" parent="8SvVSGjduEfVpxyTPjYM-10" vertex="1">
                    <mxGeometry y="26" width="160" height="30" as="geometry"/>
                </mxCell>
                <mxCell id="8SvVSGjduEfVpxyTPjYM-16" value="Title" style="text;strokeColor=none;fillColor=none;spacingLeft=4;spacingRight=4;overflow=hidden;rotatable=0;points=[[0,0.5],[1,0.5]];portConstraint=eastwest;fontSize=12;fontColor=#1D3557;" parent="8SvVSGjduEfVpxyTPjYM-10" vertex="1">
                    <mxGeometry y="56" width="160" height="30" as="geometry"/>
                </mxCell>
                <mxCell id="8SvVSGjduEfVpxyTPjYM-15" value="Image (bonus)" style="text;strokeColor=none;fillColor=none;spacingLeft=4;spacingRight=4;overflow=hidden;rotatable=0;points=[[0,0.5],[1,0.5]];portConstraint=eastwest;fontSize=12;fontColor=#1D3557;" parent="8SvVSGjduEfVpxyTPjYM-10" vertex="1">
                    <mxGeometry y="86" width="160" height="30" as="geometry"/>
                </mxCell>
                <mxCell id="8SvVSGjduEfVpxyTPjYM-11" value="Content" style="text;strokeColor=none;fillColor=none;spacingLeft=4;spacingRight=4;overflow=hidden;rotatable=0;points=[[0,0.5],[1,0.5]];portConstraint=eastwest;fontSize=12;fontColor=#1D3557;" parent="8SvVSGjduEfVpxyTPjYM-10" vertex="1">
                    <mxGeometry y="116" width="160" height="30" as="geometry"/>
                </mxCell>
                <mxCell id="8SvVSGjduEfVpxyTPjYM-12" value="User" style="text;strokeColor=none;fillColor=none;spacingLeft=4;spacingRight=4;overflow=hidden;rotatable=0;points=[[0,0.5],[1,0.5]];portConstraint=eastwest;fontSize=12;fontColor=#1D3557;" parent="8SvVSGjduEfVpxyTPjYM-10" vertex="1">
                    <mxGeometry y="146" width="160" height="30" as="geometry"/>
                </mxCell>
                <mxCell id="8SvVSGjduEfVpxyTPjYM-13" value="City " style="text;strokeColor=none;fillColor=none;spacingLeft=4;spacingRight=4;overflow=hidden;rotatable=0;points=[[0,0.5],[1,0.5]];portConstraint=eastwest;fontSize=12;fontColor=#1D3557;" parent="8SvVSGjduEfVpxyTPjYM-10" vertex="1">
                    <mxGeometry y="176" width="160" height="30" as="geometry"/>
                </mxCell>
                <mxCell id="24kbwOg8v7CBH-aC-mG8-1" value="Comment" style="swimlane;fontStyle=0;childLayout=stackLayout;horizontal=1;startSize=26;horizontalStack=0;resizeParent=1;resizeParentMax=0;resizeLast=0;collapsible=1;marginBottom=0;align=center;fontSize=14;fillColor=#A8DADC;strokeColor=#457B9D;fontColor=#1D3557;" parent="1" vertex="1">
                    <mxGeometry x="550" y="120" width="160" height="146" as="geometry"/>
                </mxCell>
                <mxCell id="24kbwOg8v7CBH-aC-mG8-2" value="User" style="text;strokeColor=none;fillColor=none;spacingLeft=4;spacingRight=4;overflow=hidden;rotatable=0;points=[[0,0.5],[1,0.5]];portConstraint=eastwest;fontSize=12;fontColor=#1D3557;" parent="24kbwOg8v7CBH-aC-mG8-1" vertex="1">
                    <mxGeometry y="26" width="160" height="30" as="geometry"/>
                </mxCell>
                <mxCell id="24kbwOg8v7CBH-aC-mG8-3" value="Post" style="text;strokeColor=none;fillColor=none;spacingLeft=4;spacingRight=4;overflow=hidden;rotatable=0;points=[[0,0.5],[1,0.5]];portConstraint=eastwest;fontSize=12;fontColor=#1D3557;" parent="24kbwOg8v7CBH-aC-mG8-1" vertex="1">
                    <mxGeometry y="56" width="160" height="30" as="geometry"/>
                </mxCell>
                <mxCell id="24kbwOg8v7CBH-aC-mG8-4" value="Text" style="text;strokeColor=none;fillColor=none;spacingLeft=4;spacingRight=4;overflow=hidden;rotatable=0;points=[[0,0.5],[1,0.5]];portConstraint=eastwest;fontSize=12;fontColor=#1D3557;" parent="24kbwOg8v7CBH-aC-mG8-1" vertex="1">
                    <mxGeometry y="86" width="160" height="30" as="geometry"/>
                </mxCell>
                <mxCell id="24kbwOg8v7CBH-aC-mG8-5" value="Commented_date" style="text;strokeColor=none;fillColor=none;spacingLeft=4;spacingRight=4;overflow=hidden;rotatable=0;points=[[0,0.5],[1,0.5]];portConstraint=eastwest;fontSize=12;fontColor=#1D3557;" parent="24kbwOg8v7CBH-aC-mG8-1" vertex="1">
                    <mxGeometry y="116" width="160" height="30" as="geometry"/>
                </mxCell>
            </root>
        </mxGraphModel>
    </diagram>
    <diagram id="AVlnDjuy13-BODCzIfZJ" name="WIREFRAME">
        <mxGraphModel dx="914" dy="874" grid="0" gridSize="10" guides="1" tooltips="1" connect="1" arrows="1" fold="1" page="0" pageScale="1" pageWidth="850" pageHeight="1100" math="0" shadow="0">
            <root>
                <mxCell id="003vY1ZB3nKPKTwguDPn-0"/>
                <mxCell id="003vY1ZB3nKPKTwguDPn-1" parent="003vY1ZB3nKPKTwguDPn-0"/>
                <mxCell id="003vY1ZB3nKPKTwguDPn-2" value="" style="shape=image;verticalLabelPosition=bottom;labelBackgroundColor=#ffffff;verticalAlign=top;aspect=fixed;imageAspect=0;image=data:image/png,iVBORw0KGgoAAAANSUhEUgAAAggAAAFDCAYAAABfi/ZRAAAgAElEQVR4XuzdCbS913g/8JMO/7ZabVFjzUMQoRUkpggilRAJiVDaoGquWrQ1LBYai9Wiq8ZWtVViaEWIpEIkhkQbYg4SogilNZRqlY465L8+r3x/9m/nPfe859xzzj3n3P2udde995z97nfvZz/7eb7PsJ93n0suueSSUbsaBRoFGgUaBRoFGgUaBQoK7NMAQuOHRoFGgUaBRoFGgUaBmgINIDSeaBRoFGgUaBRoFGgUuAwF9gCEf/7nfx597GMfG/3AD/xAI1OjQKPAilLgdre73ej//b//t6Kj23pY73//+0f/+7//u5Zjb4NuFNhNFDjggANGP/ZjPzbaAxAuvPDC0bOf/ezRj//4j+8mOrS5NgqsDQX22Wef0fOf//zRFa5whbUZcznQxzzmMaP/+7//W8uxt0E3CuwmCpxwwgmjq171qt8HCBdddNHohS984einfuqnRle60pVG+++//+jyl7/8IJrwPHz1q18dtXzHQeRqjRoFZqbAU57ylNFP//RPz3z/Tt74+Mc/fvSjP/qj3RBueMMbjvbdd99Bw/m3f/u3Efn09a9/fVD71qhRoFFgexT4zd/8zdGVr3zlywIEoODggw8eXf/61x9d5zrXmQgSeB6+8pWvjN73vveN/uu//mt7o2p3Nwo0CmxJgU0ACEIkxx9//Oi73/3uaL/99ttyvsDBl770pe7nnHPOadzRKNAosAQKbAkQjjzyyNGtbnWr0ac//enRzW9+8z2ovx4XVP+DP/iDHTB485vfPPr3f//3JQy9PaJRYPdSYBMAgtjm0572tNHf/u3fbgkSyJULLrhgdOMb33j0iU98YvSWt7xl9y58m3mjwBIpMBEg3PnOdx79x3/8x+g973nP6LDDDuuAQHn9zd/8TRdPvNGNbjT63Oc+N3rDG97QAMISF7A9andSYFMAwjOf+czR//zP/4zIEaFJIc3y8tnb3va20aGHHjr6kR/5kc5D2QDC7uT5NuvlU2AQQDAsWce8A8cee+xIkpSNy933r//6r5170Gc8DQEIvgcsLne5y3XWgf9tcK5C8ccaaGTq//RP/zT6oR/6odFP/uRPLp8a7YmNAmtCgU0CCEjOyBCm/Imf+IkurOkiM0466aTRcccd18kL/5cAAbAgd+K9JF/04/NxJzz08Y//+I9dEjbZ1K5GgUaB8RQYDBCyYU899dTREUccMaLIv/GNb4x+7ud+bk/vJUCwUb/97W93GxGIABJ+5md+ZvQP//APXXIVEOD64R/+4Q58OFb53//93533wUb3uc2snd9+CANt/Z378rfv2tUoMI4C+AswxZf+Bl6jdPCOz/1QUP/5n//ZdUPR9F34E19q5ySBvZD9EfCc/z3LZ37Sn7/D4/g5ANrf+vX9Fa94xY7P7QdjNTb3cLf7fNMAQuj8kY98pEuKuspVrjJ661vfOjrmmGM6eoSeNUAgY6zBpz71qdG1rnWtbk3JJX+jE/qjnc+zxp///Oc7j2dOUmgTGZO/Pc/f1sy97dh3ky1DKBCZEp6Lbiv5KzymTV9Cv++j3+x5ehEfRgcGUPttb4Q3y/58Lo+QbIncMZbIp+7o4j777PleH36MP/JP/1MBBDcQUDbuta997dGtb33rvWhWAgRfGNw3v/nNDhAQci4TloVMCPBAyGD+2te+1p2aACQAilgEiJTPPNekbH6/I6ARgbehAYQh7Lt72ziqgwdlzf/93/99t2l+9md/dg8I/bu/+7vOsvQZhYNPP/rRj/YS7Pa3v/3oC1/4QsereJESx6c2FhCslgh+9b/nAR3+p8RsYqeD9O/eeNrwMN6+xjWu0XnZ5P58+ctf7vq2j771rW+Nbnazm43OPffcrt9NBQgIDgRYj6OOOqqjUa7ag+Dziy++uJNFaIcuV7/61TvAFjCIztbjale7Wvc52ls76+x/QlEb91qD73znO91vdPfs3JtTF7t3B7WZD6HANa95zY537Hc8xiDGc/Y0PYfXgH/6zv//8i//cplu8eoNbnCDbg/Qb+lPW7LED5CLd/EqMEz5k2sAs30CYBsDWSVHkA6md+O5v+Md7zhSjwTfk136wPvkE7mTayqAYBAElYl5OOFXhgJqgODhNiMw4LIhEc0kCGh9CU8YuEkH7Wtr0JCTASOoDUpQIoK/TdgYPL8UIkMWsbXZfRTAM9e73vVGt7nNbUasVLyEv255y1t2QJXyBiB+/ud/vjv3K5/GTx/w9D03OP7Tp/uACULAxvY/haV/G5HSf9Ob3tS1951TQfjdmOyN8847b0Sw2NTGBhzgb/vNPrFfApQ/9KEPdWPfVIBgruhu3xNa6BMLqQ8gkAeAmh9HrAle4QX9oDX5kNADAHjd61636x+oIHe0AQj17V4Jk6kB4z60tjbtahQYQgH8FZ6RV0O/MXQpd2UAKHwyA4995jOf2eN9LPsW+qJbtSEH/Nj38VQecsgho9NOO63ja30ddNBBow9+8IMd/0e33va2t+0Se+9zn/t0z8XfZA6woMgaQ4a+do/94n+/PYfcmhoguClWEpTub50TliZd5yB4AOHGgwC1BI1DU4jlHhOGlhDUZ/4GKjzLPQhrUyOQwRMa2iGc7whkxESodjUKbEUBIBMPUtYQMl4i+Hmi8LEjuviO4rCRKHgKpA8gsOShbTyoX2Dhi1/8YrcRKTT9sDz14xlAyVlnndWBW8+lkPAwwICHWQj2VGLqxmQvaGufeZY9Qmh8/OMf30iAQIBFpqAF+cA74DeZ0ZeDYL3JC2uFzu73E08A2QBkWQe0J6uAMoDQM9A1YR3Pd591c1/crYwYa9GuRoEhFMBX9i++sq/prTvd6U6d3iIDyCD87HPyxf6vL/qOnMKfjAZ/U/xO8JAZN7nJTUbnn39+p/fwvROGgC2Fbz/gZXJM354FiJBLAc76A4Y9H3+TLfaI5xonr8dUAMFDTdYm1XEum9GG8pkHGEh9iiE5A+5NPC9xV8QyYf0QtrGaCGXP9BlhixCJ5SamYqPrp8UHh7Bta1NSAH9RAvgW/yb8NQuV8OVNb3rTjoeBhL5LZr4EvFyeH8BbovVJzwdGbGjAYZM8CAQaYWhu5kiW5ALeCNzkLdWnGAIsAAl0SWK032VuiXUmTH2WROnINP0nx8N6Gge5kgTroR7KJEhOWsf2/eZRAN8kr67MFTBT+x8/AryzXLzu5AWQ2ycvYmTHw+AZ+LzMjxryXAAZz4sQDAYIajFT7JR0X/llmywbTszkjW9841THHGMlxQsxZCKtTaPAbqfApgCEZzzjGZ38ALDIgD4ZQ2ETuowCoZxpjzkyNsiZRZ9a4KHgUh4KKHY7D2/K/Cl/IcrS8t6UuW2ZgyDB4Q53uMMeF/+4REBWPQuAB+HMM8/cKwtyUwjV5tEosEoU2ASAQOE/4QlP6Kwi4GBcqDCJnASxHI13v/vdq7QUe8Yi9CSxsvSyruRA26DmSgEAVq0OIYBNu8YCBEzOZQLR5+jVVpPnZbCBp3GZbhox23waBZZFgU0ACHHrCxUKJ251AQkJV67qi54aQFgW96/Wc3YlQEhmb985zXHLk/Peq7V8bTSNAoujgP0hwVHMWuw8CW6Le+L3et4EgGAe0772uTz3vWgaT9t/AwjTUmwz2u86gPCCF7yguck2g3fbLBZMAdasRLr6YhFzm3OjL6JGh3cYrPPbHDfx5BGAcPTRRzfZueA9t2rdByA4YbRp12/91m/t/TZHwu7000/v6hVIUEzVuCFhhk0jTptPo8AQCvAiODp5yimndMVNWMVCbU7opIqZDOH73ve+3REle8lP9tZWAELfcny0kefzrne9qztWeeCBB44tJzxkzDvZ5nnPe1537tp57oQWxpVG3slxTvtsYFFIdlwOQllNb0jfZQXZRYDMIWNobSZTwAmZz372s93RwnW+UncFH8unkFP40Ic+tDsquc8ll8YSnCl2ptLZbdnFqi3JzlWa1FnMFCJZZ0K0sTcKLJoCjjR5wZlCYTYesOAYUl6F7sidF6GpbUA5+klBsJRYTj0QRyQBDG2BCtnS2k6K2y96jrP2f/LJJ3fvV0AL57nRR8n25CKkDOys/e/UfU5imEMfQLCm5Kdz5lEkBHFZXtt6pyiUkFXqzghd5Qhdfu/UHNtzL0sBAIFhcItb3GLtyIPnGB6pcKxGiLem0vmqtioc150w7AMImW2yiFkvLBc3KIDECmhHetaOJ9qAd4AC8hRk3yccQVn4W2Kv/eUs813ucpfurD6vg7PIwhOqnpV1AQx9UwBCKV/QgxUm90lxGP+nuNUOLNdMj5wEECgRJXIBQ4KZDAUQzNX6Aw8ENZe12hoAlHZAJtCBV1TO2wRvy0wEXtGb1g0g4ClFkuhx/KfAG1CgyFPpqfqrv/qrrtLsRIBQrgthhiCqNumU+xMj63wT44orypNtWGtMAXtI0RPWs+JKFAcwADDw2tmkKp/x4lGWrEpgXBlXngSbexM8CH1LiDYUJPemstWUIXBl7qv+PoRpAIL1VyVW2e3f//3f795royIeeQpIPuYxj+kAhD55XIAKvCHPAS+0a3UosA4AIUYHD5REanUbGCOqKo57Edlf//VfdwCBgbKlB2HcUnCRYXTI1oMIOg/H9C1mtjoM3EayWhRQXEzOgr3iB0jwm3uPNQnVAwuf/OQnO/efi4UJkAMG7rfHuP/WMVExIYZJqwIssKpZ0MACWpg7F/0qGiOTAIL15UGQe2FOLDkegac+9amde1oNBfNTZ78GCIcffnh3Usb6c/+2a3UosKoAgX6WMpB3IAGkwpJkyZDw5LYBQrlEhJoNAOVzE4qbYmbIv70qdXWYuY1kZygAwVMKqvpRcIAAJZf3DJSjsrFtZu0pDP978YvEIUqS4rS3KM285IyiCWBY9f02FCDU8oWgQz+gCG38lkydN9TtzMp+/6mTAAJPiJfh8LbyAiTMwGsg8dT3+OHss88ePfKRj+zW2nzf+973dgnj5pkX+Oz0XNvzv0+BVQMIxqPiKA9kXvbGgJ82NDVXgFBvZm7QvA2NheTNbJDLqguvxviNAvOiANDMq4b/uepsVj+U+zTJZgABd7M9RZkQACxRVQW543nrKMu8jMj/6r97oxuwvmrXLAChnAMa5pXOaEOQcdGb/056LrcCCMYvFGsdXeK6ZCEPCbBg3CeccEJnUKlgq2RzCkPpl4cpNSBWBRCtGl/t1HhWASAwOIACRgOQKU8p73CYlS4z5SBM+zACTQgCUzsdgdkl4Iil7uRmnnYerX2jwBAKpC6CUww2KwWd15LPS7Db/FyEvAuUJSvzwx/+cGdp5v3yPAsS27RjOYhvi2MTHjt9bRcg1GABSKJweV3kdUiklrux7GsSQNhqPIAOMGmt5J/Mi1eWTYPd+LydAghyUoQh7XHhR3LGoYF55eoA3oNOMcxr0bnUbARC1FvZeBhudatbzW1C8xpn66dRYBoKJLFOoRSWnngy8MtLsAhBX59iSK0EYNze8r9aJiwASstYCJG8FdWY7nrXu3anJngelg3U5wkQas8lGWM+krAAB675Zb0bYTsAYRp+a21XiwLLBAj2tlMHwKQ9DFBG1sx7Hy8sxDDN8nGNOG8JNTsLneSJeU92mjG1to0Ck6w931NGYsp42GZdVuLctMccxbLf8Y53dLHtvBkxRXjMA2CQBHfYYYd9ryjKPvvs+VkEJywKIPSNlZfFqQBA6KCDDtoT2lmEfGkAYRHcsvp9LhIgZJ9edNFFowsuuGB0xBFHLA3wrgRAyPKnGt3nPve5zjULMLggpJa3sPqbZNNHKB7MQseL4v9CCIceeuiO1AGZFiDUawMw8DDIYTAne49yy9/c9cIR3uSa2LfkOABoHop1mQChnDsgp3iVom+SAlOYaZp8kK34vAGETZcC/fObJ0DgAbQPXfJslBNwYkluyiK8kVut2NJDDNOwj3PQCCTZKigqGdvT9NPaNgrMSgEKJHUJ5NEABTaqLPSdvLYLEOqxm+epp57aCaMU5yH0KDwCi2A68sgjuzP44psUqtwK+3EWobVTACHzNic0dBKC8JUPRcYAQ9sBCw0g7OSu2Llnbxcg4D1yRj6R/UT3AeP77rvv1CcP5kmFpSQpbnfAiOeIF+I5ykVQ28Q2dfMsbJe67f6aApSHTHO/8RiPFqWozPE8rOd5UHzeAKEeE2AudGLurBk/lGmOWAIGjlB5rwTa8PIpugI0DNmTOw0QyvmSK45nC0U4aSXhU5hTSGLIXMq+VhkglCGlefDgbuxj3NuKZwEI8drhOx47OQX+dnplWaHKSWu4UiGGSYP1vc2rMBMCEt5chjZyV+lpn32GdNHaNApchgKpO8B6FtqiMFjVFOAq8tWiAUJNIIJLnpDiTbF24uFDJ/tPMiBrnAVEwRJ0ju/1eRhWCSCUc5VTwktEvjgyqciMuQ0FPqsKEHLSZTvekd0uNsgIQLiPhkMBQvaO9rxVgLecIMC0Lqe+CvReO4BQEo0141iTM+UEuzPichfauyFWgbVWfww2vCOBlABQAHz62e7Z4WXMfNkAoZ4TReh4FdoBCPah/+1BdAUQ1H1A14QjHG0WmvH/qgKEcp5kCqsunkpC3XyciBgHGqcFCDl9wlPhefI8uJrJsJzGSO0D3/PWoHd+tKNkcjplHO/ha8aU/l3TFsxZBk+v+jPQOUeG67FOAgjuZdhaZ2CThw4f+XsVDZDMb60BQrlIBL1FUoiJ0ILKJCLN6zzoqjNvG98wCuSlY47AqSzGtRcvVITnsJ52ttVOA4R69mioGFROSNiLTkzYi2jOOlI9EpgnJI3/UY96VFerYJUFpHnGFWyOwAIwxKMi3MkKLK9pAIJ+WfaSJtFNQihwpW/Jo2QZkCV7nZcUr3qeUE/KNetD9UWgS67WVgDB2PKWzHrcO8vN6/H0JCgP9SBYW+sE2MklAAp403jVpg1d7RSF1iIHYRriZDMHbdtMFlTG8qrEdaaZT2s7HwrIW1GmmAUoVk6BUVrrBApKSqwaQKhXyf7LO1rsSQXShCgos7zeWDgiCos73zFRa7PKbnBz4blk3bMAnUcn9Cln1uU0AAEY0NcrXvGKDqw6NcLQwZfnnXdeBx4khp5zzjndWy7vdKc7dWEPeSFqyDz60Y/uwATFwyOgUE4DCPORF329DAEIkniFJ4FIoAC/4HfAeNWBcN+cV/oUw3aX2gbkWnMRWMpQSjQT71kXBLddGuzm+625rHx8wJtksxLim+BVWnWA0AcYWOA5Rvm6172ue521ebisC4WbY5T2qZoMQMQq79UUocJbACjAwxgZWpiJ8gBW8aSfnBght5LbAQT4ARzQCTjxP/d0is6lENYkgMBzgJ6bsAeWLdu2Agg8QIqkOeEExAF3eGGWEz7LntdWz9uYEMMkosadZ3NYzLPOOquzWNbBxTlpbu3771OAUOXqBgy8h6B7j/k++3QbdR0R/Li1XTeAUM/jpJNOGt3rXvfaY2Fxo8tLSBJkEh0jYLnzjz/++C4/ZBUBQ+QLxe0aChCWtXcBDvuCt8G1SXthWTQkWwDXvjdpAnk8B8qZryJ/zkqjXQMQ+ghkwbnrHKHkvosy2aQFnpUx1uG+0npyLPGUU04ZHXPMMXtefLMOc5h1jOsOECYlKQpHvO1tb9sDGFjWeXERmonNH3300Z03EIiwZ1cBBE4TYph17dt9q0eBSUmKqzfiYSPa1QChJBGX0Pvf//7OxSmeyI3HRTTkndnDSN1azYMCQIHQQbK/xWIdRVx1V/Q85l72ASAoibzK8fqt5jwJIJT3WmtJe29/+9u7+hT+j9sdcHAp0X7Pe96zyzFhHdvHsxZx2s5aNYCwHeqt772bChA2LklxHiwGHJxxxhndW6wcy8qRlBa3mwd1Z+uDQnD8i9B3/p41yZ23WwHcpnsQtuIS+9ObK4FDPOHKyaUkQDpSqQy2UwcuSWJi9ovmlwYQZtvf637XpgKE5kGYwJkEEGGUinH+J2waWFj8lkZrFmMK1siKB9oa7Uddch8+XLTCW9QqT+NBGDIG3j8vshFr5w2UACmfwd8uRZy8YTNhREcI5TPMSj+ei75QZAMIQ1Zr89o0gLB5azrVjLg1CWWMwKuQ7GXKa13dvFMRYEmNeQpSvQ7NFapxXGhdjyMuimwNIIynrBAUL1PeKwEkyDP68pe/3AEGih1PCSXmvRKSIIWphhYQYllJRAQ6ymtVAYITJGjQrtkpwAPlGG6fgdIAwux03bg7uTFZJy5xYImOCpk4y7zux1p2YrEcH0JPrmOnSoR0WHpDy9vuxJh3+pkNIAxfAaAAWAhAsH/lNKjNgOcAfADBEbUAhFvf+tbdZ+MAw9Of/vTuyCaAcL/73W+PJ2LZACHJm5M8IfhFPJmc8tOu6SnAYHGEVaGj+tpUgNByEKbnk73uIGwUf8lb4AgdiVJcmO00xHjiEmxCBmhHyPIcoOW42v3bXKaNu70BhNmXFO8poKaYDZ5jXQsjKkYEMLiAA2AV4Le3hba8W4L1qM0JJ5zQVclz3f72t+/yYQ455JCpCiVROBQLoCG3xvPtBd4P+0BxLyETRghvBeDsiLa8CnNwrws4UOdjq6OLOacvrOKoXrumpwCewQvjjjnydtYepemfslp3bHShpGWTmuBQGY3VYTOLg0KcNng7dzzqhBpPgfPYhC3LDTBYp9Kjy+apcc9rAGF+K2HfAguqGOJRCvuNb3xjx6dJepTvwfIGGFIZMkXY7G3fAQqHH354x9dD6iDoBzhRKVEFPoXcVFP02m3HruVUcGkDCoCJZwi1KcjD+ODlYJD4zimOSQBB/7yc8qnaNT0FditAcKS4exniJTj20oxgjOd1ru2ajQKEDMED3Yv9Sba73e1ut+vKPcdKQgMWGYGXI6QtHDMbb7mrAYTZaTfpztKy9zfwoCaDYk729bjL0Uqew3vc4x6jgw8+eNJjOjBiX+gbCHDygnUPRPMmOGat2Bfrn4dDYSlWqtMbPBzAyGtf+9ruHRdHHXVUAwgTKb69Bg0gNICwPQ4aczdBgLQQvhrrLAxZ1ZPihgsZzJI6JUjVqechYA1l/i3sMp8FaABhPnQc0kuqJKbmwkte8pLO2h932d8KdlHgW524SSl4e6L8KQuAZb/Ek+EeP6kOKr/C35MSpRkoFBxg0fbgkFW/bBseYZ6k3RZiaB6E2fhlW3cJQbBIWNUp8rMKleBmmVSElt8SNi+++OLuJTMtrDILNYfds5sKJQ2jyHJa4fEXvOAFXZLjuAvf+xFmeOpTn9odp2zXZlOgJSlu9vru6Oy4Df14G5skGFaBWOMqI30WDbcoUENZSTiUVwBht2vxFGgehMXTuO8JXhP+6le/uuN3VrvYrFBALta/UAPgL7HxwAMP3Ov7nRl1e+qiKbCpAKEVSlo050zRP+HCAlcHgFsnJYVZIqsAFlhP4rF5bbb4KXebGGjzFkyx0HNo2gDCHIg4Qxfi/4oy2atOKwEAZdLfso85zjCFdssCKNAAwgKI2rocTwGJfBJFWepeSCPDmnfBEadlggWggDLiKZBFff7553enDpzOaKBg5zi4AYSdo/1WT24AYTXXZdGjagBh0RRu/Y+lgEQ/Lk2eBO5M4QgKunRtzpN8QIGkJsKOq1RWtYRKJxDayYN5Unr2vhpAmJ12i7yzAYRFUnd1+95UgNAKJa0uz/WOzPsJAASJjYCDzOSUjN3OVLhM9a3inKNW8iD0DyC0dx9sh7KLubcBhMXQdbu9NoCwXQqu5/0NIKznum30qPMyI0ocaKDQnaUeWk8ecRR7KRNRvv71r3ex1UV5JzZ6QZY4uQYQlkjsKR7VAMIUxNqgppsKEAYlKZ5++uld0lw7rrOaHB3rn9VPsb/nPe/pvAC8DH0hAfkNEq1UeLzBDW7QFWKRX5Dkw9Wc5e4elcRVOSh5aVUDCKvJDw0grOa6LHpUuxIgKN+pUheA8OxnP7s7xtau1aYAsMCTIGfA3y972ctGxx9/fJe/IHzwpS99aXTooYd2yY/AA29DSzZc7TU1uhNPPHH0zne+c/SkJz2pK8sLMLTXPa/eujWAsHprsowR7UqAoNY3wfSmN71p9Lu/+7udYGrXelHASYgzzjhjdNhhh43OPffcrrqbcrDtWi8KAHpq9B999NGjhz70od2pFh6gSRX0VnWWJ5988ui4445b1eHNPK4GEGYm3VrfuKkAYVCS4gc+8IHOZU0gtWs1KZBysLwBahU4r+3lMTUYcELBUUUK5la3ulUXknBscl0VzWquxvxHdeaZZ3YnV7y1z9VCDPOn8Tx6bABhHlRcvz42FSAMykFYv+XaHSMGCiQZyinwtxCCOgmUyBCFL2eBV4GrWviIcHNioZ1aWH3+aQBhNdeoAYTVXJdFj6oBhEVTuPU/mAJyDLzLwekF9RF4DJR1neb0Qv0wL1fKW+KcYnBC4vKXv3wDC4NXZbkNG0BYLr2HPm0SQADKee/sVWWaKRbJpw2UD6XwarZrAGE112XXjAooULzIaQN/K8ksR2TeJw94IoCPL3/5y92pFf8r+Qw0bAeA7JqFWtJEG0BYEqGnfMxWAME+8trmK1zhCp23TplyQNxvp1MkFkseTqVUYCLAIZ8LIfo8V16dPuUwW/M5U2CTAQLjk7G4zyXtdc9zZpvtdUegeMUowUGA+JswcSJhGScPUmYZILn61a/eZc7zNMhHWcbzt0e9zb67vc1xNdd3K4Dw7W9/e/SKV7yiO0WU00P2GIWfEuoKn8kbsucBBQaA/50+AizIAa9R910ntPfZpwMVyU1ZTaps/qg2FSAMSlLc/OVdnRnCaITBd77znU4Rs+YJC+8/2EmlTJABKCwWAuuLX/xiJ+TUWtjJca3Oyi13JM2DsFx6D33aVgABEOD581vtEQnCyph//vOfH9373vfuwMDrX//6kePl9j7vAsVz29vedvTBD36w22vkwEknndTtPR5EbwG7ktEAACAASURBVFSVdPzABz5w6BBbuwVQYFMBQktSXACzTNslUEDgO5LoZAHBwHsgx2AVlS+LxYZIESaAhodBGGIVxzvteqxD+wYQVnOVtgIIQP9b3vKW7njnu9/97g4o2Pu8Bscee2wHGLxK+oADDuiUv+qo1vnggw/uQIA9Jl9BH0IPTinp8yMf+cjoAQ94wGoSZJeMqgGEXbLQy5pmYv2f/exnu7c1sgy48uUYrJOS5VFgxbB+WEME2i1ucYtWqnnBjNQAwoIJPGP3QzwISVK87nWvu8dDyKMAAJxyyimje9zjHt3fQhJkgpek+X3hhRd2eUGUkVet8zTgA6+bbkfQZ1ywOd3WAMKcCLnbu7HRxRApVMkfrAiW+JBjiatOO3PhXeD+ZNXIV+ARmXci5arTYRnjazkIy6Dy9M+YdIpBqA6olkOQpET7RqVaOT7PetazOmPB94wIP0latJ/itTvttNO64mf2Wttf06/TvO9oAGHeFN0l/aWAkWQPG1wlw3XyEGx3mbhAP/rRj3ZHum5+85u3kxDbJeil9zcPwpwIOeduJgGEOT+udbciFGgAYUUWYtWHwYKOhfDJT36yixGyovOSnVUf/yLH502RH//4x7s3TjqNkSNauwkwzYu+DSDMi5Lz7acBhPnSc116awBhXVZqh8bJPchKdupApvL+++/f4oJj1oJXRb6CN0oeccQRnRtVRUjHuBpYGMbADSAMo9OyWzWAsGyKr8bzGkBYjXVYqVHI3pdU6Dzy29/+9i5p6BrXuMZKjXHVByMm68ikwkwHHnhgd/xLbHbdkjWXTecGEJZN8WHPawBhGJ02rVUDCJu2ojPOhyKj1GQZ52wyUNAs3xkJWtwmR4P3xXEv2dqf+cxnRje4wQ3aiYge0rYkxe3z2yJ6WGWAQG5dWgtvEVPfFX2S80kaLSfcAMKuWP7+STpu9KlPfarLJfDuAxtN0ZJNOHmwqsuqDoR8Ba8Yl6l99tlnj+52t7v1bs5VncMix9U8CIuk7ux9rypAkO9jT+XEQzNoZlvj0LCW/Q0gzEbPtb3L0SNnklU4s7kUMbrxjW/cQMEOrKjETychADS5C9ZCdbkc+dqBIe34IxtA2PEl6B3AtADBsWeyRhIzjxkZI48JKKaM/LiUV5fnpIpp3suiPLP6Bwqrab9VIrQcH2OTNE25qb3SrukowPsy7uVaDSBMR8u1bG0TeaOhwiOy7BUxUuN8NyuiVVtIAo5Hh6AU4iE49913310H3BpAWDXO/N54pgUIF110UQcIyBuVE293u9uNzjnnnO5I9PWud72uT8BA8THhNyeBgGTVFdVLIKO8zZWccjponGcgAEHVRl4E/bVrOgo0gLALX9ZkIzqOCMVLMoTGlTNtxUem2zw70VpFOtaQtXrzm9/cJTle+9rX3hX5IC0HYSc4bvIzpwUI73znO7sKiaoq3uEOd+iSdYUzXRQ+3pYMDRA75XPWWWd1Yc6HPOQhHUBwP8BwyCGHjPbbb78GECYv0cwtGkDYRQDh4osvHn3iE5/ojtnFQyB7vl3rSQHlnrlZAbwzzzxzdNBBB3VgYVOv5kFYzZWdFiAwUFJNFf/6W46Ti1zK2xolxvnRXsjNuxjyv/bu3crTGQ9CXv4W78RqUnE1R7UbAcKueJtjMnchb2+nOvLII7vXq7ZrcylgzdWr51L14hvWlmtTkrMaQFg93sVzAAKFLfS1SlcAAi9Eu2anAK+lXI/aw9xyEGan6dLvtFEhbZcNe8EFF3TWJDde3xGVpQ+wPXCpFCCwvRtCsimwwAIDFFhh63o1gLAaK4eXEpYESOUE3OUud1k5gLAa1NrcUQAIkqeFecgbeoZXZ90Nko163bPsXlm/ztHbrBbHgrXjiJu7MaedGYEuuVE4ycuyCHd/yztZp6sBhJ1bLUBTQS9eSDLnrW996+i+971vBzinDTHs3Czak+dJgXgQ6JsPfehDXVVdiaM8Doq+rWtO29oDBBtUZjvX2Ve+8pUuo1eGLvTWrkaBrShAmMtFwTuOi/l/XTZzS1JcLm8DBTl+yDo8//zzOzlTlwdvAGG567IqT+sLMciLeu9739u9pI5csWevfOUrr1XhNwCBIaVa8D6XrEmSIi+Boz+x+hBeCKG9EGlVtst6jSPJR46QqeAoPOUo5SoncjUPwuJ5jKsYT5A3AKRjiGQMHhmXENgAwuLXZRWfsFUOAvnCkHWk9frXv35XzRKfXOUqV1l5sLA2SYo2qyRDwtsGDUCwcdc9zrOKDL9bx2TzfvOb3+xcyDaz90TgLwB0lfJXGkBYHIfyRPIWKPPtN4Bg/YeEKlcVIJCbZCartl2zUcD+p9SFD+praJIiPYanGCASp8ka8uWa17zmIP6abeSz37XSIQbEhNqh+AMOOKAjrGNAzgQ3UDD7orc7h1EAWCBUXeLLeJFLGf/tNFhoAGHYGg5tZZ3VE1BhkNyh6BkiQ0BB+YxlAwQ8Kq8mxyDHzVfoVQIlRdQKvw3lir3bKVSFJwDHWQFCeZ91sy4uLnyVNP1mmKyKfls5gBBPgeIgyo4SzFCv2M2qEG029mp3rTMFxKDlusht4V0AFiQk7dRxtgYQts9NlDmhDPSRL44CEtDbyT6fFiB434gf9VjOOOOM0b3uda/Rueee28k6yghoUV2Rxfn5z3++S3aTgH3sscd2b5Cl8MlMRcK2yrvSj/uc4hEmabJ0ev6xLle84hW7fT8PgFCDBV6IAFJghCFifXfyWgmAAAXzDkj8gZ4SB3YaYVoEv5PEbM/eHRTgruV2Bl5ZZTbz3e9+96VmKjeAMBuvkTUSx8gWLwJjxZEx2wEF2/EgnHfeeR0w2X///Ucvf/nLu2quZKHxcUHznqqS6F0kX/va17oTN3e84x2734Dqhz/84Q5cADlbZcoDCGLg3mfi9EUDCNPzzyIBQjkaXnI8wdNj3VTXBEqE05d97WgOAkK85jWv6bIkZXravIiy0+7bZS9Ce976UoCC8cOKU2+DpadO/qJP0TSAMJxnyJX3v//9XaLY7W9/+065uhZhfEzrQTjppJO6Y7c8B0osy7MyXpYqY4lnQ7Evl/oKp59+eueWfuxjH9vNx/03vOENO4C6VV2PBhCG88u4lssCCOXzyZX88DQJhR1++OFL05FLO8WQSUKu6olzcymHu67nQ7fPbq2HTaUAC5CVKlYpTIb3513GuwGEfu4pY/Jc6rw73OrLyluaFiDwDHAjS35b5MX7gB68Js17MBulrRXv9iJCDNOMiDw5++yzOyB517vetfttTRdhWC80xGAi4iritF6IBB1zj+1U3HaaRWhtGwW2SwEblyI/9dRTRw960IM6kJCaHdsV0g0gfH910JnnhrEh9AOcedGRyqnbpfO0PDAtQJi2/9Z+NSkw9BTDvEfvuULzAKbCTHKleJLm5R1bCEBQcvLqV796dySRC0xCTasBPm/WaP2tGwW4ed/xjneM7n//+3cVHIUmxJlnUWK7vVASUCAGj3aAgbcaEpA8NrPQc1681ADCvCi5Xv3sFEAIlewH8kXSrXwWIAFo3u6Jq7mEGHLyQGKN2Nkpp5zSuT78vZObdb1YrI12t1BA7g2PmtM5ksZkp1/1qlftPGtD98tu9CDEU0AJoxW6yVkSylmV92o0gLBbdvHe89xpgFDnLThlJYFazk14kpdh2iOuMycpAgUSJhDmOte5Thffkh3r72kHsTtZqs26UWDUedkk0LF+AWruQhZAXzGWkl67CSDI6JaoR8ChlxwP9Qq68q/77LNSbNQAwkotx9IGs0oAoZy0kAOw4DdvggRXetqJiCE5C1OHGLj1ZGs7jiOLNhXnFp21vbSVbg9qFNghClB+EqEkkvmbhbzvvvv25uxsOkDgXeFl4VkhzFS0JODUtF81UFCyy7wAAvewWjDxjsxjzjwwl1bT3yEOX//HWoe+tVhVgFBSXFhTsmqANf4iX/w/7hoEELyRymZl5Xj/gXOZPAXtBML6M3ybwepRgBC3mXno5CiwAFjRN7nJTfZ6/wiPw7xPRyyLGieffPLouOOO2+txQJEYqktpY2VohRLqFyIta4yzPGcagMALK2nVC8PUOzDna1zjGt1n73vf+zqQqAASUPSJT3yiU0yOhANPPCjTXPrCQ3lfzTwAxzTP34S2eaeCcFa979YBINRAljcBACdnRAAU5Ko9l2MBwoUXXtjF9TAUFEtgcU2sSqxvExiuzaFRYBIFokTkLcjx+chHPtIpTMCBZb3uACHl1D/96U+PbnOb23RK0A+rZh1DldMABCcu/AAHH/vYx7p8FJ5YiuiVr3xld/zRGyOBAbFg193udrcOUGg7zQUcGBtlgGfUTmjXdBTIS90YybUeXDeAUHsWOAHod3kLePKWt7xl5wDozUGQDfmud72rY1ZxCg0Rp45Z2NzlZzmPWT68bpO64SWC7etHH9O2IUTL4x1xp5X9eH4teOpx943HZ+V9Q+Y6tM2kufaxcV/f07F7az1vCgzZD/W69a1jHz+Gh4X18CE+v+c977m2AMHpJhaME048IYQSwbuOoKC2zMiYIUe5U0HWWlLg+ActXLxGlBCLDl2EcrUvX0s+Df8GIMjlIM8Bj3ZNR4FNBQihgvnhE7/lLPAe8GYdeeSRe7/umTsqHoPc7AaMHEGFmW2E0oLRpqyE6EH6KkMR3GP6yX19bfTjOaWyJ0DKfoABV9lG3A4KypUKd+UYPd/Gyzz62nhWWXpVG/NgwZX0mDRXYyxfohLCl/kafXP1rLKN57tK4VmDIeuh/7qN/zPXxCBLUOe+Mq42tE0NasrY5jj3ZV+bGsT1gbq+z+qt3TfuIQBxyH19bWqg27e2feuf0r4Zf93G53ii5Fn8gKblZ3jU/+vqQaCoKLvIlBRS22rPozF61TKnlEvapAx2KQfwfMmXQ4yJoYCv3AsErGcNAQjuK/dE2c+QfTGNemsAYRpq9bedBBAc7xcGxH8B8elpFpk+Tu5MMnD7Rj/EEKl5LroRSO32zyWXtki8qlS2NUAYt1knKc0aIJhMrfyXCRD6gI75E0IliJgHQDDXmlGGAIRxyr8Uptq4SuXfJwSt23YBQgRbKXCHKvEwbwlathKMpRDdKm46RNHrq/YgjQMk9dyG0M1alsAO/WuANk+AUAuh7YvA5fUgyVL8M1ffPqyB+pC9qg1lyOreCoT1Aew6AW0or5T8O02IIWAwQMRv/GPexhLetM+ttTEbU8bpe0YR97Aw8Fb7ow4xXO9611veYm/Ik0JvYfc6/64MMeQ9CjWgrw1c61Uq+9owGCL3h8ivPnk99LMSWOwFEHgQyuzGWYRdH4hAPAxfKrdaaXrWJOL1WdU2Z5lkMcQq6WvT5y0xxjLu1EeP2rrpC6fUTOB/CnuSd6BW/kOEV1+bWtENRZa18Om7b6flQD2mvs0zJJxVz6MPfPR5Xur1r9v0AZQI/K2AXR+IDB/Nq2LastdONnVZXrhvH9ZyYagHgYwpvX19+3DI/ql5ZQiNyE33DfEgaMeNKwGRwpag+fCHP3z00pe+tPOucO8yqJSKZpn63vsa0AHtAImvfOUr3XtsjjrqqC0Bgmc5HirfoV2zUwDdhYHqcDuA4FSAtVhFD8LQGffJ0HjfFuJBqK2qoR6EWmnWXgYb3GQmhRjqNp5fCo+hVonn1yGG2rXZZ0HW72nv8yDUc63bzOodGOpBqJm9j0kmAYRpPAizeh6m9SD0oeQhiqFv/n0ehDr/ZghArJ/fBxCGhhjW2YPgJJREy9KDgMa1RVXvsToXqFb+vke/0lqbF0AYZ62VHgTyBZ8OBQgUtiqQMRQOOOCADjTwrpA5xq7+vzL1t73tbbt2EhrRSQ6KstLABBDRTiYMVYPzbwcgOIqrxDf5TTaUuqmWxUPCxn2GyZAcuqHG2xCDSht7qfNaLSLE0ADCD+yFNhtA2Dv5dFZgMcTKbwBh/oJwXj22EMOo8zR4BbNkzXhQhBj876QKj6iTDAAA74Ejjl7vzJPJWOFVAC6EFyQdNoAwL+6cvp9dF2LgpptHDkIDCLMBBEiRUFCQCjJ1qT2hHgWBUIdp4n51npVlpqjMtB6Ed7/73Xu9HSzbZGgYorSk+rbYEAts6H0NIFw2EWp6sbZzdzSA8L0ExViETbnvHC/O48m7DiA4TjVLDkKZlIXwtbt01hyEIVmg65iD0Jdv4TNzefvb394dA1OKF12dfVZAxQtpnFflVkQX7kyJSsCBGKX62wSOPrgsuXNdgIM4mb686c4ac3ECHgDHH//xH4+OP/74DpjoU5s+K3weG2oRfQxxrfXFlYfcNynsEmFfJ45OSnwb4v4el4NQg8RF0HRRfTaAsCjKtn53ggK7DiCIpdUAoa4x0JeRvZMAQVJPOeZlJin2gaEhSYrjAIKxU/gAgDYUtiIn4pGpp+3NgPe97327M9PmLTZ5/etff092ePItPv7xj3dgQlxM+V7JSt62KaHKb0VTfPeUpzxl9LjHPa7r/8pXvnJXwY0rc4gC3YlN2edFmGSJrQNAqD0/4066rDNAkFw3Sw7CJJmDV4cccxySizJLkqI95xqSg7AKe6aNYT4USA7Cfvvt15uk2JeDQFaVeUxDkspnlV9DZ9lnCOXIf8tBuJSK9TFHi7LsJEVHZD73uc91Vr0SmMI9f/mXfzl6zGMeM1Km1tsyX/WqV42e9axnjU488cTRMccc07krKXQAgIXmOI5+eBt4IoADIMJnvBC8OX6nOAvvwYte9KKuepbvDj/88A4ktBDD92rY18dDW5LiULFz2XZDTzGUx437Eor7ThzVe7UPqM9aB6EOo9Vhs2lOMcxOvXbnqlGgPsVANtS1TGapbWOek0BEH09OSiof5xlupxjW6BQDhf4nf/Ino7vc5S7dkSeu/wc96EGj008/vctgftrTnjZ62cte1lW9VLf+iCOO6I5FnXfeeV1Ckwxntd15BB7wgAeMlLNVqpd3gMfBj+NVQIDrgQ98YAc4MDZvhfskPwlVyKrmqZAYxXIdkgHbZ+FPErB9G39oImOtxPs2wRDLsZ1iWLz4bSGGxdO4PWF5FNh1IYaWpPj9Qkk74UFITfa4l6O0KGcggKLL8RPWGK+BtwAGOcpJ4E1wf14uog8Wjot3Ief0c7TMd9r67TlxLcWtm98p4jKP44pDlX8NLPrARwMIyxOI231SAwjbpWC7f5UosOsAQl8OQl0Vrj73XRcPsoAtSXHvEq81PYYUheqrgxC3Ka8Cj8GDH/zgbr+USnvWM7NDvANDww6TXF3zBAiTQITv50WTvoJLs9ZBmFQGeFyS4jrXQQBql1lJsc6NWlQlReAaj7UchFVS34sfSwBCCiVNCjHMKveHhMaGyOZpQwydbG11EL7HSKuQg1DGq1qhpEsuA36aB2G9jzkq/JPclwir2gM0JGmrr039/pe+xK4+gDcJzA5RM/IfpnkXw5A+W5vVpwCA4F0Mcrr6quPWfNpXZXVIldc+A2ee1OkzDnmiF/YuhlYHYbY6CA0gfJ/th3oZWohhnqJisX21EMNi6dt6Xy4Fdl2IoeUg7HwOQli8eRCaB4F1W7/8ZZ1DDA0gLFeBtactlgK7DiDIQdiqkuK4I0f12xwneRD6aqcv8m2OgE+S+xKTNob6SMosb3Oc9C4GFm7dZh5vc9RvXFb1S3/m+brnxPg9r7bWY+WXeQDjchnqNlv9H/dz2aZvq281pjovozx/POS+vjZ97wAQH6yPMtXP6jvHX7+vY+i7GNa5DsKmAgSFyBwrLl/stljV1HpfBQooOmcfH3rood0RcXJ3o9/mWAOEIW8vJNgQRgEfR+NSiOdud7vbnuS5+mVNjs55Q1b5cpV5AgTCvSzwVAOEIS9rItSHvO55EkBIfkOpRPriVSmO9J73vKerkKiNKoriWzlxUCarYE7tJH3N8rrn+jx/35n/uiLgLImMfaGC+rMhbfoEAoWjyqTf6tc7jqkkdQ0srKXS1Y53lq/UrU9k1P9PoonvhyQpDimYUrfBD30ehHUGCF/96le747all8xerN/yWtdBqNukDgJ549iu7+s3rw6pVjlrTLjmV0eDybRZ8hmGHMHti1P38eZWNTrQx1XS1v+zJG72eTeHxNKHJtLVe31IuDFGxaQ9XYP1mgdieJUvENMmBehCY/14FoNa0bm+tznWoH/Iy5rGJaeX4xknLycVjBtHo1peRn/O9WVNzu9TWrLrKTYJSc7xq+bnOJ5ywADBcccdNzrttNO6oj+ve93rRje60Y268/0Ydbe/zdGCSHpRTZHSU9fg4osv7oCX6oknnXRSZ8V7qctBBx00uvDCC7vKdJSkAkfARL0B+izhIZW5hmzmIRt3VuU/pG90Yb09//nPHz35yU/u+OwDH/jA6MADD+xeAc6qI7jVkXjjG9/YlZRWT0Lf6kyUrx7uAz/TCuF4p+oTCrUSiHApBfpQD8I6hxiGFEpSItyaMjh+4Rd+YXSta12rW6fSMgtA4OK1F6xTXSip73TVLMpwO/w7zuNWCvJ63e1N9016FTwe0vYLX/hCV/uEoXDta197tP/++3dy1PcMI0ebXf7WnpcjfOc5dXJn5HDJm3XJ+3GVYOuqu7Xi2Y7c6VNiQwB9Xeis9PiRrQwHfITH7njHO3a06vP4MnyB0axLTZMkqq5boaRx/L2Q1z0j2tve9rYOFHh9KasupX6VC6b87n//+49e/vKXd+V+KTkMa3GymcqNsVtf9+xd8QAWelJ0aKN40ROe8ITRc57znK4yImDlrW4UHcZ1xCoVEOuNOknRDUHfQ9HnEPQ/RPkPbaOdSpO//du/PTrrrLNGBx98cAcKvODKOynQBL0uuOCCDkTgzwCI0pptAGHxTtshIQZGBSH+q7/6q11FUZVFrZ13hDAwgD7C+uijj+7eW/Irv/IrXSVQniMFwrweOZZxHcZZRYDQ95r3GiD0gYiATpbtn/7pn3aylIzF30ABOpx//vmd8uM5QzvvX/FmSN5MivHXfu3XLlOiug8g1HJ4yHG9vv27agCBQYsnGa+3uc1tOjoyygBZYIEOM9db3vKWI94veu0tb3lL99lDHvKQTjbn2hUhhu0mKQYgIDbmtGm5wW1ybyiE2O5+97uP/uAP/qBzz/zGb/zGHrdcn9t9twMEDEww2tA8BQACr4sXOQEFmPWoo44aOYcbhN13ZnY3AAQVJnkHHv3oR4/OPffczpNFiaCfjQ9wPfGJT+w8DCzTWgg3gLAaAMGex+88ZiqKkhUUGePCm0e9lIzC4zXzvhHvEnnzm9/cedAoxuQB9Cm6TQMIsVYZXBSa8OQv/uIvdgrspS99aVeunSxWSZUSPPLII0dnnnlmR1vH2LjH63dY7CaAgON5HRlklP+rX/3qzsONRmQqMMrw8oN+aEWmXO5yl+t4tMw52RUAATIvkxSH5CCUbSj5M844o3NzeWcApcbt9a1vfauL4ViI3/md3xm98pWv7BTbS17yks4SfsQjHtEBBT+lB2Gn3+Y4yW1JqdTuqCE14Ce56IQOKDSeAC+4AQie/vSnd8LwsMMO68DXIx/5yO5zLlaeBCWThXZqGs4Tyfd5B4bEvWZVPX1hjr4xPPaxjx294AUvGH30ox/t+M9mRzv/W0PWKJDw+Mc/fvSMZzyjE5r77rtvp2xyDQ2p1G7NOqTTt/615dQXYqiV125/m2MAgrLigB1hzToWmoz3jGfInnjTm97UKT+X/bBbPAg1QGDx8qiQm8997nNHd7rTnTqPGjCFVmQuo0Ib/MWD1gDC9wACmQAgkKPef8Njy6BVtwPw5JH89re/3XkOAAS6siyMNRQg4M3SwztLiGlcWGBIDkyfIbRVKGgphZIwJYEsRp6r9g40D8J398qG70tWoeBe+MIX7qXUau/AbvQglHHGhEK8fAo45UFAy2mTfNB1kufF90OSFFsOwvdYVugnCjzrVK9NBCbQ9+IXv7h7lwjBLSzEeGEN80ryFJErD3/4w7t3k1iHe9zjHl2iqmtoAmItVPvc4EPCZrO0cc+QJMVJxaNe//rXdwpOvkbeq8KAOPvsszuak7tyFIRg5IrxrtkX3tXSp6Dq5OR5el6GKLEhhsisgL7mN0pfzpfQAiNCiOumN71pl3gob4mngHdKrgePDKNWH8985jP3SrIf6rEyt2lfxDSEJ/uMsFlolH6AoKUVShK/Ea8pX8vcAMIPbOkt6QMISiwDWqXV2wDC3m9cjOKhRLgA/QwRwi3EMKufZ/h9Q3IQEmKIIilPHFFsAIbXm9cnHVhwhFquoQK7VoZDeaW2uvqU2pAkxe3kIGx1TJuik7sBOKSdZ7FeyyTF3e5BSMJr+C1eYcmy9BYv45Cwy1APQu3h3WkPQuTluNMfS/Eg1MccDaoBhOkBwhDvwJA220kWqhlpiKCs2wxNQBzSdy2E+xh+qNCfNiu6eRCGgwMttwsQEnZJDZMSRDSA8N29QBM54JQPN3jo1ADC/3XKvj5yDjTVAIHHkdzQtgGES99FMKlQUp9ATB2EEpVOKpTUBxD64vLzSlKcZx2EPmbaqlCOudZWQl84pQ9J1u6oPlffEJfVEFf5ECU+JH41xNVaA4RxMbVZAEJfX/MECKXFOU+AUK9tXx0En63zMcftAoTwVt97UxpA2Bsg4HnyvMy0bwBhOEAoZXoDCJcqMVnzZeJF7X6B3PsQ2LSVFAnWKM0gt6GFktxbKmkxpDKxMueDudWiLAI0+tyW44TOvAol9SUyzhMgRPlnbn2JpX0AoQQW4+Lt6dPvvjahb6nIx4GIus1W/8cLMA+AYDxl3DHzqF3LfaClpFv6CRAOTfpyENJ32vQlMvpuqwJXmwgQhtRB2CrEkL3aJ5cmJRS7dwhQHFrwZx68qY9ZXMxl2GUcTeo6CHlWLauXWQdhSEy8zyc11OM4yRDq019DE/HrI7PrUAdhqH+vT2bPtQ6CzuLOStUp8cAIVegeIivdqz1hLAAAIABJREFUNj7zfZBalGaZ4QmwJK7oGRZFNqnTEeooELKqmF3pSlfq+g4DZDFtEj+YIPUEkrwUi00faSfT13linxE4+javJFeOi1dNQptDPAjaeOYHP/jBrnSnZ7nMK0otG6BUOKFbFE7J8FFQyWdI/EsbyUryGTyXpSFRR/Z/qZzRMd4gbQh4R8w8vxxL1jF0RDfr4/LsWC6JhQ7d8JOEMHoZn7X1nFK4l0yf8VonbUqvV1+4JYpEH+HZiy66aHS1q12tq6uQuK12WaOAAn37HHDFp+6P5V8ChvArfsd3Tv7429qgnxgyWm/SuxiGAoSywqo1qAHWEIDQd5qkL1k0gjB8MC4hrOyvT9GNU2x1Ul7dbkhIsK/NEJrUXpXQrVSkfV7aGrzGYxOgPekUVgmmx8W2hyqvadrV69IH9mrvdg0Q+kBbufbpsw8g1N69GvyFbjHO0KZvbTOmsmpjmWQ9DU2GtO0DCHneXHIQDOKb3/xmJ0Bl1KqMqECHI3qEt0QxCR8ExJ3vfOdOcBKgzjUT2o7nWQSCQRv3uk8mqfOnBKaCQITmhz70oa7SmmcABr5zptfZdwWXFAiRnGNxeBb06agKzwiliPiyedVmUCxEdq+kpxRkceTS2VgM4Hy14iI5QrVogIAmf/EXfzF62MMe1h2jkZRoLrJojd8xLwvnqCPw9I1vfKNL/JRQs99++3VnxR0pvdnNbtbRSVa3ddGH+2SCO7IjMxwgkMmMxuZpzhKaKCrz1M76Wasct7Qusn09O0lQmDyJPBIDrRd6y/h1VJNb2f8AQ84NzwsgoBEBB0QqkqS8t3FR5sbtx/Odl1d/w/+p9oke5m6eeOTrX/96l/FtjOaYY01oiTcdhcJrhxxySNce3wJNjkQ5doevHatEK+uILmjgN97Cd2iApmhP8VsP/G689773vbuxEkDvete7OnDgmNomAYQhIQZH8sgDNMZP6BeAlVr31t2aW3tJi2hrLVKJlWJ0n7W13mjqHmsL4Gnnc/vG/tGXfWI/kFPkiPbkins9Bw8Yv5Mx+sVnAcYB6daKQUF2qUmAH7Wxb4wJjym6UyrN7SQpoo8r8tQYPZsMMCd8SEYanzngTd97ps/iOvc3OvrcOFOBMWf90SpymVER4BGvjfvd61nmH5CMdvo1X2Pyt3WyjildrA9y2b3obx2M0SkkMt+Y++RFn1Kb1oPgGYr52WtkKd4wroAmz44hixf8mCf+QfvUkfDcjNPfqVpJZuNj/7svQMPxSc/0HLLRd3gK3dAPvcgIvEZXkTu+17e18Hf2hbHgWUWyrDn54rmqa6r3UgPUIV6css3cAIJJ2FjPe97zRo4o2QwUuclYeMqOkFWIAjNgmD//8z/vCEsBY0ZnnU3QhnLPHe5wh67yl8/vd7/7dQzP2lLsxv+Ut+ciwsknn9xZ+voi6D0fMY0JkRFNbQZgwCa1AOoNAAj+t4gKZAAIBEGUDmY+5phjuo24LIDw4Ac/uBs7b4IfZ2/RzJiddXauH40cvTE/n1PS5uOok6NgaKUf7fyPRs6QWw/1E6wHGhPGKtaZP/rZlJhOO3QgfChY/xOaNhTBirFllWf9MDaQYdz6otwoPuuM/ui8CIBgQ+Mda/vQhz602+DG5XmUu81oXdECDQl2St0cgUn0I6CME/3QBCADsAAu58gJUvRSf4Ii1w9lQEgoSIOGCtQARHg1Sga93auAE+HCQ6ONvl3OpbvUsXDu337RN8GlPU/SbgMIji5SrAQrvraX8aA1Rh/F1ygacgCPo5s1x5to7x5HHQlge9hRNeuknTUH1vBjFAL5ASTEQGHk4CVtrKk1t4Z4G18TuvoFhPEWkBfDRf/GZ1zGiufwlmcxYPDjEUccMTeAYH/a15QDOWFc9iWeQUdyjZIxB2MkI9Q+wNeMBPtRWzxPOZLPxq2dfa2mCGOFzDEv5a+19Te56HmqWZqfvYdOngsYex4aGg8aowPgjY72n70Qg9D40AX4INMAZONyhBVNFwUQ3vCGN3S8QmZ6DuMs8ozMIzsZTAF8dIt5GTelfsopp3T0UFTJfejAsEhFT2CH3mG8MNYAAt8zTNHO/nYUlV5RYdh64il8Rkbc5z736WiCr9/61rd28sp48T6Z7juGId5n7JB7eMHY8bOaDnMFCNtJUkwOASaxoJgvsbK4dPM55kIsgtRkES/3xSWSUEPcMASme4LgfE9o2Ix5lkX2mefFLY/R3BfU7/u4zj0ryC/hibz8Jc/S3rNdffGqPpdVHa+qXU2xOEq3UWgUSyfjMQ/PT26FMWCuMpwSq51SLF3tydXI2uSNltZZv2iTfuOydE/GpU3CA/7WD1pnrWKBxNIqXWj6yRj1l/BGGHaSm3aIlyHhC/2Hxv42DvNJSCHJWtbFPTYh3iPIEn7JnIzbHGNlmZvvyj5zVMxGjrWRdrFe0TbxXjyK9j7zvByJQgufx1pNSCZ012f9IqNNT1KkPIT57ENWODBKSFuTeMoIXQKUEeD9GkApgEdAAmC8OYCW9VaNEc2V40ZX9wHCLGLAA6CwDjEiKDSA2f8KChHaADWhzgNEkQV4AMU8U9bTWK2lioZ455xzzumAvPG4gD5KmOdzXh4EY/NsoIby9ny0AqCc6adg0IE1iT4AqzlTOBQTxQdIoQclzhjTJ+ML773iFa/oypMDN4wxa5P3wCT5kZGHf7WzR9AqHjb3aK+N9sCVvaiuBUPE2IzfWOxF9QfQi8fT+iwaIPB2U/AUrbGrcWBMv/RLv9SBJevLoMQTinFR4tE3flPajAPriieBWcDLPXgwnhHPAVDJpLyMDy+hAdrqizJHC8YvgIRH1KkAxgA6FUUZJ/YGGqMZb6b/fW8dAa14Pxk09sZcAcJ2Sy3HhRKlGSUw7pgjAR63UJ/SnPUUA4FQWl5xZwV8lEk+UURRMCFoXIsBB8vwICSXIeAm4018u4xXZdx7uYPGxLQmud48p89l57nj4vq5p35+HfMah/612yo+OwQghE5+l6Cm7rsvOa2mSd/8J9HN99akzK3Is8q5lTkNAQF+1wCxPteuj03yIMSzUu5D/FWDoNQ4CA+UNO7bh/ogZNETsHAfmpexdH/XfOC+rFN+l2vls3H8W/NG5hQ+Ku8rP6t5vjYewtNbJbDGCKgr8pUJiAGiZW2I0gNKUfGORVZnrpHhsdx9XntOI6uTvxHjKePJ3LMPM//IkpIek/bhkBh6ZFG97+schBgspZwteSLyLsZS1iqGUNYEeAEaytyzvjoIdfiozFnKmGvervm2pm0515o2pbweJz9rOTdO9seom0uIIVbbs5/97K4sapgLAmO5IxQLALKE9kN4n0W4IzDiaI9omJBij+WF+ZJQl3iQNhAvlBor1j1cQwSFGJF7CA+utViC+uIq8ixucOgPcvQ7TLATAMG4IHnACNJHD+5xrklIN5ZyYoLQZRLbSs9CBGTpbcmpDnTWNm91Q8McA01RocR89Q3hcgfG2nUv2mjre9YJxMyK4M6M92QrhT1U+U8CEehj/H/0R3/UWWt4JZ+511jiISo3TwCX7xJfztzDI8YYb0Ji3HGrJqatn3iyjIOFi+cIj7RhXcSrEFe471lJwjV4l3VVK4q+UwzGuukehJxiiJBGe/Srj+tlbQO4FnXMsW8dSv4tlXWpSPoUfR/fbycHoSyAZBzhfzyJfvGc5blR9JFxPp93oaQSBPQp7OzLGGnxctYAq1R+40BaCbb66D0JIHhGcjMir4Sj6JJS+aMjWpeArDZe+wBC3SYe1nGGge+zHmWbGIbmGGM34LZcy1m8BVsZh936XXIp9ZOgUh4Z7Iu596F593Kv/N7v/V4XkxN/ppDF+7hzEZcbx2cWgFLhChP/RVifc/VxGXLRieVwm3CFcZsTDtqLT4m1UZjcK/6Xe+B/8Tbj4KLx2/cAALeZ5LG88EXf3IRyHYxPTAjK9gwunLwedScAAiX72te+totpUR7cmhQJpoH2xZvEl3yOPlyGXEtojFbmhdZiX+jJxeV7YAOYwFwsB3NHHyBKiMcPlxj3lO+4yXyH5vrWF7rICWEFcgO6H2gR4/U8a2AdsRMFyO05DtnPCyCIZ3q2d3uYJ5cdfsEXXITW0LgoYRuee9kYKW3/c/OJr3K/mg8gaW74grAFGLkQKX50Q0PrAFziO3sF36GvMA/e0h7YtB7cvk960pO6/AVr6IVlrA/ttE+4iyubQN90D8KQJEX8h/fIAr+BfaDZmznRKElw6Cl2TGhbM2udRFj7CG/Y0/EAkjP6sq7WnwDWRp/WWT9kk36ta0Ka1sk4JKKSfdbOc/wNqOtPv/q038gS/JCS0qUnYN4Awdj9MHKM13ON396z15PEjK+MM0CXIjFnn5tDQlxAMvomoU47vBzDLMmM8djY32ijb3vIs83RHvR8+8Rz0Bptfe4z/doH1pVeyH7sU1ZbyZDtAgTrb+3iDSBLTj311C7EkqRN4yVPkjCIpvF60V9oau7ohhZJJsz8o1vQzvPwg/m60B1foou1IHfxGzluLdDM5wkF+y1fSZK6cQWAZC0XDhBMapY6CCaKSJQFonnRBeVh45pEjnyxNH0mwUJShf+TVESgIrKNaKKILaYoKcMG8BuBCRAxMwoB0cWGKLZYfAiMqfWD+T2LsJEwRNlZDGM0Vwk5AIT7fSc5LQDJxkuGfNBs8gRK1GbzlMeyaneUe2srITkBtWtVO3MGDuLqQxcbSXyOssOgNpwTIOiMkdFNO8oLw2EsCpLASCKnjYhG4lQ2p7miE/q5R2ISwYK+1gut3eN/Cs6YrIExWw/gAS2BC/djaGOUhQ7goHHtDgsD14JynIUwyYNA4VhHsUB0oJwl6ZiftQda8QmBbkMZq3kACYAOwAU02PAEAIVt8wJlhAbBoI3x5ZXDlJI2Tn5YdwIAHfTn/mRtS3j0TAmuwJxxaY+njAuf4jvgFW82gPC9XXbiiSd2QNSaAO/J8LY++N4aojk+dOoGCPCiLryJJ/3G+3IArD0a4zu8Yk3wC97Hr/aQvcJDJudAXBcYJF/wEr7HA/gFT1MgeE1CHplnb+QkCp4zNrxBWUtos96LBAgAifn4QSv7Fw0813zJPnQCTM3BviZftCMX8LLPnI4iL/2QL+YcPsWb5E9eICdfTP+ANdqR4+gnWZEOAOTIdePxLKAdTfwvJwLdyN3TTjutU6ZkBjlmf5RhjWV4ECQP23d4xLjQy95EF+OOoWX/GiP56m265CqZYG9rg48YFb53Lz6l5+g2cye3yQL8ha/1TdnjUTR70IMe1PEjGpGfAID1YQzj3SQi4ktrJe+AvDFm/Gq/aL8UgFC/zbFUYohSexCiECkNk8R8GNfCYyCEsaEpHJscsXN8xrMobwwFySVXwd8I7R6T1s5nmBxB/R+kZmEogGQ5E9baUn4WT58uggNC0zYuXcJHf55hnBRirLg+D4K5JjYTBu6LM5WxOe1q9/E4V5NxWHj00iaufnPFcMaHtpSv8aJ3jtS4l5AzbmDBuuUITcqFGktCNckMx2A2CXoRbGjmuRSdsWSNrIdnaEP4eHbWI64833k2hq4FY432a2YuBcI4q6GvDaFsnuERG8Uc0MWcbHhgldfFM2PZARD4Ef+50AgtCEkCMfFctEBvfZpfXvWqbRIRCVn9+g1g69PzgVx0w3d5bTdaAXR+7Cf9J0mqjiknhJF5xx1atqtpssr/U6L2Z66+WLqMb7ID/4TP7FF7wDqTCXGlkzVkDMFOgNvrlCHBHOFsja1fgDVDQP/4RRvrYN9oR0DbZ1k3zyWEwzeejTeAaf15Pp7ASz4H+qwlnqMEkhSc+fYB4SE5CHWbuOfRkxywfz3ffjRX3+eotu8p8fC3fSAhEE9GMTKSzB/vRgbEu6gNXvaDNsCAvQE8JaEa6Cb/8SVZ7vucSKPMEuazNxPiZKm7L14fYG6cTOiLmw+RF5NCDLyx+raO9jee4N1GBzwS+Upn2d8JDZJvQOi97nWvjg+AfPQGBPA32a09fsAD+kcD7dAMDekgwMIY0QjN8Lt1QQvPSkjSmvjMb/LO862jPQJseS5aznrV9C3zQuYSYiiTY3ReZ/bXSYoUDwKUlneZpBggkrhaJm4jxFOQzwhlmwACdWnjvnFJir7HpDZM7dJNcpR+SoBAiMeaLWNmfXMd6kGwuGWcqS8W6ZnjkpUoC8INI45ro0+CA4OWbeqN4znWSPt4kCbF/Wwo9CJItlL2dT85Pxx6jmPqoWGIkpnHAYskInm2+Y2bW2J95jMppul7QCDHykoerQFiAGF4ty8RqS8HITk82SfrnoMwBCCYM4XL8kodhMwf3XJyKYZMgFvynKwHxR5eTn0Wa1UWb9M/YR0Zk7oW8RqSK0BJ1oDMyB71DDIsx131kZypKG8AvOaDeQOEhEUiLwP0yRW0RreAyYQefWbPkguUChqgN3rmdFP2s/mjWyxmtKHY4l3F8zkOjRb6Qkf3WwPPtN8CskrZQqEap74ovjLHpE/5z2JQTAII5psCf/gEXWKUWU9zC03wDn6MsWXcwA3a+TzeQbzBQEUzNPa5ucUIdR9aJ+yCRuiDfsBGjoJr597UowFi8VPCQdYieXt4udRl0wKFpQAEaIh7i4Vr8JAkJjBw1hZkC/nYWJC6+DkC+h/yRRxExJBcJhZCn4kzWohYaRYGQuXOwgSsDpZf4m+QG7SKSX3OarDg/o5lAa0BFfrVnwU1Ls/3TJfPLEJqACThLBXy5g0Q9AeZJjkuiYVoykJiKXE/YRKI3ffQaOLZgBJG53oVSkAD7kIbE/NTVImZasvKQWNuUnSIxYb2mN7cWRBcYWLtnmOjWEvHttAzLjquMV4alog15X41DxvBhrABoN4cGyXAUrmxj6GHAARrz+UrbwWythGtVWKz+MuacQ8TBPiQZYAfkgykD/Q0Zv2gUwoV4R/CyxziLbAW8jVcEkj177noksJbnmsNYlXZ9PEyoAsrA7/bLwSK/IbEd/2fOiHGZS6shySW7pYkxSiEKNw+MJ8cKWsxLkkRn+M//QUAlh4Mn5fKx7qQR1tZ/eFNa+Pq8+gEYKbvgE4KxxoG9MwjSdEY9FMaOGWSYoBzLP6M1xjLJMUkh9ehkXHJdjkqqn2fJ6Q2AmraZlxbeRetf4yArdpNAvQx+syxTEDsy7OrDVz3pABWaNeXpGh+dEPyXrZKUoyMMqeStzPfOkkxADhhmJq2ffLSehsDmVLy86RQRAkY5uJBQDzClOATZ2GxGhRlRUhmkAqgUHKEsTggActdZ0CUD+UojkPJELpcde63YROicAbUJrNokkkoK+dsMav7KD3xMgoDkSV8IKpxUZTGoC8KkDKhQCkNyk7hC0JegZSgbEmPFK3vuZ8oNe7ibPg+ZqrrIPTlIPR5EJKDEBRK+VA2iZMq5PGEJzyhU77mY0zGg/bGG6DgPowmLui35DoggBIHhihIbjNxUm0ScxUzpMgwONoAZPoFwOKpAFAoPKBBH4p92BQnnXRSF5NL/JEL0r3WB/1sAsLaOgFhlGOA2KwAAR/hBc+w3tYkyhUQzKZxBrkswCV+CjS4jFNbfJeTIsZn3XM6xnyFsjzP9eu//usdfSRHpngPN6F+uGsJzF/+5V/uni9XwXqgk/+5aY1TW+fC0UCxJXtIkqw9hEYAGD4QCwcgfAeEbDpAQGMygnyQkIU+QBlrF10BAfIETxH0lD9ha00T/89pKYAwhX3sF+5/6xhQl1NBgDGjBN+L+wbMWX/ywTPsQeELY4mCJ4DJuiRTu89es8fsj3yvX5/F2wGMswj1aY1jNUaJ4ZNxme5pE3BC1tl/xuU5ZIjnAvZ42FzxlHGRe2QgnmUM4UnyVAjC/8ZIpugz5cvtcUnnDA5ygkzWp3ZoGstaX2RJTvGQb/owLmtg/1kvssp8yQmfMTzQn5y3xv72PDzvd0JKsdITouqzemtv4iQPgr1o3taV7iEj0UM/jNl4n4yBnDd/85UHQCfFK4sH7GfrSq7gMWEcctN4EzJGe/rF88hGsgvfJryT8BYaJE9O32huTfGoNcU7ZAQDl1HmM9/jP8WUyEAyDM3oD/Q33iRFzwwQDLjOQShj7nFllYgH4SyEpBOTwkgYyAZHWJncmJa1nyNkFIVkFwrXoBERg6SwhNgOJlJgwkZATH2aOMYxRvcdffTR3aagOC0OYiI+Rs2RNJ4KqI8Co5TMQX+EUIhmURHxD//wDzumBiK4iWwCAsI8ErM3X4sS674GCEkuLBdhaA6CObzmNa/pnmVscYdjGGOm2NFNBr22lBKmMRcMYjP7rQ2wkCQWgk6cKsLVd2iCfkAawUmAiH9lk+nLMyh9yTxoj+EU9CAQVVnL8VBjQHPCjtIj2KFpNLTpWOaOIh577LEds1t/cwLExl1DPAjGJ5ZpPWw0z3caIZXrKBLgT1/maAP5bXxobK1tpOQxoAc+k2xrzfwE3ABPOXL7qEc9qqOfgi82qj610yYZzsArHn7xi1/cbWiKDr0ooOwxfEYoP+c5z+n2AM+EPaK9tUgYhwCJ58Zz1zUHYcgpBsV5yA68huclhVEcCgylIqg1s2dzWsA6kSURjGgNaKATuvneGtlb9hU54fPsD3IPoLP2lJ5YsbUiL1zAmrVMErNCSgCie6w3IKIv60Ux8/iQSRSxojv68h2+s7aUImMEQPd/adH2WZDjchCAW3s6J5QoJP/bZynTbk7ZF8bgbwaVKp72jL1jXJQNL6Xn40/7GW+Sf+QxOW6O9i7FDbhqI8nX+jD03Pdnf/ZnHa0YLugguRcQ8Dx7n1xODho5otAUXges7V3r4rmUMNpYN7qBoiPLyxoGtUdhWoCQ4lV4xZqQJZS+uZHvFHa8sGRFPjcPz8Zz+JKcIUPQ3BjITDxEhuKheP9ykop8xqP42DzpR7xr/6MDPQhA0Zlok2RYvGh8PJx4H7DTxjo4jk7WMojxgAJhnocfrRme93fteZjkxZmLB8GiJ/ZOQSZ+E0CRegYBGz7XLoIOsREpCUoUs4tVlUQfbeKWSR6A30nWi6KxSDm2R+h6Zs6o+juuqFj1+s34gzj1az6JA/k8zy/PX887xIApc8IhCLl0Kfku7rwwi7EbX+lCoyDN3TxiaZS0z1p5Xv6uFTXGJRzUF9DOOJLb4Xfi6nGxlu5W34XOnusn9I4A9LsUjPXzhwCEuEgzjyT1hb9iicWtGAHi/9DPZyrEQd55AVhyTqLstU3+Czpk3NrFRUkgsI6EFii2so1nhGc9O3yWeC0Bo//UBfGMHBlLaCO8ts4ehCEvayIgAVhKDjDN/gxAADIoXkqXcqHwKS5KmxCkVAhPvEsBpUIfi966SEzLUVf7BMhEWycT9EnQsiLtH1aksZBf1ozw1bfj3LHK/AYqAAZ70/MoFcCQwmRZUwSUL9nkmT6nkClsyr30IGTfjMsryj43HvKRQaYv42TI+NzJA1alueIfyg1fmp8fdKUUKW18a+yAqz1AiegTLxu3sfkc+KWkzZ+xAQAADZSgZyoHz6DLKTN7iXIH6hJnR/eUhI7Boh9jtV4UMAvbaQcy2wkr3r8cPwZ2KMWtjIoSNPR5EOyzGLgUfLzWjK+MF1hA25zO853P4mXK2tqLwDu+w194yXwYRuht/JFjAIE9bX4MEXyjPbBmrRkySTjljSjf72I9GHm8iMAcGYJ3GF5oprw1IAG44Vv84H/956V8nofv+nIV+rwx8WDNDSAklhehHXeG/8tCEzkFkYIPIWCSFAnSKJFY5zlKWCq7JJ4hqo2fy72JW0aYYrYI6CjUMEqIUwIGn+nDgvJQJJxQJrEFec0zxIBmoUeeb0HjrcicM9c+YRJaaWO8iTGWQCPKMcAnc6nbpA/PD10D9sJooV/Wtd6UGWMdi+1DsuXGHwoQAjTr56SvxJ59HzrWqDnra+wBkfpFy7KSZmgQXgpQSuzXMwiWFJHKswOs8pySj0OHWImZt2cHjIZ2656kOMSDkKJdW+UgoENAaxRmmYOAhoQ6j+ZWp7LC/6VSyR7Dz9zPPBmEfckHQ3kzgLTcrzXfLysHwXM9C++Wx7TRkrJhLfNI4kN7oAQoW8XSMzdteHtYwazfPhrVsqHeh33/57Oabn1KraZ3H0CYNQehDhuXNEnCIO9HqYCH0C1JkfG05AVLdQ5CfZpwEj366Na3JpPWaW4AIe6jEDKV+jAfZA0BQc/QjsIwrACfQWkRsNAtgmWTQrEWmYsJ84bgniG5DrKFKiHMZIcmXgjd5vhSXMnQVRS6vggGAj2We9zJxllabMmnICSMMQIlbUpLeDunGDAFlB7PhTlCllBqjmv6zjjQLUcWw5ToLGSgZrj5sVggeK5sNNAOrdBUW30mwzYeAb/1j44EOjQMtXOjEpYsCUysDWBmjcwfEvaSLuvK5agfQjv95O1y0G28GXUsbBaAIN7nGXHjGVPicfgryYO8BKyc5J5Yd/RDE+1yLMz4zBXfBpWXSVusJNYtXkqdj8QZ0YKbkhWGZ/SFfvFIZd3MG+3tEb+5YvG9v61bNjfeNi7ux2RJr7MHYShASBjFmlrL1D0IXQLU0SvxXfsaff0OAI5nsqyS6R50LQFlMsOzTjl9EK9hQF8AZoBkhHSEbKm0Aga3smgzvllDDMZDHujHvP2d0spolP1tnPGUJExmrNonCTtzjfxCixyddG/e/+I5Ac4B0/qPweWZ2fcBb36nrd8ByKXBFeMkSj7fxTsaA7QEW9sNMegrYNNz88LBvpwxbUuPd8C6tjntkNMgyS/jgUnxuKxRDKkYGakhE972v7Hg2QDYAJ0Yt7VhWBp24cEaHJU6q5a7fWBrj0FXVlLsy0GokUsZGoiF6TNC1QslCMZHP/rRHQKloHwuL4AQJ1wJ0SS6cfFQUNxwSTiiaCSMEdqSZbjJKGXWAGKnDrbvuFcIV2/lslnEdnJ+lCuGO0v8jFsMwSygOVpQC8wN5j6Ci4uLy5KCIeSXFfuyAAAgAElEQVS1BzCABpe4j7innxJd18y0nRwE9yYJU+yK+8/8LCBUjn7WI5UWCbYkxQFQqVyp8Ab3qk398pe/vHNncdFiOkqNS4+iFEtPOCCZ9Nxs5k2IomsKqlg3JwY80/zFC8W/fI7W+hWTjXveOIFGrjluyCSKAi/WMuGAEhRM+7f19Fz5JfjLvPETvkJLNLTWkgAJtsSHuewISvyDp9zzspe9rONDrkC8laIm6MEdGm8MAMaVh97izJQSfk2sm/uWu1d+BdrhMyABP6Ed/vM5PjN24TDAxefGxSUoGQooREOAWuKtNYy1sck5CDyC6GVvkh15mZs9ALShYY4QSrrlos8xL8KV5wCg8jnetK8BXLTj/ran7PPUw7Au+FoIwDoT6p6Rwj3+FqvWXj8BG34nvKRv/ByB7p4cS2NsBLAkJyLHY1OGflaAQGGgFdrgH+BciMP/QgjokWQ6ezTJhXg1stCYjBWfGqu9oF/rEBe///Gr+XF/+45727MZHNYqFWjtHWEa4Qt9+T5hOTTzk9NtZHlq2Ni/1ls/xodGqT/is5xEmSdAMOeU6reWL3rRi0bPfOYzuzHHjW/djTnGqr+NBf3IWzSTS2JOyedKXokwLY9KPAtkEv70G68lz8Fexz/423M8P3UN0BD94hnO0UxjsHbuscYBx/g91Rvda63wQ07m1GBgkhdnLw9CDRD6joAEAWWhtMGILslzNq9kCQzFRZcECwKZ9WmiLP8U3EEQAtHATSxJLzZ5stSTDewzmyAFmBBZP+JICGqjEfAWD7Cw+JJncp4ZQ2TjWKQkbSS5j9DXVjzJvMSBbCpjpHA9w2cR0PP0IHge2gIInmkemEl8y0akVCgezMNiBRjM00YyHmOz4Shlii6ZtxKRCDvK3KUvPxjb/DGpNSGIEwvzGx2MBZPxYhgb5ZXS2QQw4OZ7ig2jGjelm7wQ9E9lMUAGQvc9ZReLbxwoGOLG9UxrLknHePGdMZizOXENow1wpz+AAS1SLTLJfza9zW1OfoxbG78BNOPNZ2gM9BBsAa8EaMBAiqYAETmWG6WnD21ThAU9rQUPD960vuaUtxf6LNnjqRwa63paMLUK7dEuJbhjdSb8kvEBrzkWS9jxHkqMJQOso70K7KIj+lHej3/84zt+Qj8/+J9M0Zf9QWBbQwoPfe0dfcSwSbK0t98xKshB7cmyADeeOLHxCFr32n/4BG8FqOSEAMOEzMObeFF/kU08g2SNBME6RJnwauliruVwQqhR0PjLc+1RcWrtKScXgKsvAEE73i98lePo2Y9kdY6Ok8OhtT54fFN8LKeDeBHJc0odr5uLeVKa3iSJp/VNXtn3xmrtrWOqYqZEtr1DfkkOtq/Q0uU+/fleX6UXYUiIoTbW0C15XPo3F3SzNsb29Kc/ffT85z+/0xHkoxNIgBA56V5rKccgBqdEQHsVTfE2L6X5yZtAF7xrzPQdfUjW4s+c0tGPZxmnOeNXsoEOJFt9ltoMfusPjcl2RoMx0blyI1IFk6GD9yXUenZyEZKsP4RupffhMgBhq1LLOu8DCHEZZ5MH7UQZp5JUafmMi89oE+XQZ53HXZVnlTkIcZOZYPms0o3jvmywMl7kWYlrer42O52DkLkSQgST+ZWCo1SicQnFNRdkmN9l3LHPFbqlm6l4q12taPoQaenO6kOo6WMeIYa+uCaQRDin3POk2GfcwcZV/l3f10ejMqYZt23pos5n5br1eZnKdTOOuMrDo8a17jkIfYWSyqQx8wbOKZsYEKkpQRkT6BQ2wQkYUv6pX4Fe2torLH3GBCXImMhLsSSI4Y0k2qU6oH4AXQaHMVKQfhO0aO4e/VIUBLVnWVdKL8dWjRnQpHBSctjaAd7mmGOZwhWAT5RiPf/InhoglLIq8su4E45FB59TYMYHhKABZaxPyh+PAbf2hnGjJdkcRWXOxhUrP0c63eM5nuGZwDiFZK7+tjbm7znoBNRSdPqiMK0BWtkX+gCOjJUSRV/rBdi7L0aeMfBG6BPQBuqyr8ZZvdqW3t1JOQiUZwCLNZckD9gZo74oZPTBP/Yfj7ixoh9aApO+531KOWrj97/L+I0nRmUMOm0DKH2vH4YsPjPXHHdMIa6EZBhnLvfgTWPAX8ZE1gEOwK7kWkakdtbUOluf5LgNCTGEjnPJQYAS4/IwSYP1GfSXEpEYCZPb5L63IOMqKUaBWJBsLJOy8cIwaZNn53/E1KYECEmITJutAEKIVwKE3NfnUZlnkqLnQOqEAyax8DkFYHETHtEOoElFyDILulY0JdjRF5rXyUrjNtwQRopSrYFD/u/zBAzxDgxpQ+DbvNYKUMzmsikAKpuEosETkoBYcDbduDEFHOSsd9x7qYiGh0sB1AeY+5R/hHjJo55V9pUkxRJka1MnPa1zDkIAQvgKXWoPQni65J/E2X1W5t1EIfi+TijNPVEqeVYNsPfEWi8FwVEqsVZj0SfOGx4pf5djzZjCYyXo7AP0QzwIMV5K2RRDrTamjNNcA3ri+g/ojDzJnk8Sc+aQXKTkDOiPYiuTNLVx1aA3CebuQbcos1LubmWoZEyZQxlbL9dpKECY5EFAu8j0rFtkSRnSqGkSsJ5TSMaDbxNKCQ/FCI5h4VkJreaztAk/BQyUYKjk5dxX85cxlIAo36d9+LmWff7fCljNBSAgDmWOiSBBCov7lZsKcuHepuyEArituYJzhj5ZtJAnAQ/9YG6uWkiOu0a//tYnl5n+oFf9mThEahHzXgUARL/J2PVMLhdokbCnLCgQ4/BcLh/KgKuMAvU/VybUqi+fQdmLBggpnGF+3E3+Ryc5B3IruKgBJlYWOpg7xcgqSWVI80J/FgNLhdWTMAWauShOilXf6lfIEdE/QJeiNKwpwgWN3edZYrcBL9pxB7JQ0Be9IGXrHWanwI2XBYHmXL823hDlP6QNN2BcmJR/wiIQOSAgJ8X4oGzWgZCD9TR3/QNj5mbttbO+3Hv4TyzX/NBWeMQaQP34B2+69OdKoaoIDnNkaXJRqoeQt8ZZE8+3dtbNOPEod7c9xKJBRzTjFjeusgTtunsQhiQpCg/Zl0CaNUJztEruS94OiG5qcVhLazOukmIEI7pStGjvSmw2J6BK0DLOS1eD3nHguE84R6nV92znFAML3LjteXIMDwOUKZBEDnCfu+w/vGyvlyez+gBCEqVTop0csoftB1epMDOv2rM8RBH10aRUgLUnsjRY0q4PnPUBkijQ0uPHCGOo4g19543A5ECATGL72rrsTd+hWw0Q8A36o3NyibRJaCNGa2m89oWPzK0+xVB66YcYXePkZ023cWBrDyCblKRYD6wvxGDCEtowloSrxMTERwhuiRpcTuJcSbyjSLidXJibkiFwCWZEE0tBWGd6/e9v9xOwYjoWleAFQlS245mAtPTlWa4IeElsXvccBUlQE+ridX6LPwMAFJi5SLIhqCTiYQhzJqiGAITtJCkaM7eWi0CkQAi0lOQ1X/NX0ElCHkYkGG1+4CpuacrdvJzkkEDjHkoP/QiTuB4p1Oc+97mdEqPU0DA15il7QCJVvAhjSY02DOZP+WzrK3aoHYDFxelZBB9AJ4aH2dyvgAggMkT5D22DT4BSMTa8SslKFKRYH/CAB3QeLOBVDDZv90tmfKooEprmgQZikIQGl58+8AXeBFwJYIISsBCPxHdxaxtvason8eqEE07oiiDldbzoa43QxFglIBI2YuyADmDKRSjpEf0JeGuVK6B3k5MU7Ts8pK4B5R33qTUDMOxtIAHvezU6gUyRaVcWv7K29oQ1d689jd+5f7UHXvWfNSUbAGRKAujIC7vwbqq44g8FjiTa4nFjcI91IrvcI3HS+nBVG5scCXvF+PCFPpIgaV23AxDiUQWAPZsxgDYSbJNdz8ACpCVe4130SJJzeBddzRn9kkOhHbmDT/GtNuQE3hcKwK9kuH1DFrsPIKdI8bS5o7E561sb/I3/0Q9NAG/y0n7QDq1Sgp28N74kXdbAah4AAa8B4vSBPUqOWP8YNcbGOMzbbdE777/BF+Ss74USzJWsRjc00DdwRraQI/HC0I34Qy6COWiPD7UhyxkoaME4RVO/hRaSbEr2GmfegWFt5CPIrTIG86BX6a4k4e8RIKNR98whnuFBAGFIkiLliYkwH6bE/IhAYSCwDWHycf9qb4KQVZRMXLgIhJm0R0CMhgHDLBbDfRQeYiTBDsJ1H4ISqDZJ3oWubwvMKjc+VrU2xpi62ZSiOSCoZ2JcfVAUxp15ZK4lsq1dhNsBCEGfFjiZvJSO8frf4lNU6GacqdCG+TAMBsbwGJSC0Q5dzNt80dHfmA2tCUobl+IBBtAqpVN9Z53yLodUYTMW9CQwKPu8swHjuSdHVz0rWdHGpu+88rhk2K3+7mPmuj1AmCI1yeR2H17xPLxkEyXxUlvCHV+iSY4eGrvPgBoC39wSZtJfqnkmSx7NKJ4c381b6fBg1gCNCW3raf5RbPo2LmPHS5SUvqyv8fk+4YwcW4syWecQwxAPQt7OSHACnmjBw4KulAflhvbWCzjE+wAWIU2ZaIOm9mEKV/G44WPriH+dorJH0Bg98YbflKjCYNrhmdCcQAcs/H7hC184evKTn9wBAetMzpEfvGu+DziVxId/KD3yhBKkMPQdq367AMGYKV38Za7mwSBgEPnf/nWaxr5gLJiTREu0lNiWU0/2QGLijBLjxbf2QYwNoACd0VffvBTm5Jl+GIjKwKOLvuMho+DsjSSWA8VPfOITu34AGwoX7YzVaRK0tI7uk/TnmeMs5tqjsJWrvM+DYEzkH15SAZJ8dwIPXe3H5EmgD55DN3SR7Ark0EEpeMTwBZj0Za/nJNzDHvawPcrfnD2TbHYv/iOfgVk0okusp4RM8oGxg++cXrMH6D7GCh5GH+vKQJYQSqaT0daBzMDH1sXfkzwxW4GvuYQYssnirqhjZilUVFo+NXJOXEubuKhL95fFT3ymTGTEiIkVa5OYYemiyXnpjK/MQcizMh7/pw/PLwX0EA+CeWTTRJnVc40Lqxxj2SbzcH8Zi0qcunRh1psiAKWM3/Wh7TImNW4Dln1kLjWzlX33IdNSoW/FqLXiH+pBKOfv7/K+PC/ALs8Y13d4Ie36khSzmcIn8aiVzyrXzOf182sQqY21Lb11iVduYg5CSV80rpOXKSgeHEqJ4EvJW8qYUvYZxRsXL/CWkz5RjIQ0pUPxAXWUIcDIKACc824RQIS1l5M6QBoBTeDzVHoG0Oi5FKy14hEFTHh7ABbAx/fAjGe5B+hzUYi8B8Bn3pHid64696RPftV5RaX8MhcKjHIwBsmJ5mR8LnMxd7TTThseR1UhgZl4/PBeXlWdiomUHyXNMwhgCf0EqLGyKTYWMjqYo/vRgpWLzp7p+5TIDzCKJ8NzcsIDoLcOAdopNw6gRG7X8qW2jGtFNylJUXvrTGHzrhpnkmAZN3jJ8wEZYMle9Ll+YwSEZr6LhwhIMh9KnKELVKAbWugL/1p3PAtUWDMeJ3KBN8Na0D1+Uv7aqRQeGgAOHwMixpGE15THTq0ezyTnSvkxzhjr0w9zTVJMkhCiRLnZJFGEKUaRZDpMYXJRUkH8LDubnVJ2f96gpT2iJfElzGRTI0BZyCYbzMaJ1ZfqbPq0KBbNxs5GhdQsPAbB6OYQFKmPEGvRAEH/GIi7MoAopabRMMLUZ7Fu0S4WUGJdahqwYKKIonz0SRhnXdDDZi0TkDLXKDW/E99N4pJnJpky5Tt9BiFD5GiG8bMWcdWVCUr1Zp4FICSObPyhjTna5PgiCjc0CnD1O8JGGy7kFONJ8Rmfp31AiHsIVS49c0QXc0PT0EbORl6+EiBibsl45wFKlVFrHWuYVyxjNpcIt00CCEM8CHHFZn1KZVgCbnQp24zLQQjPubdP0QboBdTVCaWRZyXoK9fV+EqgHxkVoVs+vw+YbifEEGBlDrVRZh5loaTSG1LuwxhhGW+fgVOeOIuMCc/XQCcgPWtTKvV6rn2GUK2sAg62snLTZloPAhr5KXlJH0MSz8sERM9PflC9X8tEfLSNDA5daoCYNmU/4dvIhJL/JhlofUbbpM/26rPMQSgrYJn0kBCDNhaeG4+C9z+kaVLcUNBsFkKMX1tuEegccsKsgANEhijQJyEhqVACHdcKFAudUegEOVQsvwHBCGvfswiSTGjsrBAIDjEof8+FwKBU4IFL3fle33PhiD2xNvRlvNxk5qT/JOcsGiAARNymxsIaYUFx45kbpEsBE0bqxnPFGR83lXGlIBFEaR3RN2fAk7Snf+67vPnwuOOO21OMhjApj5CxMgAm9BGeYbElSS8Jk9bNmkDG/nYu2toYD0uKQsgLceR7QL7jNvwsACE5KBja31zHAA+rzTxTJc5acuenuBa6JTNYnBVPobX5s5bEq1mJUDtlry3rB+hRTAVduG69rAlAIhwofs9jPbBIgBZWA0FqbVhbwJM+FJHB915MxOWLnuLp+vI9i0/ibQoAhTa7IUmRC5XMyEmoHD1OlnjAnjVDD7ICWMubCv2fWhHl0eWcAMqR5xgd1omswJt54yKPZECmdWJAWHP7MAAgRwHtSXImxga+d48xkUd4J5X2jLn0EkVpz1ooCeg0TrIs1Q6NSwgw1R/17fn2iPbGpa12fturQl/6QVvjI7u1A8BjjJh3XhjHOGBgxaPrPn3h4+RmkOdJZkzFUPF1+4316x7jyYvo8L5nGGveKBvDZZyHs1R0ASYlIJvkQSDj0CceF/emuFCAA17Cg/jGfFJTJ6fB4h1Ht6ytdubDQ4JvUvXWPeSQ52TNfJY6Qvq29/1PhgSsxpuIxtrn9c30mjWKnEaDrFvKFUwCA33embkDBBOwUQhUk1JwhJDNW9d8h1iEYWqkmwihmVel2mDaIy4XjHOer3rVq7pTDGI++dwmpvwkiQEciETgW0gblWvFwhMYGJNyyAsxgA6fEcy8D16a4T7CmUvM/azvJLxRiizxFHdZNEDASOKuxmw8lJZNEhcVxUdwStxMnocNhuEoKEIB+LLxxLYoScINXYOSuczypsdHPOIRnSeAsFT0A23coy8AzJpJTLJprCFXK8ZHD8LZWDCnjWHNCPdk/dqc1sz66h/QmzdAME/rbKyEN6VtzcyZUuYiTOESPEKoJbZHKSRmaHzW1gbkMhQLxSvieTkrjib6VARGfM/8rZU54hugODQidMzXGyzxOZCHtmLDwBTwYaMHDBKmACCetH/siwDD3eZB8MZFNENPwNZ+B84YE9YIHa2b9QD2rRm6CQ2gFeBsv8hdSuY+HrWXyB/7A721I2O0tf9d3Lx4icJgRFBm+Nk9+N44xI4JUK55YFw7sktCrEtf9pDnOzljTJ6D38gVfLqVVd0XYugLQ+ATgBOvUzbGhS7GrMInl7nn4V+8BDj7jMva/jcGe9Nc0VoYJyeT/HYvGWtuxkzO2BPoyPAD+IVcSiDi2eQ+3iZ/Up4dPfxtvHhb4i66pHKofukFbRgj9hUZz9hYpAfBKSPyj4yPF5nRxAtI1pmHtUMzuQHmmjeG4gUGhzb4Tz++J5fJJLxEXks4RhPtGR94Gv3NDX/6rW/8hRclmJIj1oT8inGdU1pA1sMf/vCOLllHXm9hHu2ttefSwQnX16GYSaBh7gBBh4iKkWNNsaQoDYRhSWlDwBq0zY7oCGSwhLiFQGwbF6ExG4Ym1Fm88TBojyAW0D2Iop2NbKNoZ+EsEuFi8YzN/xiVMmXpUsCEjPsQ16JAXUn2MD5CJycIxnlUhrijhuYg6AuDGANFblNS0pSWOaChvljK5kOp2LxobqOjXcr5UkQEWBg5SBj6NFdKDDNpT8npCy30x2pOoiY0jwZxp3sGGrsv78GwKawTAWAtkj1ujBjcPDB8kG+fRTCLB8EY8mpe48QXqcQHgUPreCoV62wu64p3kmSYF/FYa3RAL3PUl42bt2KaE4ADgABwBDkwqX/rBSSYOyGnXWKz1svfBCKaooH1pARTZS8nO/Cm5wN0fW9fW3cPQl+hpDoHgVeG0KT4/fjevrQ+7sej1tC6vfKVr+zWQjtrZ73wZN66Ryna24AsXhB3Z8Toh7VGYFNIDBDPRH8nmihV8gE41taexF9AAACB7/SFN4zXWvEKAS9KmxsD2QQwkzl4hDLkjXRPKaBr5d9nCW8FEOwx8jKJh/oGcH2Wct32nj2oH7kDfqMDpWaOsTr1gU/NGUAgp8kdsgX/U3b2OJlkLhIfKXzzZWzkiLC18EwKzF4DAMgzJ6Y8S1vyh1y3n8gO+8aeJVvyPhOZ+H0Wbi0rxoGISR4EACGFjezBE088sQML1j9VOM2T4qbk8aH58u4BZEnCxiu8Q77L6RcABz8aA/CFX/WtDTDEqEJntNMPowHt8Tm5wsAoddvjHve4jofQFD3JHGMyDmAV/awrLy+a4tUyfy40GxfCqb0xc81BqJMUa6WJ4FFQGahNFneNvy1QYumlS7WM4VA2ieGkzSYVSqpdjea4VQy1pAe6xN1VWp1DXG/j3Ezj4n5bxRmHKPp5AYS+ufXNpYwrJy/DRnZ/qi3WG2cI3bSpj/32nWKp49oJb5RrWyuB5ElskgdhCEBgYaELUAooJXyUPJq4WClawhIIoGC4ZgEFVjHlRoCmnHBiuKzahOBYbAwIP5QgUEd5EcLxtgEilCahTtgCE4waQA0A0J4SAFoYG3kPiO8J/hxLpWABFGPOe0iyT/qUvzmXeQ3jAIK5p34MoACkmn9CB+akr7xqGD0oEEqerOEhA2wAaKA4dQHMH5BAK2tAcZMtQHMMOH/zIBiDvgAsSYmeQZG6x5hyxNPcefFSsdI6Ai2MOZ+lQqWx5Kg3xTdNSNJcpwkxWPccD/V8XgSXv9HImqOhNcvrtFPS2GcUMXCIFjnFl/c4pLJhQjc5iguU8XzizyTLxiAxfs9hcAFU9CIa+hzo1T6vggb+8CWaW1/t8BseMBa/yxMM0wCEMq9mbqcY8gKSEAiDJ/ZkghgZcYECmw7z2XCJEyd2mKQhi5T3kSc3AuMCGogRhoqrMAToAxHrUkkxxxwTu0O3xAj99oOpWf7a5KgnYZcyr9Cs+wgozJiz+dr7ieVvg8Y9mviaTezSxrMIDILQ2tko1tZmzlsMgbok63m+Ncf8eWEWQTEufliDjyHAoq+NDZJjVOEdc7PJ0CBnidE2NR1YKRRwYs3hU23QEt2SeJszx/pOyWv0YqF5bgMIffZc/2dDkhTrAjSTkhQD5KxJchLwal+y3bgkxdJ66ktS7APKQ/i3Vlh9e2E7SYoleByapJhYufEDNxRRXYm1PoVVJim6L/KpBjGlS7ueax8oHmeY9LnAxxkrpeKbFiC4d5qwcZl4SUaSAZGZ+A89JiUpJs9jGoBY8+04mTopdNBH70lrsOXLmvoGVgvEZLlDM9A1AjmXSZElpkRJQWdJFiOgxWOhbog2Vpc+CPS8TlgsClLi4klNaWEKLpooMICDe2YrgJDEpLSZJHS008amqzfPpCSjPguytgDGbTAbkduOxUH5GAMQAFhhChn0gJSCRUAP9zqlxYWNYdGOUk55a20g0tBHe3PKy7S4vLn5oE0WG8EAYFCQ1g+S5+bTN8vEOsrb8B0g4FnGaWysCG5LY8kRr4QUhquQvVv2ucPKFsbJckz9AC5jQg+v4BmKgkWDZ/IiFBYq9A7hW0tz8pn5eRulOYmDc6lyD3Pz4QHzZO34PhYYl+usAKHMio/QrSus2fD10WBj3uRCSfYqHgU840VJIqL9EaAb8JmiV6koynoqTyKhM3rpyw+eIqOsu72aE07xBuHjUvFtB+AuAyDY48ZLxgDG6IF2PqfA/I2P8LD/gXyg1z143t53peJfqTBy+sxn6IV+AV6el6RL36sjYD+Q+Y6oBmihPznG2MvRUuNMomT68zun0ZYFEIwLTczD3EK/eHLxkrHkeCp5Q26gLdoIn5A5ybdCB32Fl+I5///t3QmcJEWVP/DoAeQS8MIDDzwRb11EEERUFFA8QMVjZRUVPHbVXV3v9QYBV0Fc1FVkdRVQ0fVGBEUUFEXFi8UT3T/eIIcicgzMTP8/38TX5ORkVWVWZVV3V0V+Pj3dU5UZEfki4r3fO4Mi4h7vXAZo1mGVf9TFoCxZgFCHrqov5B7EJbQxZwxVlD1zEgGkeh4hznQHOBBomK1AGgQCGggS7YhbwNAFYbAMCAjzvYCPMAcRfrH4CUSmMPfEIq+zIAwLECyCcgpgG7RZNnU1jUGwudGFhQCIIrxpXRahRaZIC9qhDwHN14gWhLiFTkOOQ2aipCyQpXgKMxRfqneIIDkMAo21zywLjMQxtVHaFj3NOf+iPhT+MBfa0iYzrLkKq5Agn2gjoqeH1cAGaWlooG/rjIDgd7PuCPwYB4BE0PPrGSu/nXdjlkZLG1aVRevzda97XUE/AZtiVwQ9Rl5yxGDYwO6J4EPCp+waGreLISL0hwVdi/lcEwuC9cqyaO8x/5qHmGf7iEULE8a0+YzFAoRJWGyR+Ql+ADi6P4JutWOtW58xT/hVWI2sAT755QIQ7HcC39oElNECP/AeaGdPo1PEQABVeC4eEGWaacDoKR6GeZ9/3d5mJdQehcGewbv5yvECe12/7g0l4CUveUmx5+xF9PWdcUVRMMKW5decmFPg3XrAc7TJkmE/EsiTAghcBOaakqpPdAmgYpzGS+EhYyKegHLBXSD2BA24VsQbeA+yy9/Wrvu1JZYgsiAowOgp0FEAK0U46iuUldeqi2nJAIRh0xwjNSbQfbn+dCBPGzKQlMkI35V7IzcfA3ARLNqyocN8Hib2iFNARG3aEFGOVru9XAwmIhZeEwtCmJirAGFQvEWdabMpQEAHKDPy5CP9xdi9N2ZmsQUdCbpA90GPMNFG7IZ7/K1N34W2rz00je8jJSssJKH9BKJ1b8yhvwMNazdAhGfQq5yf3UQDa3JPncggZiAAACAASURBVGCLCN/4re/QQKNKXphezUtoWu5HRz/6Rhf3YaDxbmUts7yu/B2WDe+u3bYAoW6NzEoMQsR8hJWuLkgxso0wWVobaxALJDqHSZzgO+SQQ4qKdhFHICAxymRb3xgygEAA0HDNs7YJJ3xDUKk1AUyjv6A8oLB8/kXduhtk2YpnmtxXnfdwmQyq34BuBJLn8T/vTngRaMcff3wxBPEF9gT+QfmiwVvjAC4XLzp4xloXGMjSxroo7RsYoOgR9mIVgA3gmwBEV7QEAgg8e0J1yYMOOqhol7WOpRGPQMuoVmoMADewAZiwxBm/tiJAcRQAW6V3NUgxNPtwA7DIGr/5x/8oYCo3oj3aAknekVJKoOMb7gUQjjrqqIIP+L9KkMAOC3qcfBk1TigtngPmAFhxFdozR7LwKFlli2Dd/FfdXqOsySbPBu8vwFoXdRAGCc26IMWqX8tCyUGKN1iYv8i37scomjCTunuqG6dsVuzH3KobsE6wVxfgsMK/adtVM27duzT1K7fNq64yHH2P24Iw7S4GvCJALyAVrj5MPfhMWAQDvNojYSoOABfzEO6FAHlhxg5AHetM27Hn+vnSY30Nsm7V7bu6NT1KDEK56FkEhvsdNAg3QGikwYfLvnT9aydcXqGkxTpzb9RYMB+x5sPfHhp/3BPfR59l/mXeAkzHnozYhHIF3UlZEMw3mlgToeQad7hrgrcYY8y3+8JVVXY3h9s4ZFis28gkiP8HXaNN7ZbjFpaCi6EsHzJA+JtEqwb5INKkXQxtsxgyQFj3qNIMEEbRwcb7bBMXQ9sgxbBEjFJJcZaCFAMMxD5B766CFKvZU1UQNYpiUm2rTlmpKguD0hy1OazbuKrgTn2QIgTkpcvnh4dZNjZQoO6ySaTunmqcQl3+dhU59wrcKy+6QF1lH2GkSwZrsyiqZsvqZNbdU10o7gkkGW03eddRghSrSFK/ZQRepwlXN8Uw2vI4LQi92m6igTW5p86CUBVzdabGLhhO3X4Y1oJQ9TOGJlgNUoygu/GK8vG0zmzNpD1orwLK/dyBdXu1Cuare1WfVRpbF1Wfd9P9M8zarLMgVF0MdRpk3T3hJgta1mUxRIZY+Z4qQIjgvDKPq2YxDMOr6951mgBClSbWH7pVM0uq7kd0LsuvujXZhO8P4l91fLfpZ2XwtWBBGA9LyK1mCmQKZApcR4FqunETf2uve8pZIHVArU741wHFJqlh1flr6v4aBCJ83wS81t0zSFuuc381AUTD3tPkPapa/7CKyTCCLp6po1sVJNZZHgbdE66Sfgpdndt4WLrVrcnqWq7jO3Vz0K+tDBAy984UyBTIFMgUyBTIFFiHAhkg5EWRKZApkCmQKZApkCmQAUJeA5kCmQKZApkCmQKZAoMpkC0Ig2mU78gUyBTIFMgUyBSYOQpkgDBzU55fOFMgUyBTIFMgU2AwBTJAGEyjfEemQKZApkCmQKbAzFFgHYBQl4qBKr3SI3qlrtTlp/drQx/VNI1eebN19/aauV5t9BpfXdu90prq2u41jrp0Lff2KqPZi1Z1fdalJi3WnFXzevuNo9d3dTTpl1rWaw2OuqZ69bkYc9ak3Opy4V7oas2W88GNve06bsMfes1l3ee99mq/vV231nrthV78q9feLqfOxRiWCn/oxQPb7J0maaNl2tfVGhknf+jFp9rIhX7j64Knt90LdSmRdWMsAIIv4jCa5cJk8jgzBWaRAvaqIi1x/shyooET/aL07HIadx5rpsCsUSBOul2wILTRhmeNWPl9MwWWCgXsU+cOOMRsuV0OG3PIUr4yBTIFljYFwmKZAcLSnqc8ukyBtSiQAUJeEJkCmQLjpkAGCOOmcG4/U2AMFMgAYQxEzU1mCmQKrEWBvgDBudbO9a4Ljsl0zBTIFJgcBcQcPPCBDyxiDgQWTQtA+NOf/pROO+204qjdfGUKZAosHgXwmNvf/vbpHve4x4LMXwsguMEHcXLcxz/+8XTmmWcu/H/xhp57zhTIFHjOc56T7nKXuywAhL/85S/L0pd/6aWXppvc5CbFhJ5//vnpkEMOWZaxFHlFZgpMEwVCCdlnn30WMosiA2chi6GcdvQ///M/6Zvf/GZxdOUll1xSMKdhrAnapCnEUaTTRNT8LpkCk6CAzXvAAQekO9/5zgsA4fLLL09bbLHFJLrvtA+84MY3vnHR5q9+9at02GGHFe8B8Pg9bGaGoE0/5aOxOx14bixTYIopgMfssMMO6XGPe9wCQOjrYigDBBvPw3vsscc6ecv9aAaBOP/9jDPOSL/4xS9S+VzsKaZ1frVMgU4pUAcQpiGLoQwQMKOb3/zm6ZGPfGS61a1u1Yp+UicvvPDC9NnPfjbzmFaUyzdnClxHgZEAwpVXXpkOPfTQ9K1vfSvtsssuhVVh0AUc2Lh8pmeffXb6yle+kjfvIKLl7zMFaigwCwDBa9Nerr322nT3u9893exmN2u0Fn7zm98U94ljYI3ISkgjsuWbMgXWosDIAOHwww8vhP0Pf/jDdLe73a1vsRPg4He/+13abLPNCn/j5z//+fTlL385b968KDMFhqDArACEJzzhCWn77bdPX//619O97nWvvi4UNPnlL39ZxGEAExdffHERz5ABwhALLD8y8xToBCCwHKi2CLXf8pa3TJtuuuk6cQkrV64svr/FLW5RAATXOABC29KcM78CZoQAUSZ8Ob8uIF4ugzprAMHcffvb3y7insQlVGOfxDP93//9X8FjAAS0GgdAiHLL1flYzmsrj310Ckwrjxk6BoGLgQUhXAtXXXVVsSEBAD9RT12gEcvBHe5wh7TRRhstzEQVICAwILHxxhsXmRPxt43ob4FG1Rrt1WkVpIVxKNtaV1N69GWQW1iOFLDubnjDGxZDX47rgvDjTy/vn1kECOZPqvVWW21VgIQIPrziiiuK4EYKimDHmOMqQMBjIgobn8AvrAv3+9z3g6wN5oJCRBEaxI+W417JYx6OAvZmKL/Lkcd4a0p8Ob24MwtCkJQgVzbVxoHi/Y2x3fWud10nkrgKEGxQQYvbbrttAj7+8Ic/FIwAE5AGZSMDDjZxbGq+SROjXwBFZoV+MQ9MwwuaNL/93+b3Y4N71iYHcC677LJizMBJ3vTDbZCl+hSwuNtuuxVmatcgAbAU3+PXv/51OvjggxdSAY1xVgGCd6dwmEf73N6XGslyIKCxfFUBAv4hBgqPwDd+9rOfpdve9rbFvserXD4HAnyG9+BLmCZ64xN4h8/0hYeU+UjwPmvOPXiSZ7WJp/kMz8lZFUtxl402pkc96lFpxx13XLY8xsBf8IIXLChSwWM6syAEeW0YaUs2pw25zTbb1BY9qXMx0A4UZbCxbDYbKRg6QQ7xhylH6pPNboPrj6XCxrb5bcoACJ6zYTEVTMTzNnm4I4CQc889t9A+PNsk2HK0pZSfniQFAiDc9773LeY+UP4kxzBqXxkgXAfu4jKPlAZ7Hp+Q4VCX5VDnYmBpiOJSeJXn8QCKjLgFmSD4CAsDACLj6na3u10BBPAQn9MQ8Qp8Kk4QBBjOOeecYhzWGJ7kinsvuOCCgp/hM8sRpI66hqf9eQBhu+22W7Y8ZmIAQUd8gTYcc5887TrEXAcQWA0wdMId0oa6XQQ+zd6GtOHcB0jYdDZ7uCNsSpvafbHJMRIgArPYeuuti01us9MQfCa48kc/+lERALVcTUPTvvlGeb8MEEah3mSeLR/WVE5z1HsEKVZHQpv/7ne/m7bccsvCfRkupPJ9dQDBZwS03wT/eeedVzz/+9//vhDu2sUHjOk2t7lNwWPwDfc7CCsUDFaBcGniMfgcgPB3f/d3Bd/yHoKxAQ58EG8CRPKplZNZU5PuJQOElFK5DkI1BiEmRClmm+tOd7pToanT8gnzqvCtAwiEuo3lXpsXUPCZTWXj2pQ0fACERmiD2ri+Zx2wmQEEfUbBGGBCW+5TNvK3v/1tMVQMxWa3eVku7n3ve096TeX+JkCBDBAmQOQRu2gLECgA0qsJZUI7Ci1VT7KsAwiUA65IQp07E6/AV5j/AQdWCcoJywGeEkfe6+OOd7xjoXxQSPAovInyEsrHT3/600LRwBsBDhYJz1uD+JD2KCb5mj4KPPShDy3mPlzgw74h65M1tRjK6thdDHyBNgJChQC2EZnwH/KQh6xFszqAYDO5l1ZgM3nWZmS+I9hZItwTVRwR0Ub0PcKyWmAS7vXbBgYifA9sAAiARsQcMBcy+WWAMOxyXh7PEQC0OWtnObqQCBzpe+UqibMag4AB4x0PeMADFgS4vW3P09DLIKFXFgNaWhPux1+4cFgRaPt4Cwb9mMc8Jt3vfvcrXAr4CFcC4a7/cHPiPyyb2gAugAdgwPeASDngyz3W3jCVZ5fHLpvtUXI5hXVolDi2T33qU4XcWwyAQPaW98/AIEU3QNbBVPtZEGzQn/zkJ+lBD3rQWihZG1C5mgePf/zjF1ZRrzTHcsaCTel5wMCGc0WakTHZkJA+E2BEIpscYy7f67MQDvFOMRDt6DMfDjOdG7yclrac39B7lIVLHUCgiceZBsvpXe1hSoGrn4uB4D3uuOOK4klVsIQXfO9730v3uc99FuJMegEEvAQtgy/4PwEfWQ7aetaznrUQ2LqcaJnHurwp8I53vKNwgy8GQKjjMdUgRWDZXinOYkBqmyYYUy+AYCN+4xvfSHvttVfPLABau8qJNreXH7UOgoFC/vyE5fSv5b088ugzBZpRYNYsCPjQxz72sSImoZcViKD/0pe+VGSthOl/mEJJLBLPeMYz0v3vf/9mk5HvyhToiAIAAqv4YgCE6isMtCA0AQjQ9le/+tX02Mc+diCJAInvfOc76RGPeEQ65ZRTciXFgRTLN2QK1FNglgCC+CBntzz4wQ8eaOkDJJw66wQ6lssMEPIOWk4UmCqA8NrXvraobsZy0PTiilDvIKwOOeWnKeXyfZkC11NgVgDCnnvuWQQNCihsmqIKJLB2Sjt717ve1TqtMFsQ8k5bLApMFUC45z3vmR72sIe1oiXGJpjx9NNPL2IIlmPQWKsXzjdnCoyBArMAEMQgyUDaaaedWh9jzd3wmc98pohRastjMkAYw4LNTTaiwLICCJiQTRp1DJjuHJoiuAdKj2JDjd68chMfS47oHYZy+ZlMgeso8LznPa84m8Besh+Z1EVTL7dL1HYEV1Ie3vzmNy9UQB21xv0wEeU5SHG5raDpGe8RRxxRlDxeKjEIwLnkgthHUaq8CFKsAgSnNkoRWgqDn54lkd8kU2A4CsgYkms/TQABWBBouJiuR0Fi8todMZ2vTIFJUkDwvvpBS0F5Jv/V/hADFONhmWORq81imCShcl+ZApkCzSlA05bHXy0W1LyFxbuzXChp8UZxfc8/+MEPigqtKrA2uRSHU9XRMzvvvHNrcBOW2OWoeLEwD2OlaULXWbxH4S7WtKV6XkfMdy1AgB6ixsAsTt4k39kCgdSiktsk+859LQ8KSOULZD8tACFOdV3MGYgzFcQ/DLo+97nPFUXhBFAqlPPFL36xOPTGVRb4UWsh5iuqMdrjAIa4B2Xf7XsapN9VIYE5h4m3LJTD0hsp6VFQTiq4+/w/8tfLVmH3x7HV4TI2Ts9E3Ib/Rw0Z9xpDFIEyZtloUteXqkAbNH9L7XtB/NyESwV0hRwKOvUFCKeddlpRdXCpDH6pTW6X4xG1rfqkTVn20XbZR25r+VIgivqoARIuhmmwIKjE+sEPfrD2bIVJzZZqinvvvXdRdKnfRVi/853vTLvvvnsh3F3OdgAWPvShDxWloFVo9E60QrVinvvc5xb1YMwbPqo+DIABJEjN/OxnP1uUpv/+979f1HyIEyq14TNtKzWPNygQ58If1IjgElESmhXjrLPOKoQ8d4m6EMcee2x69atfnX7+858XKaP8ykrTs5KwOtFcxZhJJVXU7u///u+LTLOzzz67+N441JwBnjxzwgknpH/6p39Khx56aHrpS19aVKnN1+gUMCfK/y8FwAUM+OHuC5nfFyCUCyWNTorcQj8KOPQFw8D8MSylp/OVKRAUiEODlP+dJoBQraS4GDPeNIsBIJMpIV5B2ea4FHD76Ec/mp797GenU089tdDACW2ggXXBfBG+0r1Vf1SQiWD3m0COc2E+8pGPpDe84Q1Fs8AIIMAdo5rkE5/4xIX7ZGq495nPfGYRI6bkvMuYWCwodoS7tE/gJEpSG4M0Usxf9T7WEAWiBMmdfPLJhf+ZokJgffOb3yzGbX7UvAE+POcY8re+9a2tM0UWY16XQ59LycVgzcV5IxkgLLHVM6sAAUIdNXJ9iU1lJ8OxQcuBSxkgdELW2kaaAgQM9O1vf3uhjTuczhXnOXz6058uNGyaNpP8Ax/4wGJdu+/AAw9Mr3nNa4pzYpjonSshA4UwduATwRwWBlYIlxgHReYe/ehHFxYWv8PCQdCfdNJJ6WlPe1phwWDlBRydTsk6QZgDBe973/uKFPOXvOQlBbBhGdhvv/2K9gEEGWpPetKTCrDivQAV1gdtAA8sFM6u0Zf/qzEh40Tkfb66oQBLEUC2GFb6Ko8ZCBAgX4s6BpstCN0sgiatzCJAgFbf/e53L+S+VxdsE7pN0z0Ei5Q7zBxzZsruZ0EgcMpnFCwXWsRpjMa7nCwIxktYMwerDgvcvulNb0qveMUrilLy0lDVe8Fot99++8Kq8PSnP70Qyp6TFcbt4DuuBjVljj/++LTHHnsUFSMJe9YJF5fBj3/84wIYHH300cnxwg6TCgsjjf8pT3lKYZVAT4KG1SBOuWWdYB1gMWBJAGBYAiJTA0Ag6F//+tcXYxJPAaTE+R7WFv+42vyAx0EHHZRe+cpXFtYDz+Ry993sNu4jgGxSAMHaJOMdEsV15JCyuAYCBDf2OouhG3LkVnpRYFYBgoWKCTKVqqBHYwltalZWiyA1wsaRxne9612L96dBDgII0xCDsNwAgjXJJM+VYK0S7uaBcLeHXYCAn1133bWIG+ASACAAAto/bZ9Q5+d3aJXvZERoKwIdBTVyRwDRBDS3IwsCQe60T4JF7IJ2AEtrRgl8/mPxCvo488wzC0CA8RszC0H4ugEE683YgYp4D5VygdQoVsVFoS+BicYItBhL9bTeWdmrXb/npFwM1pF14oBFliRWK66oMo/JAKHr2e2wvVkGCE9+8pMLSgrYwfAgapG9fi/HVLCmy4IQCBM1690222yzoCFmgNCUiqPf19TFMHpPS6cFoIWw2GWXXaZ6jy0ditePZNwAgeLBGsQyRBFhNaCIuWTgTAwgQJ1+XCJvIVVIN87M9nmUWm5bCnWpT3IX42sDEJgEIfxhr5/97GdFlHUcuTtsO6M+B9WyIARA0B5BSRujARGeosKnzZwJqdMkbVh7QnpdbFo0oKFlgLDu6qIBEeaYXpjE/T9oF0fAu8/6aXoNCxBo5Vw8kzIPN32fJveFtljmz02eW8x7wjwecRaLOZau+h4nQKBs+cFT0awa+D4xgAChYHZRM4GbgvnN5zZvREbaiJg9f5t7behytKQX8f9p1hp7Law2AMHZ9e9///vXaoqgMQfozcxIuAJiQFqU4w1Ttgjo+973vkUUNWSJ3u7BeLVjHgC8Nkx2mA1TBxCiHWNgYmVyP/fccws/6nIHlvYFYBBmZnMVaW1l+mWAUA8ORPW7IocfyI31LegPPaOuAjOq9VzmKb6LUvJlHjMsQGDSv9e97rXs1+Uwe3cxnsEvpHGad/EW03CNAyBYz1xBFA9yIAJqq/RqDRBsJoI7GHGTIEXPmDSbE5qOPH5/Ez4QqgHbsAADoRM15PXlxz2+C03R/2cNJLQBCKKXBTfFReOmzTBRhzA1d8xHIuFVitP+j370o+Ie+c8Pf/jDC9/ijjvuWAA4wU5Ag5xoudF8lHyf48x37gcQykCBPxdDEJEtUGs5amz2AMAjf97fkdNex+SaAoQIKFtujBJAUjLa1TQGAc3QhYkUb8D4KBpAg7asf+sVPwJyAVxgAC/zmwbleXwJryFkgscMCxDMZ8QdLLc5WK7jxcvMrYMDp+HqEiBwWcp8EZsiwBR47Xc1AQhRcKv2LIamAIHvOKqLxYBsSsBBYEugfPcBEjY1zclmFn1r07vXBrehi9rPc3PTMP+N32FYgICGX/va14oFodDKv//7vxc50/KVjzrqqII5ikCWM21zSdH67//+7yLVSsrVC1/4woLR/uu//mvxA3iIyv7CF75QzBEf5biuJgAh+mb9kO8dZkbpYMthjdBaTzzxxIUANcBg0LibAoRpOKypCUCwxglxoIBlsnwJbkVTtQhoTNYJ4ETZQHsKCX87gAlIC87SXtST0NawAEEhI4A1X5OjQAYI69LaOldPgwvB2rbWmxReagIQ1jqsKcx3kX/dFCDQNsUdRMoVHyAmSPhXAQLrQETO0gQJCZvZxgYkXND9Uji8YnLLPhWaSNNCSWULgsUhnxkSBQxe97rXFbnNhx12WAEE0PpVr3pVes5znlPkXEuNOuaYY4roZs+p9Ma9oE1FWuRxy9n+xCc+UczdOKOV2wAEcxHaIQEQVeEWO46i1xoxL6LECS3rHNhquqabAoRZymLwrhSLKIeMcaGnioRVgMDvShFBd4pLuDjxGGsIYKCUhCWqC4AQ/KtJTAKLGG0PSM9XbwpIBWURdaErq0EGCNfTy1pmBWYRu/Wtb13I4DbxWk0AQieVFE2kTcnUZ9MaNFMqq4DPbECDJ8S4GmiCNjoQESYWoCJqiLunCQKaps3VFiC87W1vK5ideAObCM3lOQMFysYS9gEQ/u3f/i2JW2BpkBctBmGvvfYqfiuiYhG4F0hYygAh5pvwtV5on4QGLY4VZClc5kQQKIHBPUNAtV3LGSCsO5MEalgqKRl4CN7iN4DAgsa6ADiwrMS5JgSL/9sn1nnwIYAtXKldAAQABnClxZlvyhW3HQudv/UhVVDqIVeZY7vjHAbpi4odKWusrkK+rqOAuaTQmDu0E8ycAcJ1tCFvrRdyloI3jNV9YgDBgCOdAkAg4DFKmxrj9rt8sAjkbjP57V7fsR5YEMMw1GnYUG0AglgCAtKFXiL9+WBZciwYFhhBKv42L7QsplWMCZ0xSfdgtAqy+E3I8t3SrjBcwM2iU+VrXFdbC0LdOKwzwWLGidEOMt+P6120i2Zq36N1uRRv2z4zQKinGD5hjUbckvXp/3iMdUCTsh+innxkPEQhGmvf/dZ/+XjprgACpg2kAK3GBgBQntRMINysU3yPcgSIP/WpTy32rCAyexWAL6edtV0303j/Jz/5ycJFpyokeTHrAMEesJ7waAHco1ytAYJN5qeNi2GUAeZnr6dAG4AwLXTrAiCUrQpKwsp2gKjjUKNx04owoj0CYV0FTzUFCMu1kmL5uOcmMQjjnsMuAII2AANrDw9ltfAZoCjWh8VOlUVWEIBAqrLqiAIdBZMJLAPWFVfK1/UUYImTCg1MuWYRIAAFeKUYGutKinsXitBQACHSgExGkxiEvJi7oUAXAAFj6rdwen0/6Llu3nDdVroECNG6CHnBYzIyaIksVF1spuro7RPWFrRjrVElr6t+mgKEWQlSHNf6i3a7AAjWAWHmh0UuUirFQoQlleXDuomYiIgQpxlHPNZScZWNm+bDtj9LAMEaCqBJAZGW3ibGYBCNmwAElurCfTFvhedSy4NoOrbv2wAEWghfZ5hXWXwIJ5NpUZlQn5UFv4XG3Ck4i98WEyOIBLd4Jsy0dUIOU8PkPFMFE6OAi3EABBNkTAIyafbeD0hgZu7iQitmYYxfGVrxHl2nXTYFCLMUpNjF3PVqowuAMM7x5bavp8AsAAT8i5XNusRrZCXgY11fTQBCJ0GKXQ98FttrChAsHmfIO2QDqiS0ac0WkUBFwIAJU4CUTAVxBwSYxSaoxeExng9Q4XAYubMAB9+stgTXCTBlLgUMABFpYfpz0IzvaEM+8z3Q4e+mUfoxv+MCCNG+xS1eQ3yCcfLbDVtsKep9oKXUOhHV4zooKQOEyXKAYQFClcFOdtSz2ZsMEK48LplpuKp1EKxFAbf4DIXPiZ9dWSar9BoLQCiCDf98cbrbimvTJiumYYom9w6r5lM6f8166aKNt0g32GjtUrBtAILT/mQsEFSELMEvyDBO6HrkIx9Z1EPgz+S3sqH4raBv9RAABP5r/nrR1C9/+csLk7w2LBq+Ucg1AhQJRymPTpV78YtfXFRxFAVO4LJMSNfyfVvz6LgBQhmIoIMxA0ACwtpcgs8geqAIiAKmxrVpjWvWAYL1tuqyP6W7pavS5hPgMResXJV2e+6L0j0e8MA2y6KIHwCm83Hlrcg29M0UEAKUMhKFtoZubIk8GADBu3GNWk/KA1Du2ipcbV+pc4CAQe55+a/SFlf+Od1+xaq04WzVMmpL/3XuXz2f0h/mV6Rfrr9ZOmfjm6fLN7vJwj1NAYIH3vKWtxQnIGJQChmJnCespS3SbLX1oQ99qPitgAzBzaogIAxAADDcT8MWUX3ooYcWYIE1wbnvO++8c9Gm7wAJ2jcgARjsv//+xSlgLBcEre9F0wITbUszTwogBJExF3ED4YZh+eh3eW9WGaAgahl07U6o63+WAQIe84CrLky3+etF6Q5pZdp0Ajzm3FXrp9u84HXpdju2LwoGIP/NOzsyf8gN9KcAUM4HX85AWe404+5lMQAMKC/4dNu06GFp0ClAsAl2+ON56dFzl6YbTGDTDvvSy+G5q+bn0pdXb5rO2Ox2acUNNy+G3AYgOIVNgSCaLSHHF004M/0TZhFfAGXTfC24iFGIGISoW8/kzg3BXC710YJ17ze/+c2iLDOtG9PWlvs8LxCL+Ytf33fa0k5b4TlpgBBrA02kvHlXKaJxVkV57ahlAEigM5q2tY6Msg5nGSDc4y+/T3tc/fu05dyqNCk288Nr1k83fcHr0212aA8QRpnn/GymWkJ3YAAAIABJREFUAD6DX+MzXQYgNqFspwDhir9ent585U/S5nNrFvo+e9VG6QsbbJk23eS64yO7uFatujZte8Uf00NW/DVtvqKIm5zK69LVK9JJm942nbvZrVoDhHESpDDvrlpVCFBCcZyLdrEAAvqxnnhH9SNYQe5973sX7wpkKTwVJaYX47S7WQUIV195ZdrnivPTLukvKTwLf1ozl45cc8tO4z0Avy2uuDQ9cf6SdOP15lMGCOPkKLntfhTgyo3iWpOmVKcA4co//C4dvv5v0wbpOqHt36u3e0j64d/tWTDWO9/pTimNeH7Cny69NP35ssvSqi99It3hf89IN1pxPRiZNPHG3R/6nbTxrdPpm9y68DW1sSCMe2yTan8xAUK8Y6SenXzyyUVg53777VcIo3ECo0H0nVWAMP+ni9MTrvp1esAG1yyQ6KI166Ur3/D+It5GgOyosR/mW9XCrddclTb577ekm61YnQHCoAWZvx8bBbo8rKntILsFCL//TTp8g9+vBRDSTnukuWe/qqgQJg1j2AN0aK185dDUDjvskM7/wDvSTb9xYrpRyVrR9uWXw/2f3+jW6fRNM0BQZW4xLusOSOFO4ULhUhHHIUOE22HcQUK93nlWAcLcpRelx1/967T9BtdVCXVdNL9e2vL9Xy4sO4JslQofdl5YjT74wQ+mZzzjGenan/9v+uu//+tIACGOkw7Q4nek/Q47xsXYB7nPxaPATAAE5BWByVSC0bYJImHuE6TBr67MqE32y2OOyADhFrdYvFU7oZ4Xy4JgzQlYFC3sR1BmOTBITIciYYALhj9pN0MGCOsCBEuSAgEocAfhMU2tCeZbwKkDyJw34rmrf/KDkQECV5TyyI5Hj9MiMXxZPeJxuOisqzb8cEJbL3ezRChgPcdJyE3Xc1dDn5gFYQHtX3RRkTOPoTZJQ3FvMOry2dUZIFxSgK1pvyYNEOIkP0z729/+dpEG2ivzwr3Ag/RIGR42r2DMSVwZINQDBLQXYCpmxFw0OdQtqhtixHLKQ7PvAiAYj5RhacWyGVg4jA3gVF5Zqhqg4IyQfGUK1FFAQTdxUDvuuGOhjFjTk7paA4QIUItiMuVSy1f2cTGUX0h0O+YrKpPJttfFalAEC22xxToBSFWAoMbjKOENF66aS1usN582mlRYdMMZzi6Ga4raDZNwMUhvpNEpCsWX3XQjWs/WKjAD9EL7485oaAoQVMYc52FaDZdx69ukc4UCUT6LoZ+LodyJOAJMVZApt2av+dCP8xH0VXUZjQMgsKKaEwGuYlooSkCCn3xlCtRRIFwMquPKSrvVrW5VxD91Vfm1H9WbAIQoB16UWg6fbGy4YQCCAWlH53Ln5XeW/XG+U92O5UBt6brUuCpA+MoVK9JDNx0+YPG4y9ZLO22yJt1xg6WVFZEBwvgBAoZNkBAUQKu0zWEubgcCh3CKlNC2aZ1N+20CEPi/44j1pu0ulfswxZiHYQBC8Jizzz67eCVFvqoVMjFcgY3yyusKW3UFELgZ1ANhqVBp1Frz/+9+97uFdQqAUUQsX5kC/QACq6Y9LZWcvPTjZNBxKiNNAIJ1XRx8N+gshqYWhCACRso8a3PaKH4QQDCizcts28s3VwUIL7xg/fQft1id5uauE/Ar51P6zlUr0nnXzqX7bzSf7naDNekTl69IG69I6ao1KW2/0Xy62fopfe/qufSHVSl97coV6fk3Xp1utV5KJ12xokihevQN16Qr51M67Yq5tN5cSrddP6X7bTSfNp1gamUGCOMDCHzOXATWnAUOHHThC9YmdwOrAgtZU0tEG/bYBCCwvk3bWQxNLQhlWspIYB0ghOOQJOZ+fMZnvWrYdwUQ2sxrvjdToEqBuiBF65cywnoJIChYN46g1yYAofFZDG0BAkJgYhA1v6F4A5oXxg009GPWgwDCWVetSD9ZOZduu8F8OnflirTf5qvTCy9cP/3zTVanP65K6f9dO5cetMma9I0rV6T7bDSfPnP5ivTMLVan065YkbbdaD6tmU/pl9fOpR03XpM+ctl66TGbrUnnXD2XHrLpmnSvDSdnZcgAoXuAYEET3tYccx1gqtBR15cKi9axDJ7ddtut07TIDBB6xyDUzSNLCgZK8QASonBXv3nvAiCwguZrNAqwwi1mSvFoox/96X5ZDL5jcZd+zRLF6tZlIOOiA4QgH2YqlUz0cQTu9CPtIIBA4F8zn9K+m69Jb7l4vfS0Ldakl/1x/fThW1+bfr9qLr3jkvXS4zZbUwCF/bZYnQ69ZL30qE3n07GXrUiH3HxVunY+pVf8cf30rC1Wpy9fuSK97Kar01GXrpfuu9F82mWT4V0ZbZdLBgjdAgSgQFS54EMWLJUhx30xCfIXiruRhdNFmdQMENoBhMKquHJlkXnCmrDHHnsMnIcuAIIAMy6MfA1PAQKwC8ve8CNY3CebpDkCvkAvge4MnmEPnKu+6ZIACEx9XA0KAYk9YC5RrrcfEhoEED51+YpCyD9p8zXpoIvXL6wDL7to/fSRra5Nv1s1l4685DqrwP9dM5f2v9HqdNgl66e9Nl2d3vOn9dIRt1yVHJr00j+unw680er05SuuAwj/8TeA8OAMECa2Y7rKYtDOBz7wgSK/naVq0oF7wAizoM3ut9iaUUyCGSC0Awgslccdd1xRv4JpVjqk1MN+c9AFQBCU6FRB/c+yFjwswwAOWPy6ANXDjmGxn2sCEIwRrcRRAQesls7iGYXHaLM1QKhO2LBBivFCXl6t6Qc+8IHFi2Gk0o282FZbbdXzBasA4bl/WD9dsua6FIQdNlqTnrDZmvSpy9dLP7uGm2A+7bv5qnTgHzZIH731tem3fwMIz7rR6nT8ZesVz/1xdUpvvNmq9PtVK9KJl69Iq1JKz9hiddpgbr4ACC+/6er0jr8BhF0zQJjYnhkVIGAu0sycVLnY1Q8RzXiYnfnF+b4diDWMSbApQFiuWQzeLwL3hg1SjEWK3jJT8Bj+WsJaxgraUEZ6Ce6uAAKLqD7bHlQ2sU22hDvKACEVSgVLZ1OQhGYCByneLKZqbgzDY5oCBHEQZHenQYoRjMi/ZJNWL1remWeeWaD8OvNSroOQ6yD04ms2CIZMKGDKGHRXJrcuealgRkBBfjMXRBu03xQgzHKQIh4jawAAqFM2MFHuH9akOt9tBghdrvbh2soAoT1AKFMaCI6D+yJbsA1YaG1B0DnmG8xsGAtC+IGVRO3HuPVzzDHHpKc+9anrBJFlgJABQpXlWC8sDgQv1O2I6bpTGIdjVeN76pxzzikQP1M0MNwEzGSA0N/FQME466yzijRqlppeTJEAOuOMMwoAccc73nGtlOouAYJ+souh/R7KAGE0gBAUB4S51ijjeGLTmI6JAgSTLZr4K1/5Stpnn30aaUyeOfXUUwvzoA0WZpYMEDJAKLMbAgFatgm4EsSwLKfLOifQlOMVZW8T96uhkAFCPUBAR2vhhz/8YZEj7qjuJhefLTDBkhAArQuA8IUvfKEIUjSuJsCvyVhn6Z4IUFxu+7nLOWrrYujX9/e+973CXWEtNjkhcmIAgWZn4ypMQlNqU9yBqZBW6BnIhwDIACEDBBvBuuJrE8ErQMfaWs4Xl4CYHBotrZfAqnM9ZICwLkDAJ9APUMQr2pYix5swT0LJ7y4Awvvf//4MDEbckPaArJNZvboECOEBAIjFJkStll7uzU4BwhUX/C4dsd7axz07zfFP+zy3AAcsAIR702CL8oKwabkmlE8VvHT1F06YjcOaNr5NOn2T64I183HP168IwkAKmToGBKoTPtv48Jcys4kzHmQ7eCc+cqWAy2byWQUIq/90cXriVb9JO2ywcmEKnea4xXu+kKRKE+wKUw1rzsenpIxx+dxh/ur017e+dKTTHJfyOstjWx4U6BogxFtLCBDn54wjQbuKulVdcZ0ChKv/+tf01qt+nDZI19UJUE7ot7e7R/rNI55WdI7RtQmQqJs+xMII5r/y6XSPX5ydbrRicjUJJr2cLl09l07a5Lbp3M23KrrOAOG6VJ4f//jHRUyKQ2/4jac1Oty7WuusI4LtlAuOd51VgHDtVVemJ15xfnrg/F+uBwirV6TvPfUVhSmfS2FUHoNxclE47nmbU4/PAGHSjC/3txYFxgUQohMWN2m/eIu9I5gxrk4BAoZ2p9/8OD1n48sXOrh0vQ3Tyq3uVPgDU0cHIWGOK3/9y7TlNVekG/yttPK0rSng6uy5zdKJN9w6rdzohhkgPPnJhZDkRmByFPU/6VoGi7XGBF96d+/99a9/PQnuRQe1/BVeist9NN/Y6NNYahmP2eri36Qnrr4g3Xq965SDq+fn0v/b/FZp27tt29kUXbNyZfrdz3+abn3lpWnDufn0w2vWTzd9wevTbXbYpbM+ckOZAk0oMG6AUCjz8/OJXMU/xAkK7GWN6xQg6Ojaq69Kt7zg/6UXb3J5Wn9KhXeTSR3lnmvm59L306bp1M1ul/6y0WYLGtGsWhCOPfbY4hheQWQC9yzcUbXEUeZnsZ6NWJworSr/eNYAQsHMrlmZNr7od+k5Ky5JW62/eiLTkQHCRMicO6mhwCQAQnSLx3BtcudHGrCjyuNiXRP3JcYngqgbn8Ww0Mm116Yt51ala6+9Js071CBfzSkwN1fEaKxcb4N05YoN1hKEswgQaME///nPi0NJRPdPS5xB8wWx7p02qE0pFqcciDcLFoQFHqNMdlqV5q+9pki7Hvf1l6tXpqcc+Lz0dw/YoVVXMrbKJttWD+ebp5YC4qbud7/7NQqkVV24LJAnQRT8Fo8RMyhgulOAMIkXmMU+ZhEgFBrj/Hzxk6+1KcCKUrakzBJAmPRakB2x//77FyWy21zSyhztnOsgtKHa9N972mmnFQXcysK311tfeOGFhdV0XEfH96N2lccMtCAEs64rlDT907q4bzirAGFxqT7Z3u2vVStXpot/95v0jZNPSuf/4Dtpwxtunrbbc690vx12SuvfcLOeWUB1AEEgJy1guV1MnFHkqlxqebHeQ7lm53i0BQjOYsillhdr1pZuv1/+8pcL4NgEIIzDxXDNNStTuurKdNrJJ6WffvXUtHp+Pm2704PTDg97eLrxzW+ZViidPLdu0GAjgOCmKPpRrqS4dKdjOkaWAcJ0zGOvt5hfsyb99uc/Tb884f1ph/O/mzZesbbV5NfXzqWLn/CP6U67PiJtcaMbrdNMHUAgaCdxYmXXMyPtassttyyazQCha+rm9habAosJEP5y0YXplA8cnfb6yZfTJivWpsSFq1ekS3faK93sUfumm251m3VcunUAgctTfaKBZzFEV1Eek480Vw9rtxQxeUydD6hqUsoAoR0tl9vdv/3Feeknb31VesSqi3sPfX4uffFeu6ddnvvPaeNNNlnrvllzMTi+WX2INkXXhl0T9uQTn/jEItW0zZUtCG2oNTv3LhZAuOiCC9L333FQ2vWPP04bFoUI1r18es5ddky32/9F6Ua3uNValoSBFgTN9TqLwXfAQUSb20zS0fLVnAKAgQJA8lL5nkxIXBkgNKfjcrvTnjrz4JenXX519sChX7PBxum8vZ+f7rHnY2cSIKCVmvKCeQV6TcJCIlBWJo1aC20uAOGe97xnwReb1r9v036+d3lSYDEAgn3zvQ+8K23z7c+nzVdd3Zdwcgt+/LCnpW2f/Iy0/gY3WLh3ZIBg4z7lKU+ZyKZdnkuj2aiZWE888cSiKFBYEtoABH6rSD9RLyBbcprRfbHuOv8X56VbHPKctHElNfj/XTuXtlgxn26y3vUjk9j3m1tuk7Z63VHpBhtuuPDFrFgQ1FTZa6+9CmE9qayWH/zgB0XWSNszAQAEICZfmQJlCiwGQPjdr36VbvjBw9Lmv/rJWiWJrlwzly5andLWG6xtUfjRqhukO/3HCWmjLW7cDUBg8vvnf/7nhbQeqPn3v/99EuDT9NCUJstIIQfVnxRzkPo2rZfiOJ///OeLetmuNgDhiCOOSE9+8pMLzYUlgp/IgVf9LuiQKZWmo1xtviZHgY+/88i07/c/vU6HJ/91Rbr9BvNp2w3X3rxX3nSr9PsD35DufJdtZgogWMfysh/ykIcsgF6BmNLG7nOf+3Q2YXHGh8OzVO3MAKEz0uaGUkqLARC+8ZlPpNt98dh0m6v/vNYcXLhqRfrflXPp4ZuuXVMExzn/Jf+R7nCPezcHCNXjN8tBioAAwRTaapzeeO655xb5nne+851HXhyEJoDA7wjNT3M1PQL7pJNOKupliyhtAxCe9rSnJQWGWBG+853vFFX3HvGIRxSMTr15jO/BD35wOvLII4sDjtSf9/9TTjml0HgAMIyXJUJbtKd8jY8C737BAekfr/rFQgffv3ouffLyFemi1XNpk7mUHrPZmrTzxmvSDeZS+s2aDdIJczdNl99mm3Tjm9ykeIa5nSBTlpnJXeYC9x7rk0jpqK44vjfotmWVIsN1UA5StCfEAuy4444LHQLAeIIjba3xUS99nHzyycU+cKaDCpbDAgT7y5w861nPWpQ0tVFpkZ8fDwUWAyCc/r6j0h3O/HS63XrXAQHVQ15/0XpJYb6/rEnpIZvMp0fdcE3arBQcffq+L0+77vmovgDBfsF/iiBFQp8pM8zeZYBw5ZVXpsMPP3wtgOBewMEhS6KSBRUNaxZ0at8vfvGLItUIU9DWNAMEs8KCcPrpp7c+rIlQf8973lPQntA3X9LGzJFTvN797nenl73sZekFL3hBMWc0JsyQSVQMidO+uIucdbD11ltPJBBsPFtxebR69Kv/NT3nwu8uDPbPq1P63aq59M2rVqRbrT+ftt94Pt1svfkk6Pi7qzdOh19zvdnPQwAkYG6j+h1/m/euiqxETnTdb2uH1Qkwsc787bf/+/F9m+qXBH7s7WoWwxOe8IS0/fbbrwUQAFjnVgC/Dp8ZlscA1I5o3m677Yrxq3+Abw0LEF70ohcV4IUFVXu77bZbp5aO5bG68yirFFgMgHDGscek25/+P+l289fFH7AQ/GjlXPrT6rn0i2vn0sM3WVPwmvVL2Y3ff9ZB6X47X19efKQYhF4AAZMSfEcjZcKOAKOmywYoufjiiwtQwAqB2QAKmEIGCPVUBBDe+973Fi4GtCc41PGnST70oQ9NL3nJS9IrXvGKAhgAEi5gAQgDCLgZPvnJT6Zvf/vb6Y1vfGNxamK+xkeBs874atrxg29Yp4NT/roibX2D+bTtDa53MaycX5Eu2HLrtOq5r00brL9+8Qz3HkHE4kOo+duP+uqsQfZmV1edoPeZfU4w+6n+3QYcFNrNmjULQh5TipMtfccyEhYR7bqX9QQQiePgWU1YLVkhCOYmB3qhk2PlWdf0AWyMChD+8R//seB5LnRhTTCWxz/+8WnnnXfOVoWuFuUya2cxAMIPvnVWutUn35VucfFv1qIWF8O5K+fSbhUXw8r5lObf+vG00U2vSzd2jQ0gRAeE1cc//vH01Kc+tbFGcc455xSarM0VjCYDhEv6lukEEI4//vi1FgJrDwb66Ec/Or385S9PL37xiwvGy2Iga+Jb3/pWAQ7EdgQjBjBYIASe5mt8FLDxzn/WHunOG6zrB9RruWTJyrQiffU290u7v+Fta+0h2q/66aGtE5xAeRfxJFEgTZthRYzP/AZAgBGuAWDe3/HbZ4TtuKthlkFI/N0WmBhj3TM+D/ATFhT/D2CEN1FY/AAlrJv+fsc73lG8e/WKZ7n3WBmmOZZqfLtm+ba8GAABf7jsyFenzX/0rbWsBKhI/aiWRTphxS3S3kf+V9pw0+szEccOEIrBzM8Xvm/ouiiwUFOxyX2Y3Uc/+tH09Kc/fR2TYRUgAB7ut/G0z6zaK3IfoTCt0ESW8jIb1sXwmte8Jh188MFrvRph8bGPfayIR2AtkLbFyhC52uaDlYGlhtZ16qmnFvTU1nKsxreU57VubN/60inpvh87PG245pqeQ7eR/3zjrdL6r39voTWXr2nNYhBbcNhhhy2swb333rtwAQRAYTUhYO1pVhO//eARADArGf5QvYqqlatWLVg86r4PYOA+fKqX6yJAUxlAeaYpKDL+t7/97evM6XJbw3m8zSiwGADByM76+tfTHT/1zrTlny/oebhywWPW3yRt+Kp3pI23vnN3dRD6uRjqNt83vvGNwl9I4ynnCEfcwpe+9KW0zz771AKIKkCQEigYEiJnJhenoO3wx2IiUL1gPOOUGcAqIQCJGZGJlq/ROGg+7gnfqb+5MmgCGEQ/UNNseTS/a1iA0LyHfOdSoYAjhs847v1pp3O/nFZcdknaqJLy+Of5FWnuFrdLv33av6Z73PNe6wx7WgFCkxiE8qFVQRjC+ayzziqyqmj15YJKvrPnHYRj33N7Vq+yiwGIZhFgXStbUDxD4XAvV0L554c//GEBUnpdxqNN7j+1ElhVF6Pe/lJZ/7M0jsUCCNbuFz7+0bTj905KG13427RJpVrrlfMr0tVbbJn+us8B6ZY77rpO7Y6BFoR+ZzG0AQgWA4Ym39/mIoxDCLME0GLlOfeyAlQBAg3j4Q9/eJIjTfvVxv/+7/8W/kQM4j//8z8LsMEioU0MQTyDMWuLlrLvvvsWjEQEM1/kNttsU4yBi4OJ/Ywzzig2NBAyqY2cAcIssY1UaLvnf/dbaYMzPpdutvLydNWVVxRr7YabbZHOWrF5us+BL043uvHaAYpBoVk5i6EuSLEOIARdKAWEuH1PIWBNEG+AR3AN9Ipj6iIGgauvbEWgXIjnwaPwJimbkyj0NFu7aOm/7WIBBJSxHs/72c/Sms98MG295or0179cVvgYNr7hZuk3G904bfiwx6Wt73O/WhnXCCC0zWLoJ0wNlr/yl7/8ZWEmtIFsmEGnV1UBAgsB8zmhb8MDHKEdMMUyNUqRlMrn+8997nNFNDHfOwDBJKl/VggMhKbwk5/8pEgtpGmIQj777LPTXe961+KzSV0ZIEyK0kurH2vwjxdckC6+8IK0wYYbptvcbuu02eab943bmSaA0DaLoR9AMLOAl70dvAh/sMf7FRDrCiBwTUjJxmf0KwOD9bJtfMTSWqF5NKNQYDEBQtnCdukll6Tf/frXUEO6xVZbpZvdfMu03nrXBT7XXQMBQmj+dac5trUglAfAhEdDf9jDHlZo6IPSlKoAwbnriqfws7MA0BBYFNynjsABBxyQBOk9+9nPLrqNND5ahMA8aZiYh2M4BXUBFZgHEAF88NtzW/DbTxLxZ4AwyjacrWezi6H/fAP6Rx11VGE9ZIUYZAXsAiDoj6VAIDC+lkHBbO3JXm+7FADCMDMxcYDAgkCoixuweQhfgpkJjm+u11UFCB/60IcKV4XnxBewJDzmMY9JPmc9cFQrCwIgARD4zFkRmEYZIAR4UCSFm4FrQX61zAuVCHfdddeJbvJRAAKB4Sdf00GBiJjv9TYZIPSe53Bb2vdinlgRKQH9DnrqAiDkUsvTsfe6fos2AIGLzHodBGi7GGME4vYCshMFCPyCSjHLJgAK/DaAiB8QqdzrgJMqQBDLII7AhscooXZBie9617sKzZ9Zz+csAUAEJuG3z7gWMANE4ZP83ve+V8QaCF68973vXQQt2ujiEdoe1jLqpA0DENA0LCNZYxl1BpbO8+V6INZl9coAoX6uzjvvvCIQkVWSdTCCCu1r/EXNhLorA4Sls/anbSRtAIJ4vEEu9y7pw90e9Yqq8neiAIHw4xYgrMvoCCM0QPn3zhOoE3K96iBEHrPfn/3sZwtXA0tC24JK0Y5+WCEe9KAHFe6PflaNLicp2moLEIAkfk5AabmV1x0H/aatTRaviKdREbN8ZYCw7mzLhOIWFBhY3rv2NxAtrkgsgpiA6pUBwrTtnqXzPm0AAhc3gDAp2SNeB58hS+52t7ut1e9AgBCV+QJZNCm1XDWNYGSyCp75zGf2LRBCgxcrsPvuu69jSWhSKElMBHDRtsxreRkJFlOuWBt+Jn21AQhFdOp55xU+VmM1yVKtur70QyOrY6pd95XbW5cCNGBmRxk75b1VBxAA7UnGzHQ1X7R7FkDXMGmO1ijewZLY79RHe0QqpIwl9CwrIxkgdDWbuZ0qBZYyQIixcq1Xqx7XAQSAokj9Lw5iqJRBbQsQoPavfe1rRU3yQYGIMVBIhsCzgeNqAhCmYVm2AQjcLOXiT7JDWGHaVK0cRDPCSeYH8EUzq14AFXdR5IpPwm82aMzT+D3wTHAKfIsrWxCuo0SRKnr++YULUVpjk0sWlb3j/gAJGSA0oVy+ZxgKLAeAgIf//Oc/LzL34hpoQRgWINi0fCkuPr82gsNAmVlox+IJ8lkMc0VqaDW1y2T6LKoeCv40oQCZU+6a1KPvt9gJIJodHxULgjiNWERHH310UcJZ4Kd+aGW+45oxhjg8aJjNlJ9ZlwLmXzwN61oGCBcW6976xCese2mFbS1+AIFy4+KVxCJlgJB33rgosBwAgnfnoiufkDoWgGCjqSnAD8jfN2zgHK1AJsIOO+xQaLH5NMdbrLV+6wCCSG3m6B//+McF46uW5226AQKk8X8z27IglI+APvTQQ4vyzVJMCa1vfvObBQg058YlqE4tiTbAsOnYZvG+WQUI1qEUxXL8RZzsijcACI6CbmqdrK4dIEPGUgDqUQ9rylkMs7g7B7/zcgEIX/ziF9dSQkYCCHz1RxxxxFrHPdM2bRJBgl34rKUe0hBopARO2+DDwVO3dO4ghLkYBFIBVQo0RenpphaEAARSP9V6uPvd7976XAVMGSDjz1YSFuCrAoRDDjkkvfCFLyxcGqrDQZ40ONYEFS1ZEjw7qUCbpTOL4xnJrAIElsgnPvGJaaeddlogLIDAvQYgWGejXpgggMt9Y/9wOwx73HMGCKPOxnQ+P7UAoepbLscg8E8zM6sV4HKv+gaEejl+YNQph+pdAAJT4DReaKcSJICgqpxrFIDgeT5r1gSxA20OX4rgZyjiAAAgAElEQVRDb6KCZB1AYDmQkcJSIfJVcSqWBsEr/LuYLWvCsNajaZzjUd6pKUBg8eGLX24XxSKCK8tBiniM9Oc999xz4b28I3cLftDVJZZGu4IXgYQMELqibG4HBaYJIADUFL8iSJHgsklDEywDBC/uZhUMmeiyOXm4zYCGtCFauN9Bx1EBQoAEZlhCXFDWoAtIMR4VJeOqAwiD2snfd0uBWQUIqAhkskZRRtoA3VFmIAOEUaiXn61SYGoBghflp6srtRxE8D1hFgc75eXRnAKYXwQDcguUQVYXAMFIuAv8EPr9KsnRyvRfdQ1kgNB8Psd1Z1OAwNqmONByu7izwvJRTXMMHgTkcmOVD0Ma13tyY1B67IU2V3YxtKHW7Nw7TQCBwYCcGJjmWJ7ecEXMzpR396a9zp3vCiAYKYYn6FOwV53ZP+IeMMQqiMgAobu5HralWQcI6DZJHiPmRt0WWVRtrgwQ2lBrdu6deYAwO1M9uTftEiAYtdgG2pnUxPLleGsFZGQe1FkYqgBBtUqxIE0CELksxEA0dT9FQSB9CoKN4jnl8WqTNjkocr1s+arOGp93HNDl/culjEND7Tp+gpDn5ulnxem1ujJAmNy+05O15zyXDBAmS/dp7W1SAMG6ZUUcdNppLzp3msUwrZO5VN6ra4DgvQRicTcQsC4piYSPlMheAr8KEByAxV3xhS98YaFGglRUwIHQFuQojkHw6re//e0i5ZVg9B0TMXARZ3AQ0u5jFo/jeeO8jqhqqd1Ic2MFod2Jq3BSp4BY5ukIjtS22g36UhlMKqZFry0V9gShCaTVpjZkx6CJdzQ2fyvu5W/R7KLomdRkk/z0pz8t+kM7QEbGhuf0JQXUuP1fH+pC6AMwiroQfnvWBna4mO/FnKheVi2jXF2DGSBMdldmgDBZek97b20Awsc+9rEiyBtvwLMEfcvew2coF3iUDEF8jFva2UL4A16Dt+Cp+FGcO4Lf44vlTKCJAwTaVtca17Qvmni/XrEb4wAIYUkgVC0oi/DBD35w37mrAoRTTz21AAgyLghR2jh/LWFrDRCegAHB7yAsaaqE7EMf+tAi51y0Ou1epguBqVaGRc9aACRY3Io9+U7bhLJzMTxH22cFIfAf97jHFcW0ohAXK8jPfvazYsMQugCMsz0+8pGPFOOLktH6juO++b0dO24j2ljAjc+AGvSxqbQpEPdTn/pU8d7acQ8BjzZxSqBN7Dsb2mff+MY3CnBgc6KBYlN+s1aglU3uXaD9QZkHGSBcF6w4KR6D0T796U/PFoRZYcJjfs82AOG0004rrL0yd2SLOVVYQa9QIvARfBEPwZtkkjlenGVVEC9eiwfKIqOs4JXAQp01tvrarS0I/dIcNY7Z0v4clywn2aDz1ZwC6EcoOWjKRPqJa1wAQZ+0YeDAIhxk/q8CBIJYGywOccgVdEsYWohx7LR2/c3iICWyGlzmGT/B9Gnuno8FbaG74j7P61u/8Zn2F4Jm/hbw6bPQ3CFu35czcYzT8z6zXsttxJrWV7gwfG9c7o/39Xd8H/fqM8Ced9JPVaB5RntxlDMLhTEMcpc0BQgAyKQi/Zuv8sF3YohR46QapIim6C8+Rsl2zG/cl1oeGCyg2ebKMQhtqDU797YBCBQsyhAeg3/hEXhe8NwyTwmeFDyo6h7Fk5ryGLPRGiAEw+yVxUBTetnLXrZwuFIw266nXv+DBFnXfU6yPYzdIoIUY5LHBRAUmQEQmLktQNprPwFVF4OAYYew9HcABDQLIWktEH6xwGOxMs0DAQE+LX7CNI7uBgL87Z4YV2iP7mVWY30IIBDtuMff+olTEMM0F5+7R7vASNTU0KYx+q7I752bK54PEOF+LhL3+ExbPgvgEPdFOwQYDZSZ2kbnEgnzYNDAZwS5/9vk3r9fqeCmAGEasxjQ5e///u8LLSnmGL26vgK0+Z3THLum7my31xYgBG8AnGn+wQuD5wavwRdYcfEiFk38LvYIXoCPxuGF+NGgVPdOAQKG+cpXvnLhgBSD5/9lLmYm7socqE2XQjzDBHgtl6XJksBsz6TuGgdAQEu+K6ZyTNYCI9BYgXqBhCpAUHUuFipBSrMjbGVKAAvcFxaj+Wc+55s3bwrb6I9mBqQE+AQy9aFNY7HQtUuI2yjWUyDle93rXumd73xnUX6bcCWAPWMjAR6xAQhgbgpmuRD2XBnGxy0BpTPdeWebTR8hvN1nLnzufmPVLxNeWEeibr91zuQXIAnQ466QFSJtlDuBOVDbgJix+h2aJvcImpgXffS6ZhUgWKOOb2edDAXB3AK4XDRd8RhrxDxr0zrKAGG5cM3lMc42AIF7Niyb/sbr8B1804Uv4Yt4GMszOeF7MVcREI7HsBBby/gK/sTlyVXa7+oUIEAob3/729cqtUwYYHYOT8H4R9X6MVfMOqLsp7nUMiF40kknpa9//esjl1quWwRoKTCP5SACEjFbnwMI5quO4VYBAuYpViCqz/HvW7zMsgQ0DZ/ABui0aeFa0My1vrd4mZEjy8D/zS9gQdhaV9YRgOD/hIG+rKUnPelJ6fjjjy++I2z1AYRg7vpQWhoAcj//nLYjgIcbzHuLizAu8QXQNXoT6sZAwAsQcmy2+dAmIQUE6TesHZGNgDY0WyegGQNwYwwnnnhiEYvg/gjQ1D468wvqx9jCMuHZqEhaN3ezChB6lVoOv6u5H5XHWCvmypo1l7nU8vIQustplG0AgmKEeCCFCf/wQ8Fy5gi+hcdQjPBFFmfr1z3AAB4DXNz+9rcveLn9gzdTZBTik7o7MYBAuBx++OFrAQRMPwQKJm4DD6P1Y84IQWggit/5sKZmhzXVLQD0oyUzzUOT5YuwAhwI47oiO1WAAFAQWDHXcdKjaFmLMnz+ATjcq99IWyTY9ed5C5j1wVzT3H0WB3Nh2MbqNyHgOcCTBcAz1lfEGhDkrAE2jvfRhg2jfSDAWrV+3B9pmsCmtUnTJxhsSp+5B8i1QY0ZTaxjwYwASfj0CHi0CauA8bD+0EIFU9qovrOBw5fomaB1WFuABM9qO1sQrisRfthhhy3EUjisSZZNXCxVGB5ao6ufYeMurE3zg7ECBvmwpuUkdpfPWNsABPwtsqPwOfwB7ybo8RS83GcUIes2YnIiDiHiFULBCXcmxW1Q4a/WFgSd9iq13AsgBNP2IqLBbe42R7HasNLvEMRzCMCKgClMswXBcudiOP300wth15WLAdMjNNGu1zwQmiL76867qCuURMOmKVuMzGAEKNQaF4EX6NdntPCi+tbc3Dq7OoL24rtqYGwvNuA+72Yd6t9m0UZkU5SfI+i9IzDTL5A24ifC3eI5NDN2Wn5EAi/UI//b+zQd87AsrakFYdrOYkCvOoAQxz2HtQkY3HrrrVuRlxuIVQt/wXDzcc+tyJdvbkGBNgCBAkHRCStpORg6XLtdudaqr9AEIJDPBY+NsxgiGExj5bMY+gEE93oZaJ8wYYYeFKkdz3z6058uzK0RqOHzDBAuWaf4Ra/jnsuTbpEBB5AoJtpvYRGg3AQAXdnqUwUIfPEWPP+5diPPlvD0nPsJNKZ0zJf5PQQq7RsQsQmsn0jv0w7hbWNYJ8ClH/ezRGDgXAasCfoDFqVNAlM0fGAyzPUEugWsfVqhLArtEvAQtPXMPwdQWGOejcJP1qx30A/6RgqnNexdtKcf7xP3aifeD43VQDC+OO68BR8Z2YIwjVkMvQBC8Asgwbq1HssgtR/dpZIBFH7C3ZYBQhcrNbdRR4E2AEGMF2ti1DUIHhn1VPAqVjb/9x2raldXE4DQuNTyIIAQgyZ4+KGjlnqvl8G4P/GJTxSpTHGyW9ybAUJ7gADpMZVbUL3iC6pzgdmqH7DvvvsufFUFCISle5jIzZXgF0KdoCZEAQDtAAwsEsBeLG5jshbcQ9vFoLVPmMZC1641Q0hHBoB2+Z1tGsLAxlC8yHrhmrChCG/vS1AQ2iwm2qIpCgr0vTgEAIMLgDAHYsK9oJ1IgWS+1pZ1JxX0c5/7XAEu9O8ZY7NerVPvZLzaAxrQRlAdILX33nt3snebWhCmMYuhH0AI4lonAJ110C9A2vyIobF+WA/K8QsZIHSyVHMjNRRoAxAoyAKoIwVeQHm4HCKQOwCxtfzYxz62s2DdRQEI6AV1YHIiL8tlbYOWtEWoCIio+sjrLAgIxQfDhSFKk1BoY3ZB/KjKp30CTgRoEytHrx3AR00gjoLounIxoDfrDU2aoG5DG1r7e97znvTCF76weK4KELQd9Rq0HylnZRdBmMIiSyBSb8IUj4YRpBi+s6gj4DtjqLok9BsxDn5bJ5F6GGmQni2nO/q/8YXgL/vnfKeP8pxX3RzlVM0YT/meSHuMNeFdwp0SaZBdcMwMENaOQagrJWt9sPj4EYhbDV5kXQH6AEeWo+qeyAChi5Wa2xjVgiBAG88OXlUnk6IOi9918nLYWVg0gBADJrS+853vpEc+8pELOeCEPE1MIFsvAV21IBxxxBFp5513LoT6V7/61cKMLlc6TL+YAwIzsYfw8FkwDZ9/8IMfLAr4RICbSQmBE/npkT+vLVppXJEvr78QIiHo3BMCNOo3RN5/FMXRT1xlc34XAMGiYcI3tlHAygc+8IG03377Fe3Q0GhmIdh7LUA0cAUt0MYV0f/oWqZF3BdxLgEgzFm5oFD8HaAi2i0z+XK9hep95bkpjy/6DRdB1CSIOIXye8SYYm0EsCyDoTKI6bJoWAYIgwFCrEnrQPoXzSrqdbBYsfqIm+k1LxkgDCtW8nODKNDGgsB6yd1aVXbC1R+8L3hXG+Vv0DhbA4Rq8FWbGIRegxFNyQfMkiCCXNQ3U3O/F60CBFHOTI/8wczPTOhMunzSmKk2n/KUpxRpcXHMsVQ2/3cBCNLWABXmRn3zUb/0pS9Ne+yxR8FIABltsWpgNs961rOKvzEYfnV9SEsETpiSgR9maKZz5X0jcI9fVMlMnzPdM6dLD6XloMNBBx20gAJHBQhoAYES6MY4yqUNqTHSAQGdAAiCEgOAoQVaRvqNv71npNfQ5jzL5H7mmWcWY2Lud8VZB0CMtElzYfGbR+Z+TN0m2G677QpLkU0jwpcZ2Xfa1X8UY5KqJmfYmkBXgI87IYSEOWWlMlb3Wn/Wi7nznkpOcxWIIWAJivoI+mWtMk7tOeyKOTtSiyKl0zPAKleL1Ml/+Zd/aWW56TdXTQHCrMUg9KKZdXTccccV5biBZetBHFQ/HpMBwijcIj/bjwJtAAJwq36LNEZykUsWz7OOpTpytVKy1Hkhk4bN4Kkb71AAIUrfarALgGDzAgn8J5gqodvroKB4iSpAoM0zg3NN8CETYiGs+Nzf/OY3p7e85S3pH/7hH4ox8zkT5q961asWAMLRRx9duCcIlCi68973vjcdeuihhZCNFLdDDjkkvfrVr07Pf/7zC58318Sxxx6bdtlll0IrIWD4fgU+AQgEKD+1dgkjE03Y7rXXXsV9//mf/5n233//QkCaEAAihHlbgMDqEqmJhBuBTEAPSmdpup29n1xbwtVcuQhTApLVB5hSV0DtAEIcyMKEvY85Mj7uHwI24hMEEQo4NFYXwESDx8DjMBKbIBC0bA50I+gxcf17Z38T3vpBXz/iHawVa4rLx/zGMdfcW1FwxDuhkfcA9AAU6wgI8px30AfBHBkgNimw4jPgRL/ewQb2vvo84YQTis+88+Mf//iF4MWyC6Qp7cv3aROYRqO4vAtAFsGn/m8/VON3hulv0s8w/UeGSJM0xyan1dm/AlStO9bGQenWGSBMetZnp782AAGvxEeBA7yGPMMPyUgKkPgDcWD+TwmOzK2qC3QY6uKtZR6DL1P27J2wvvs/XlxkMegkzLVdAAQdEjpR2paG6O9BVRKrAIGGBhQYIq0No8fcCQmM/33ve1+hpQMIhDqCEr4EvQtjpWEQcJE6iUkFQBCURqDQFgGJgw8+uDgZ0GFDBA73BICAIYeWIliPtQIwcA8hxDpBG9YfDRkKfP/7318gP8JTQBvNNKrotQEIQAz0GCWDCTILqS7GY5jFEs+gAwFFOLritEbgpxqLEGuFcDW3hJcff4f2DxwCcwE8MXufBUiKoL84SdHa8L02WWn833h8H+4dz9gowIbfLAwAWJz2qA9BaebYxoqURxvRYo8TFrXnmbBKaMe4ojgJIWaNGYdNAygQLOYcWIliUZ43Fvd6/3BJDWsOBPrQL+Yg9mUVIMxqkGJ1fQcYDLOstWL99EuTzgBhFC6Rn+1HgTYAAf8B8lk5w2qJl5E1/u97vB4vodSQKXhxZG8Ny2PIUnKSzIurDiB0nsVQ7oz5OMrTRu19AgdjI9h7BVxUAQKhDWHZ+JHORmPAGESqf/jDH04HHHBAYb73N8bNzO/cCBftz7Gaj370oxeYBuR2zDHHpDe96U1FGp8+MWTPH3jggYVVAqig4fiMRYAbwuQR1CYqtF1tYTgurg3Wkkjjw7Siuh9Bx+0QxS7aAARCkekUHdCyHADY9Xa16EYJ4Ox6PG3ai/iCNs+410YwVyHc2z7f1f3GASARbuVCVnUWhAwQUgGSY9/FvrDfgD2WnV7WhwwQulqxuZ0qBdoAhKiDMMiq3jWVKSCUVmBj4gABM6Nh08BoZFWUw+TsHubeOlNgFSDQnPi0bWobngZO2GrHS7JS+BwK23333QuBTGgDD8H8tcm8H/2FBs6MA6VxDdACtUv7xHi05T796NM9AUqMBRM3sawaEB3TO/DA/G7iAQ4ASa4rRMgVIRYhrjYAIbR5YId5e7kK8K4X+rS1BxwAwvZG+coAYe2ZBpDtMwoDS141GJHVh9WNFlaXCpkBwrTtnKXzPksdIIitIue4ksvZPxOxINh4TO6sA7TpXhcB6iLwqtH3uQ7CunUQ0IqQYCbnYjGxcaDH0tkaeSTDUgDI5RK5//3vX1gOqhpFBgjXU5bCgF54DRdUL0skUM7KEum/uQ7CsKszP9eGAm0AAkW07PNv00/beym7gAE3OCW4um/GDhAI9vCPNIm2pCkZMM1cCmJcGSDUA4SgD3DFKsPfna/poIC9EIGedX7FDBCum2fWPu5FFkOuukGHN6ErQCGbpnxKZLYgTMe+WYpv0QYgcIVRCAat4y7eEwDAY8TK1VnuxwoQonAQrbaNPwXjY3EACiI1KQOE/gChi8WS21heFMgA4bqDnbgOpYUVkdU1Z33UzSp3BFAh60TAcBQEy4c1La89sFxG2wYgLFYMQh0txwIQ+MLFG4gFGPbMdhuYb5/5nH8dI8iHNa19muNy2Rx5nOOhwKwDBDEFzLHqVwyrbQn0FffzqEc9qghKzQBhPGt11ludSYAg9erII49c8FsEKpcXztQnYnjUC8rHCGxcwY3TfJoj06daDQIYaTSDTnMM2nqOJsTEGhW4RqV7fn7xKWB/yfp59rOfXasdzwJAYPaX5cMVEBd+gC+gjyDfUS90FMwcx3bbQ7KOKCRtK5FyW0Qg9Kjjys9PDwXaAIQoRDeJoHP7iAXO2Q+y4ap9jmRBAAie8YxnFBp+1L93MA5E3uZ450HLALKXDeD0viZxDIPaW4rfY1KYkroIAkdcTQCCoCsBirIjhtWiliI98piup4DIfOCvWgBpFgCCdxSL5CdSgcUoUUy6jLfBywACYASdM0DIO7BLCrQBCIvhYpCVp5ZL9UyjkQACAhJm//RP/1REQTY9MbBLwi/3tjAmAVNcKGoq0BjDjzoIIGCerA0KWyiWxFwqkjuOB+2KNtLGBLI0qV7XVZ+5nespYF6tC0C8HEg0CwABFewP6cXiDFgQJ6FZAQhSsrMFIe/ELiiw1AGCd1S6maIZQNxnAwECARaHQnigXGo5CIeBqR1gM2Uttt1ywuSlsrG8MKeWg6wGAQSaFEtNlNoFDlgTBIV2VW4Xc1ZdSz/K1boEkDLvGismKtaEqSoiydtRIN/dhAJoW6426Zk6gGBeugaITcY36j3WcqzZaqllbQOo6o5wKXR5el2vcStAxlXQ1oWRXQyjroTpfH45AAT8xLovlyKoAwhReK4otdwEIJhS98VJftM5xeN7q151+gcBBJWvaPVRXY81B0BT9IK5dFSQAPgBBzQ2/qk4rMm5BZ/5zGcKjS7OXXAfE5U4EQDCIlNhMl/dUIAAdebFwx/+8IUGZwkgxEtPis+wmjkvRQ2KNlcGCG2oNTv3LgeAYDaMc7fddluYmDqAQC6oIzLwLIbZmd7FedNBAIG1AECIuAwAgZCmbRIoNMlyad62b8F9IWCLX4p1IwCCdhxo5WwKh+FwcTgbgzVBnw4VEvSidHab9Na245ul+5ue5jiNpZYXY57tIfFVGSAsBvWnr8/lAhBan+YYpszw+9W5GKZvOpfGGw0DEMSB0LIIijj6Nw5zavNWFsq2225bVNcCDmhUdQDhlFNOKc6zACZkUygbjbkCFfzF2eXUhuq9780AoRs6Nm0lA4SmlMr3NaHATAMEpk6aq9MNJ+EfbDIhy+Ue8R3SQqW2VLX9YQFCgDoAIc6HGHTUbZlewIETIcUWuOoAgsOvAAi17cU8KGQFEAAj/ODx93KZh6U+zlkHCPYJs6aaB+XDZMY1b3yx22+//cIJo037yS6GppSarftmFiAQHi95yUsKgRDBcrM19aO9LW2fT0dglkUkEC2uUQCCNrQtcNFvpv8m2rwDsARmlesp1AGEOPITOBSHEP8vW5yaVrUbjYKz8fQsAwTr7/GPf3wRpEgRmVQWA/ddzmKYjf017recWoBAuAhUiJPRyi4G3z3lKU/JhUE6Wl2qT37uc59bCPYcFSDEsNT2xliBhH5CWyodawCwV76vDiB09Mq5mYYUaAoQLrvssmVZTEwmjxgWVzmLAY9R/2TXXXfttO7BILLnOgiDKJS/b0OBaQIIXMlFWfMiheFv6VR1MQhM2G9/+9vXqqQowl15ZBHuXQSoAScEF01YKuU0V1KUyqVQ0llnnVWsva4AgrYUwmAVqAr/mF/VtOS/YtJVDS0DhDasYDz3NgUI0xakKPZF8SLuy7hUUlSM7QlPeEKr8xd6zQw2h2dJNVaxUfbNsABBWnC+lh8FWELxuXFdeCol22/rrV9c2GIUSor37jRI0eY9/PDDF6wLXhyhaazM5o5dlT8/rKmZwIxjjON41mkGCCYJ4zv99NOLhdQlQNC2uAEWAsGGMSdRhyEqydWBuipAANq4K5rMK4Yp/qHJvcYYKTTG5aduPE3b9E69+i2/g/frsipfLybThm7VNmYVIKADICAeoAwQxCEoLCbLAI9p4j6rmxeuMdVIxQ6o8zHqWQzjEjC53fFSAED87Gc/uyDLxtkbviZDphdvGgUg9OObTd5pIgDBZo1z1/0NkbfZwBg76wRzqReWg59Pc1z3NMe6NMdBAVy0JCBBlgE6ozGTEeDVK8C0ChAEcAlglEoZ5ibuC8IdsBEB7lKHgUVJ8GW4qKwDP1Ffw9+sFr63ZgQ4Rplu7UDaBGu4R6wLANT/ZUwAC8YQ/WoHsPR/4xNIafMTBCwk6APYski5B3hBR2vMWLyD/uLo7BgnekUxKO+jX/dr16UddLJe9aH9aMdn+vJ+/Npxj3FqJ84A6LeBM0BYGyCgI9o50A39uNDKFeCaMENr3xxhyKpUdnHcc5N+8z1LjwJ4AsvUHe5wh7EPbpCCw2JOuTYmvATPw1/wouBR1ntUuPVZ8DwA15pmLcZz8HT9+d1EuZ4YQAhtEPPFRAUYNdUigQFCAiOOyP4MELoBCOblW9/6VrFYMFlCLwJMe+2MKkD40pe+VFg3TjzxxGJuLT7al/sIaIWSMF318wESPmWWAMBEECbhHtq0MdAOLXLMPoSwhY7hAwwEPdOvNUHTsxlsZocYcY1oy3cKRBHw2rBuuGpe9KIXFUWdWE30pYCTsRG4BLaNZrzeARgBJlz6BXCAF+Oixco00b7ANZvTevbbO7vXmIEVmxqI0a5NHWZF9xmDd43gN7SRSkpAZYBwo4IE1UqKdRaEKPtt7s2Z+cRUm1aR1AfGqZ14JgOEscvGJdvBIIAA1CtMZ89TTKwVvA//iAKB9rn97//9ziIaBBA++clPFko1nqkPP54h9H1mLPgNvoj/GXvwLN+F7MSH8Bb7w98y0wZdEwUIBoNYCudgjgrn9LMkuJfZEKOm+ZXvzQChO4BAyKlbYLFZNBZ5v6sKEMJyYcOYK9/bNOZPmwQlAUkYAwSO5HXst8XKohCbihC3Efwm9KFki9kC97wNYfFrT1s+Z72wWfR197vfvShTDUhYX4SF/9uo2rRmlMvlT6YZWE/GaxPRHmMj68v9+vd5jEM7BPkf/vCH4rAw7xHVIY3FmNESuNC/cWjTxtUGgKAv32Mc3BjGGBYToMX76nvQHGQLwroWhFizaI5RAo0ycPqBBPdKKzZH5rRsdcgAYZD4mN7vBwEE+/bYY48t+BueYn+H9ROf8H3wFHs5Am7rKDYIIKhKG0DEKaOAL+XHeUf6wsOM11goO+GSwEuMC8/Bj4CCsLS5t8lBhxMHCEEgwgSDjGj6KuEw0J/+9KcFAWzcqrWhDiCEtjmMebHc/2mnnVZESje1cIxzm4wzBiHGjRESXkxXhBMw1gYg2AyuoFeUig5TegDDOOGTtsaEXy7FXX422tKu+ddOuCFCA4/xQdPRX2jm5X7dV069tFH8v9xOfF/W7qtjj/70FbEQfpeFUrxDxDrEeOKecj/l9uL+aNtzg9ZeBgi9AULQFhONGIK6YFzrizUII7/97W+/TqBYBgjj5GxLu+1BAIF8ksHnNwFNecE7gXx/WztOXQVOCeN+PHUQQLBGoyhdWBGCtwSvCF5ax2OqvDl42yAe47lFAwg6Z7a1gf0uExDzC0TEDF13VQGCEr82PM1QhL6JicOE+i3Fc845p2DGtE++HhqHOg7vete7BjLpSSzxcQMENKMJY5CEJ1BGi3KGQq+rakGwEXlaWW8AABNjSURBVCzgWHiQqYUcUcA+D7OYeWHKBw798M2LX7AGLHIauP6BPWYz/6fdYfA+o32HIAcatPGpT30qPfKRjyw2K8SsL8+FwNUeS4J3C7Tvvd1rnICRAk9Ai2dseGMMdK4fY0Afm9lY0ctvz2tLG2WzH2uCsXkO4geKotgOC4X3oFWwPOgLQAsNVjvetVx7ojoXGSAMBghoZl7MBSbLYhkXvoOG5sh6rSsclgHCJDjc0uxjEEDA06ypOLgQj8ALrCNryufWHp7h735WrCYAIVwUkVmjbTwEn9N3uF+5UaUA40mss1y/wQfJTDyHFcFYWdnwsX7XogIEA/OCmCMmyffspTBoQqNfxkMVILzyla9ML37xi4uJwLgjYOzTn/50YUJ81KMelXbaaaektsDJJ59cMN/HPvax6atf/WrhS2YqJkQOPPDA9Ja3vCUdd9xxxef81czZj3vc4xbleONxAgSClmuh7FawWM0BgVw+xau8iKoAQQwDGluUNsOee+5ZLFgCEfP1HbMXmgMS5toPABfln6OAkzmPEym5orghIHPjjHVh7sPV8KQnPSkdffTRRd8WvnkEEglhAMMGsJGtJzUlAMFYO86MAAKMH7hwKIl1E7EDNjtLl3MkgEdMQXva1o5cZtqnDehe74I5AJlcEb6LOAN9ALERGBmuCHPwmMc8phiDwEexB8YLWPSr+58BQjOAYN1akwAXy6B9jLaUCPNvrfUqtJQBwtIU3pMY1SCA0OUYBgEEsgjfsI7xUWuW0oEHsZbjP35zKXzsYx8r1nNke8XflA88xz077rhjAS4UwbMfljRAiA2MaRPIghebHOpTBQiY9utf//pCCDkLgPD58Ic/XCAmBDn44IPTm970pkJoYcR8OU7DIwgR7mEPe1jRv9Ktz3/+89MxxxyTXvva1xY/hBMB9rSnPa3LddGorXEBBIIJOoQ2qwE0EZNAo/ZTvaoAAaBgRfAcoQhwEHQObLJA3U+Li8wAQtf3BCphSrCz5BDyNov5gW5tAIsfaib0zR0/mpiHSHN1mqF5Nu+eZXEqThabmys2AUuItsy193RPWAisswABnreJAJp3v/vdxRqyGfn59AkgRAocsMES8c53vrPYqJFd4f2AU+8jBgPg9F7G+F//9V/FmPSDTjY0IOIZAFlMhr6ZxSMjxBruZQbMAKE5QIj1a72xNqEzEDuo3HgGCI1Y1FTehI9JA8eLxn3hB/hgr71+xhlnFIDW9xQsY8Kb1BbCR1gn8Zyvfe1rhSWUTAMQIsshFG1KkGfxKPwGQNhvv/36WsoX3YKA+BERilESBLSvQXnoVYAQflybmqYYwW0sBBEE99a3vjW98Y1vLNpGNIKChorwe+yxR2FdACZYEd7znvekf/iHfygEhMv3e++997jXyjrtjwMgoBXLCsHVKw3SPYo0bbfddutYTuoKJQX9vUD572EIFmaztiV0rSOBadB/L+vHMOPp9UzEUnTZZtO2MkBoDxAwRsyWlSm0r370zgCh6WrM942TAqPUQRh1XK0BAuYfQWM6L5da7lUoqVemgrZoUUx+BDYURNOMvE/aVi9UVQUI//Iv/5Je85rXFBor0zQkBUVBU4Q+zRFjeN7znpcABX53/hoaHM2VDxsCY052bHFYEP7t3/6t0BxpG02iPkedkOrzXQMEdFB4iXk1UsN6jdn8MMvyY5VzZqsAwZy5T2VL2rtFBVhFKmvMM0AWfjo0DQAQrokysDDv4dczvsjr9Xd8BxFH2o+2mOFYetzLcuR3WBLC5WR8Ecxq40HSkVVQbjsQeNAm4iMIGSjemLlJIngozp7QTwQvxoFCaB6mvqj/MOo6aQoQwoUzan+Tft48xpprk+ZYN07rlRWJomBdAqD4g/mhjPSakypAAKZ7xURNmj65v9mhgL2On5GvcfZIxBWgQvC2kMtd8RhtDwUQIhhsVIDAnOrnPve5z1rmPi9K4ED5NmQdSKgCBOlzAgsRBxBwmAuhrhoW5gAk8DG/7W1vKywICI7ZAwjAwu67715oF0zHYhTe8IY3FGZpz7My+L7O3D7uZdolQCAYgSd+dO/U5MJEuV7MRQCkKkBAN+AKACAwgT4CEZ0JX8yeMNWGOTEPIVAteu4Jmj9hFgWQbARzb6w2AGHON0/oAwLmWA0EZnyuB/06B4QJ2XfM9GIQ9EO4i2MwDoAAqNWGdWztoYu2woRnnsMV4D7vILVRkKMxPPnJTy5AFnoQOFEzwXt758iJNm79nnTSSQUY88Mi08XVBCB4d+/cL8Wqi7GMow3zHSmkowAE729uwxxbBnxcXeZegHSdxbIMELi1Ik11HO+7mG0CTNa3Cx3iWPZqxpDv7Rk/kYbrb2A6wH644cpHwTd5NzxfW/h3KJT4QVg4tYtfx/6P1GZ7T/+exUtCqSgXYwvFw/6M4Gl8CMjHs/TpnqjFUlZGjB199O9z70WhjawqdIiCcMbi86h/gOfpJz63Z/WjP/1GzRhjChkXvEMbvo+aLviW/WBfmCN8KWrD4ENcEN7fe/eLXWoyF+V7mgAEc1G4MQadxdDUgmAxAAYEwyMe8YhaABABdHe5y10WctLLA891ENrVQbCYItvAYmtzWaR86Z4jwOsqKaotYFFbnO6N2gMWP+YT2Ql8YIBCbEgbgzvIprN+CPWoDUCwhRZu/Ji5vj1jk9ECbUAAwYZjwWAV0oZx+gnQoZ1IdcPoWanc5530L4ZFW2IKCH3MKJiMsRI0NkIAWvU5AjDauN4PA7FZg9kZp8/jKGx9sFB1cTUBCMYxbWcxoF2/QklB26htYS0C/dWj0+M+jNX8mstqUHQZIHQxZ0u1DaDXGTqRzSWg216JTJyygmbP2QNR6trfhGbEMQFS9lOTDLIyPewT4yD87Ev8g8tXYLnL3hfrRCHghtavOY6ibmIG7Gt8gPBkvbT/w+KtDXyCQKdMUgDwBq5Ia8N9eJDvo25JVD51nx9KjAJtYqIizol8whvKWUn4iDYoVqGoGBclKsZM8fHOaBe1WIALvBIf9P7oH5Vk3Y+XGnsUVTMvEWcQ1WSB6a54DJo1AQih7HUCEEw0puVFm2hTtP9YfKFRGHgGCM0BAprTlmyYQWktvZgYhG4ubCybwSIOLSFM6rFgo426/5fbj5zd+B25vXUWo9isoamUawdEDnC57kAwhnK+sL7LprmyhhRtRN9+R42Fch0GbUSb8Xy4S+I9oh/fxzhjI3clJDJA6B2DEGmikUI7qOgUwRRzhseUtbmoo9DVvC3FdroCCAQ4erHWDnPhMcAFgQloCw4PgBD7uY43xJ4u793oP/Zf8Kgyj6i2haeFRSJStuN3lcdEu/Z+8ITy7zJPKPOMcp/BY6JcctRoibXod3n8Vb5T/i5ooK1ebvlh5mSiAAHqc4UboOmACTgIyRX1EjJAaAYQ0JoLhTCPgMymdK/eZwMRTLGJAiBA1rEwo/6A/xPqFrGN73PmwjiXAVAJwGFu3Ucb8Nt9NAXjjdQeWgU07QJSMBKaAqTO0hBnKfg+UnygcRYL7THNAUgR72I8TP6REht1F6xRGQiQOEsChuezAKfxHvqjeTAj0hKMx8akAXlfY8PkAGEAV9bMsIyzbr4yQKgHCDRJc20tmZ9e54lUacpaYG1YM2GizRaE62p5NLEg4DH2bhOlrx//QXNr29wBHAEQ7EM/5jNM78YWbj28iTAPIA4k2pdx3kkcGOgZbYdgj4qnEQjoeWuAlSLmP9wG0b7P8RT/j1o+sqWiciIeoR33cZMS7GGdYBVwGQerRFhfWF5ibGE10L4f78ayaVx4iuesb++OL+FFLjxGbNmg7Jw2/H8iAAGBmPJMCsGAebZFOYgURXykhMitR9wmB060IchSu3eUGASbw8KzSC2wtjSv0sKiJ0hpHBZhmLqYziIIzIbmyiBkWS3ikCKb1WYME2KgZxsHkDCfEXDoXptA3Ee4ErSjb88JmoxiSzaTuIpA4Ta/vzEIG0raqs1vrNwg1p+2mBaj3kHEM3B98Fd7BylAwChtRryB33EoUxRIYpY2VkzLxveDKdio1qhUTudT6M+7HXDAAZ0tL3Rj6kSjuDAT7x1MfdZcDNYEQWXt1R1TPoj46EXxAOqcG2I+swVhMEBg2ie46ireDqJ53fdRg8A+kmnlAtitd9YgZn28INKh7XN7LPYoeQP84x2xN/3Gl+zdCOLDS4wZbyTc8Rzt2+/77LNPodSESxN/sressZBj/g63iFgm/7dmKAh4Tpx1QMHAb/ThHmMBMLhrKDvcIQSx/o0bP4yYEOPhBvVOZF0c1BTxMNwJ1jxaUdT233//nplpw8xFa4BASCBQaGnlLAaDP/LII9c67tnLmlwbDdNse8Ja+aVMFqIisIm2QKYZIGBYAtwI4BCMFq6/oexqFgLa0JKDxhakgz4wy1HBQcxDIGPCkc/fJZWUxm8uLHjCi9ClVdsw1gprgI0D1BmPsVnULAMYsrmNxW8z8ReKTyHsMQz/15a1x6fsWf0BJuXMBOOJE8tCo9EueqEBxoKZECKEu01F8GMAPgNCfa4/gW3aEm/gHfzEYUrGb5xAQGiecf6Dzc364DvppDa39wQ8jCUCo6JM6jAb1/oHwMoaWx1AMM7luEfMV1ioykGK1tC+++67lp/VHAJFccZH2RU5DG0xX/QFKvGvfhUth2l/KT1jj9hDan80iUGw1s0NIe3y9ymnnFLwnH7n6rR9Z3veXEs1d5kTxcQITAKdPInD3ozbOgdSItYk4oPsa/fFgX/4hrHiQdrXVgRs40P2pvotipdpE1/DA/RnfxP2UUnV397Z+tCGdWq94FP4CKsCmaedOFvG3xEQa91SQigtlBfPGw/eox0gQp8UorAQ+D5ir/AxPEo8lfc0lr322qsAF/Z8nEnTNl28PFfGxSoRl3FFkkLMNyBVxGQIUgxfUHxZBghuPOiggxYElHsFCRFwNnsXpg8DtHhMsECY5cj8mm4WC4YFwQZ2WSj9AALaWDxRLIjAgFjHcZlLm8lF6IZpr5evr1y4I3xp5pH5HTjwWfj7tB0FjbSv7TDb+Tue0WYEUvk+TIAR++B3rDl9xBHMxouZhDvAfWgX2ka4R7yf/ozFPWEhsObi/jB5+i72RABo3wEEYaKMMtDhjhkWtHlPzCFqecT81gGEaUtzRHcZSjSnoB9t7YQTTijAcazJUdc8IWB9OJNlVMAx6ljG+Txm79AhYNPFitYvSDGyCQgEwtr/rbEw2Xc5VvMLWLtCm8cnIq0vypyXzycIYRhBhHhMuCLK+zsyF9wfFoWIc8IrvJv/R4aCsbjX/2Pvx3fGo41wH+AZlCPrMWrwRLZHxCa4RzsBrMLyoC08O4S7d49qn+FOicqL+o9D4rTl0l8oZcY7CjhgHQG4ykp9HUBoHKQYE3n44YevhTiCkF0tnggOi0XQVbtLqR00o5k7SjkmeRBAMH5oEnoeFJi1lN510mOJ4J62/Uag0rCCvW1/ve7HwGRrEF7la1ZcDOjPlBrnhcR7d6nBxhrBY0Zhsl3N+bjaoXwcddRRC+B2EEAwDpo2wcuKsNh7YVx0GbXdYXlMKESLTVdCn0uHzCnXVRgZIHhBCMe5CJMoUznqRC7F5yFI9RcI+3KQVROA4H0cDwpFRirSUnzHPKbhKMB0ybQZvtlZBAjemYB6+tOfXvhvp1mAD7dKBj9FgDlnRqZAmcc0AQhaZ9KmJXOj9arGOngU+Y6lSAGgEQjkWqha5DoBCF46csHD5LwUCbEUxwQ5RmGN6viaAoRAoczQzFL5mg4KRIGvXtrFrFgQYjbD9RTm1emY5cm8RWQiVXtrChCCx3Av8KtnPj+ZeRt3L9ygXKi9wgE6AwjjfpFZbL8NQJhF+sz6O88aQJj1+R7H+7cBCOPoP7e5tCkwFEBQ8arL+s9Lm0SLNzoR6xGkKAJ20FkKizfS3PNiUABAiIqVUThluQYpcrMJ8nKJYD/ssMMW5SyUxZjHxexT2l8EKUZg72L7wxeTHrnvtSkAIPhhzSwHZReB13WlluWNSx3JfsDxLyXBh5FyIr0oByKOn+bLqYfIJGEeXO4AoXxYU6TSVY8lX05zs1zGKm7MMegi12X7jJKKu1zeOY+zOQWiWiyAEDK/bxZDpJY17yLfOSwFItUmalFkZD8sJaf3uTJDn5ZCSZFaHVkk0zt7i/9m5dS4OOhs8UeVR7CUKFBNn+wLEJbSwPNYMgUyBa6nwLQAhDynmQKZAkuXAhkgLN25ySPLFOhJgQwQ8uLIFMgUGDcF1gEIYfKL6lnVAiVREa/pwKKD8v1t2xA4EeWfo522hW3q+qyWlh70TuGjqZr/696xV1u9+qx7x37jqXufXuPrVdijF018Xp33tsVBovxo+R3attHVvJuv6py1WYPGHQW8yu/Tds662AtR+jTG0WUBoUHrv6vvg7egaZR2LbcdFemautnq5qFc9bO6Bv2/bg9XffLVyrKD3r/XOlE7phpj0Yt/9WqjC5r04um99mXdGHvRpNf4er1ndR2jbS/+1Yvu1k61oF4v+mmj7j17rZO2PL2OZ1qXbU5grOszKkA23ed1NIxQgaY8vUyT2BMLQYqDNkH+PlOgCQXagoEmbeZ7po8Cs7BOZuEdF2NlZrpOjur/H9O62qK8h1RWAAAAAElFTkSuQmCC;" parent="003vY1ZB3nKPKTwguDPn-1" vertex="1">
                    <mxGeometry width="1770.91" height="1100" as="geometry"/>
                </mxCell>
            </root>
        </mxGraphModel>
    </diagram>
    <diagram id="d64l971NgMdNv4-LYIf9" name="Fav-Code-Snipits">
        &#xa;
        <mxGraphModel dx="1828" dy="1748" grid="0" gridSize="10" guides="1" tooltips="1" connect="1" arrows="1" fold="1" page="1" pageScale="1" pageWidth="850" pageHeight="1100" background="#99CCFF" math="0" shadow="0">
            &#xa;
            <root>
                &#xa;
                <mxCell id="DArmi3o2uHpDw7VZR3ST-0"/>
                &#xa;
                <mxCell id="DArmi3o2uHpDw7VZR3ST-1" parent="DArmi3o2uHpDw7VZR3ST-0"/>
                &#xa;
                <mxCell id="DArmi3o2uHpDw7VZR3ST-2" value="" style="rounded=0;whiteSpace=wrap;html=1;sketch=0;strokeColor=#457B9D;fillColor=#A8DADC;fontColor=#1D3557;" vertex="1" parent="DArmi3o2uHpDw7VZR3ST-1">
                    &#xa;
                    <mxGeometry x="59" y="112" width="474" height="212" as="geometry"/>
                    &#xa;
                </mxCell>
                &#xa;
                <mxCell id="DArmi3o2uHpDw7VZR3ST-3" value="" style="rounded=0;whiteSpace=wrap;html=1;sketch=0;strokeColor=#457B9D;fillColor=#A8DADC;fontColor=#1D3557;" vertex="1" parent="DArmi3o2uHpDw7VZR3ST-1">
                    &#xa;
                    <mxGeometry x="59" y="444" width="474" height="212" as="geometry"/>
                    &#xa;
                </mxCell>
                &#xa;
                <mxCell id="DArmi3o2uHpDw7VZR3ST-4" value="" style="rounded=0;whiteSpace=wrap;html=1;sketch=0;strokeColor=#457B9D;fillColor=#A8DADC;fontColor=#1D3557;" vertex="1" parent="DArmi3o2uHpDw7VZR3ST-1">
                    &#xa;
                    <mxGeometry x="59" y="815" width="474" height="212" as="geometry"/>
                    &#xa;
                </mxCell>
                &#xa;
                <mxCell id="-VFaJDh8fcnEEglu3bMq-0" value="&lt;font style=&quot;font-size: 24px&quot;&gt;CODE SNIPIT&lt;/font&gt;" style="text;html=1;align=center;verticalAlign=middle;resizable=0;points=[];autosize=1;fontColor=#1D3557;strokeWidth=12;" vertex="1" parent="DArmi3o2uHpDw7VZR3ST-1">
                    &#xa;
                    <mxGeometry x="215" y="78" width="162" height="21" as="geometry"/>
                    &#xa;
                </mxCell>
                &#xa;
                <mxCell id="-VFaJDh8fcnEEglu3bMq-1" value="&lt;font style=&quot;font-size: 24px&quot;&gt;CODE SNIPIT&lt;/font&gt;" style="text;html=1;align=center;verticalAlign=middle;resizable=0;points=[];autosize=1;fontColor=#1D3557;strokeWidth=12;" vertex="1" parent="DArmi3o2uHpDw7VZR3ST-1">
                    &#xa;
                    <mxGeometry x="215" y="405" width="162" height="21" as="geometry"/>
                    &#xa;
                </mxCell>
                &#xa;
                <mxCell id="-VFaJDh8fcnEEglu3bMq-2" value="&lt;font style=&quot;font-size: 24px&quot;&gt;CODE SNIPIT&lt;/font&gt;" style="text;html=1;align=center;verticalAlign=middle;resizable=0;points=[];autosize=1;fontColor=#1D3557;strokeWidth=12;" vertex="1" parent="DArmi3o2uHpDw7VZR3ST-1">
                    &#xa;
                    <mxGeometry x="213" y="777" width="162" height="21" as="geometry"/>
                    &#xa;
                </mxCell>
                &#xa;
                <mxCell id="-VFaJDh8fcnEEglu3bMq-3" value="&lt;font style=&quot;font-size: 24px&quot;&gt;LIZ'S&lt;/font&gt;" style="text;html=1;align=center;verticalAlign=middle;resizable=0;points=[];autosize=1;fontColor=#1D3557;strokeWidth=12;" vertex="1" parent="DArmi3o2uHpDw7VZR3ST-1">
                    &#xa;
                    <mxGeometry x="122" y="777" width="65" height="21" as="geometry"/>
                    &#xa;
                </mxCell>
                &#xa;
                <mxCell id="-VFaJDh8fcnEEglu3bMq-4" value="&lt;font style=&quot;font-size: 24px&quot;&gt;QUIN'S&lt;/font&gt;" style="text;html=1;align=center;verticalAlign=middle;resizable=0;points=[];autosize=1;fontColor=#1D3557;strokeWidth=12;" vertex="1" parent="DArmi3o2uHpDw7VZR3ST-1">
                    &#xa;
                    <mxGeometry x="100" y="405" width="90" height="21" as="geometry"/>
                    &#xa;
                </mxCell>
                &#xa;
                <mxCell id="-VFaJDh8fcnEEglu3bMq-5" value="&lt;font style=&quot;font-size: 24px&quot;&gt;BINAY'S&lt;/font&gt;" style="text;html=1;align=center;verticalAlign=middle;resizable=0;points=[];autosize=1;fontColor=#1D3557;strokeWidth=12;" vertex="1" parent="DArmi3o2uHpDw7VZR3ST-1">
                    &#xa;
                    <mxGeometry x="104.5" y="78" width="100" height="21" as="geometry"/>
                    &#xa;
                </mxCell>
                &#xa;
            </root>
            &#xa;
        </mxGraphModel>
        &#xa;
    </diagram>
</mxfile>